<svg width="90" height="90" viewBox="0 0 90 90" fill="none" xmlns="http://www.w3.org/2000/svg">
<circle cx="45" cy="45" r="45" fill="#4D5771"/>
<path fill-rule="evenodd" clip-rule="evenodd" d="M79.621 27.4149C80.1713 26.4635 79.8365 25.2496 78.8731 24.7036C77.9098 24.1576 76.6828 24.4862 76.1325 25.4377L73.9849 29.1053C69.7612 21.6006 62.5866 15.732 53.5352 13.3475C35.8028 8.67613 17.5963 19.1391 12.8618 36.7034C8.12721 54.2678 18.6528 72.2999 36.3851 76.9713C47.5713 79.9181 58.9469 76.8398 67.0046 69.7638C73.3359 64.2041 77.3214 55.0488 76.9312 46.5497C76.8808 45.4522 75.8714 44.6838 74.7741 44.823C73.6704 44.963 72.8977 45.968 72.9302 47.0726C73.1411 54.2338 69.7145 62.0713 64.3362 66.7941L64.3362 66.7942C57.2418 73.0242 47.2449 75.7214 37.4197 73.1331C21.8414 69.0292 12.5785 53.1805 16.7442 37.7262C20.91 22.2719 36.9222 13.0817 52.5006 17.1857C59.9591 19.1505 65.9692 23.8052 69.7526 29.8244L66.3905 28.2449C65.3877 27.7737 64.1901 28.1948 63.7155 29.1855C63.241 30.1761 63.6693 31.3611 64.6721 31.8322L72.6201 35.5664C73.6161 36.0343 74.8071 35.666 75.3537 34.721L79.621 27.4149Z" fill="#5FAF61"/>
<path fill-rule="evenodd" clip-rule="evenodd" d="M79.621 27.4149C80.1713 26.4635 79.8365 25.2496 78.8731 24.7036C77.9098 24.1576 76.6828 24.4862 76.1325 25.4377L73.9849 29.1053C69.7612 21.6006 62.5866 15.732 53.5352 13.3475C35.8028 8.67613 17.5963 19.1391 12.8618 36.7034C8.12721 54.2678 18.6528 72.2999 36.3851 76.9713C47.5713 79.9181 58.9469 76.8398 67.0046 69.7638C73.3359 64.2041 77.3214 55.0488 76.9312 46.5497C76.8808 45.4522 75.8714 44.6838 74.7741 44.823C73.6704 44.963 72.8977 45.968 72.9302 47.0726C73.1411 54.2338 69.7145 62.0713 64.3362 66.7941L64.3362 66.7942C57.2418 73.0242 47.2449 75.7214 37.4197 73.1331C21.8414 69.0292 12.5785 53.1805 16.7442 37.7262C20.91 22.2719 36.9222 13.0817 52.5006 17.1857C59.9591 19.1505 65.9692 23.8052 69.7526 29.8244L66.3905 28.2449C65.3877 27.7737 64.1901 28.1948 63.7155 29.1855C63.241 30.1761 63.6693 31.3611 64.6721 31.8322L72.6201 35.5664C73.6161 36.0343 74.8071 35.666 75.3537 34.721L79.621 27.4149Z" fill="url(#paint0_linear)"/>
<path d="M28.9552 43.0551C28.9552 41.9984 29.3375 41.126 30.102 40.4379C30.872 39.7443 31.8441 39.3975 33.0183 39.3975C34.1433 39.3975 35.0798 39.7118 35.828 40.3403C36.5762 40.9689 36.9503 41.7492 36.9503 42.6812C36.9503 43.3368 36.7673 43.96 36.4014 44.5506C36.0355 45.1358 35.3966 45.8917 34.4846 46.8183L31.5274 49.7688L31.5274 49.8094L37.1387 49.8094L37.1387 51.3456L29.0535 51.3456L29.0535 50.1101L33.3214 45.7942C34.0422 45.0464 34.5255 44.472 34.7713 44.0711C35.017 43.6647 35.1399 43.2312 35.1399 42.7706C35.1399 42.2504 34.9297 41.8088 34.5092 41.4457C34.0887 41.0827 33.5726 40.9011 32.9609 40.9011C32.3165 40.9011 31.7759 41.1071 31.339 41.5189C30.9075 41.9253 30.6918 42.4346 30.6918 43.0469L30.6918 43.0713L28.9552 43.0713L28.9552 43.0551ZM44.0443 51.3456L44.0443 49.0291L38.1299 49.0291L38.1299 47.436C39.0801 45.6587 40.754 43.0524 43.1514 39.6169L45.8055 39.6169L45.8055 47.5011L47.4275 47.5011L47.4275 49.0291L45.8055 49.0291L45.8055 51.3456L44.0443 51.3456ZM39.842 47.4848L39.842 47.5254L44.0607 47.5254L44.0607 41.0231L44.0279 41.0231C42.0728 43.8245 40.6775 45.9784 39.842 47.4848ZM49.4754 53.914L47.9272 53.914L51.4578 39.6088L53.047 39.6088L49.4754 53.914ZM54.628 51.3456L59.8789 41.1938L59.8789 41.1531L53.645 41.1531L53.645 39.6169L61.6892 39.6169L61.6892 41.1938L56.553 51.3456L54.628 51.3456Z" fill="#5FAF61"/>
<path d="M28.9552 43.0551C28.9552 41.9984 29.3375 41.126 30.102 40.4379C30.872 39.7443 31.8441 39.3975 33.0183 39.3975C34.1433 39.3975 35.0798 39.7118 35.828 40.3403C36.5762 40.9689 36.9503 41.7492 36.9503 42.6812C36.9503 43.3368 36.7673 43.96 36.4014 44.5506C36.0355 45.1358 35.3966 45.8917 34.4846 46.8183L31.5274 49.7688L31.5274 49.8094L37.1387 49.8094L37.1387 51.3456L29.0535 51.3456L29.0535 50.1101L33.3214 45.7942C34.0422 45.0464 34.5255 44.472 34.7713 44.0711C35.017 43.6647 35.1399 43.2312 35.1399 42.7706C35.1399 42.2504 34.9297 41.8088 34.5092 41.4457C34.0887 41.0827 33.5726 40.9011 32.9609 40.9011C32.3165 40.9011 31.7759 41.1071 31.339 41.5189C30.9075 41.9253 30.6918 42.4346 30.6918 43.0469L30.6918 43.0713L28.9552 43.0713L28.9552 43.0551ZM44.0443 51.3456L44.0443 49.0291L38.1299 49.0291L38.1299 47.436C39.0801 45.6587 40.754 43.0524 43.1514 39.6169L45.8055 39.6169L45.8055 47.5011L47.4275 47.5011L47.4275 49.0291L45.8055 49.0291L45.8055 51.3456L44.0443 51.3456ZM39.842 47.4848L39.842 47.5254L44.0607 47.5254L44.0607 41.0231L44.0279 41.0231C42.0728 43.8245 40.6775 45.9784 39.842 47.4848ZM49.4754 53.914L47.9272 53.914L51.4578 39.6088L53.047 39.6088L49.4754 53.914ZM54.628 51.3456L59.8789 41.1938L59.8789 41.1531L53.645 41.1531L53.645 39.6169L61.6892 39.6169L61.6892 41.1938L56.553 51.3456L54.628 51.3456Z" fill="white"/>
<defs>
<linearGradient id="paint0_linear" x1="90.3062" y1="-13.8474" x2="26.6995" y2="-8.85611" gradientUnits="userSpaceOnUse">
<stop stop-color="#16D691"/>
<stop offset="1" stop-color="#71BCFF"/>
</linearGradient>
</defs>
</svg>
