<svg width="78" height="90" viewBox="0 0 78 90" fill="none" xmlns="http://www.w3.org/2000/svg">
<rect width="78" height="90" rx="8" fill="#4D5771"/>
<path d="M33.4285 44.4672C35.4064 46.0468 36.5154 46.9325 38.4934 48.5121L43.5583 44.4672" stroke="white" stroke-miterlimit="10" stroke-linecap="round" stroke-linejoin="round"/>
<path d="M10.1299 46.3576C12.6629 46.3716 26.0348 46.3794 28.5678 46.3934" stroke="white" stroke-opacity="0.4" stroke-miterlimit="10" stroke-linecap="round" stroke-linejoin="round"/>
<path d="M48.6233 46.3576C51.1563 46.3716 64.5282 46.3794 67.0612 46.3934" stroke="white" stroke-opacity="0.4" stroke-miterlimit="10" stroke-linecap="round" stroke-linejoin="round"/>
<path d="M25.3875 63.0484V70.388C25.3875 71.1937 25.6238 71.8409 26.0964 72.3297C26.5745 72.813 27.2378 73.0547 28.0864 73.0547C28.9351 73.0547 29.5984 72.813 30.0764 72.3297C30.5544 71.8409 30.7935 71.1937 30.7935 70.388V63.0484H32.864V70.5733C32.864 71.857 32.4316 72.8936 31.5669 73.6832C30.7075 74.4727 29.5474 74.8675 28.0864 74.8675C26.6309 74.8675 25.4707 74.4727 24.606 73.6832C23.7412 72.8936 23.3088 71.857 23.3088 70.5733V63.0484H25.3875ZM34.9134 74.6741V73.2884L41.0848 64.8611V64.8047H35.0826V63.0484H43.5985V64.4341L37.4593 72.8614V72.9178H43.7516V74.6741H34.9134ZM45.3176 71.4031H47.3317C47.3962 71.9349 47.6701 72.3646 48.1535 72.6922C48.6369 73.0145 49.2358 73.1756 49.9501 73.1756C50.6484 73.1756 51.2177 73.0198 51.6581 72.7083C52.1039 72.3968 52.3268 71.9993 52.3268 71.5159C52.3268 71.097 52.1657 70.7586 51.8434 70.5008C51.5212 70.2376 50.9948 70.0201 50.2643 69.8482L48.7577 69.4937C47.6889 69.2466 46.894 68.8626 46.373 68.3416C45.8574 67.8206 45.5995 67.1439 45.5995 66.3113C45.5995 65.2855 46.0024 64.4529 46.808 63.8138C47.6137 63.1746 48.653 62.855 49.926 62.855C51.2043 62.855 52.2328 63.1719 53.0117 63.8057C53.7958 64.4341 54.2014 65.2613 54.2282 66.2872H52.2463C52.1979 65.7447 51.9643 65.3204 51.5453 65.0142C51.1264 64.7027 50.5812 64.5469 49.9098 64.5469C49.2546 64.5469 48.7228 64.6946 48.3146 64.9901C47.9118 65.2855 47.7104 65.6749 47.7104 66.1583C47.7104 66.545 47.8661 66.8592 48.1777 67.1009C48.4946 67.3426 49.0102 67.5494 49.7245 67.7213L51.0619 68.0274C52.2382 68.296 53.0922 68.688 53.624 69.2037C54.1557 69.7193 54.4216 70.4095 54.4216 71.2742C54.4216 72.3753 54.008 73.2508 53.1808 73.9007C52.3591 74.5452 51.2446 74.8675 49.8373 74.8675C48.4946 74.8675 47.415 74.5587 46.5986 73.941C45.7875 73.3179 45.3605 72.472 45.3176 71.4031Z" fill="#32CEB3"/>
<path d="M25.3875 27.1573H23.3088V15.5316H25.3875V20.9698H25.46L30.1006 15.5316H32.4934L28.0139 20.6878L32.8398 27.1573H30.3101L26.5315 22.0816L25.3875 23.419V27.1573ZM33.9305 27.1573V25.7715L40.1019 17.3443V17.2879H34.0997V15.5316H42.6156V16.9173L36.4764 25.3445V25.4009H42.7686V27.1573H33.9305ZM49.7809 27.1573H47.7023V17.2879H44.1735V15.5316H53.3097V17.2879H49.7809V27.1573Z" fill="#32CEB3"/>
</svg>
