<svg width="90" height="90" viewBox="0 0 90 90" fill="none" xmlns="http://www.w3.org/2000/svg">
<circle cx="45" cy="45" r="45" fill="#4D5771"/>
<path d="M79.6271 51.1643C79.6271 63.5279 73.3133 66.0885 63.4977 64.1263C51.4863 61.7251 39.3968 60.6239 27.5214 63.6264C17.8149 66.0806 11.5828 65.0019 11.5828 51.1643C11.5828 31.2896 26.815 16.0733 45.6049 16.0733C64.3949 16.0733 79.6271 31.2896 79.6271 51.1643Z" fill="#1A2133" fill-opacity="0.8"/>
<path d="M59.5712 38.2075L43.555 43.9222C41.4951 44.6571 40.5761 47.0561 41.6178 48.9792C42.6302 50.8482 45.0426 51.4221 46.7881 50.2092L60.7531 40.5058C61.3291 40.1056 61.4852 39.3212 61.1062 38.731C60.7786 38.2207 60.1423 38.0037 59.5712 38.2075Z" fill="white"/>
<path fill-rule="evenodd" clip-rule="evenodd" d="M71.1951 58.1313C70.0256 58.1313 69.2124 56.9612 69.5131 55.831C70.0623 53.7672 70.3549 51.5987 70.3549 49.3618C70.3549 35.527 59.1545 24.3039 45.3284 24.3039C31.5024 24.3039 20.302 35.527 20.302 49.3618C20.302 51.5986 20.5946 53.767 21.1437 55.8309C21.4445 56.9612 20.6312 58.1313 19.4616 58.1313C18.7338 58.1313 18.0842 57.6631 17.8909 56.9615C17.2244 54.5422 16.8682 51.9937 16.8682 49.3618C16.8682 33.6141 29.6146 20.8559 45.3284 20.8559C61.0422 20.8559 73.7886 33.6141 73.7886 49.3618C73.7886 51.9937 73.4324 54.5421 72.7658 56.9615C72.5725 57.6631 71.9229 58.1313 71.1951 58.1313Z" fill="#5FAF61"/>
<path fill-rule="evenodd" clip-rule="evenodd" d="M71.1951 58.1313C70.0256 58.1313 69.2124 56.9612 69.5131 55.831C70.0623 53.7672 70.3549 51.5987 70.3549 49.3618C70.3549 35.527 59.1545 24.3039 45.3284 24.3039C31.5024 24.3039 20.302 35.527 20.302 49.3618C20.302 51.5986 20.5946 53.767 21.1437 55.8309C21.4445 56.9612 20.6312 58.1313 19.4616 58.1313C18.7338 58.1313 18.0842 57.6631 17.8909 56.9615C17.2244 54.5422 16.8682 51.9937 16.8682 49.3618C16.8682 33.6141 29.6146 20.8559 45.3284 20.8559C61.0422 20.8559 73.7886 33.6141 73.7886 49.3618C73.7886 51.9937 73.4324 54.5421 72.7658 56.9615C72.5725 57.6631 71.9229 58.1313 71.1951 58.1313Z" fill="url(#paint0_linear)"/>
<defs>
<linearGradient id="paint0_linear" x1="75.7228" y1="42.264" x2="11.6256" y2="66.5879" gradientUnits="userSpaceOnUse">
<stop stop-color="#16D691"/>
<stop offset="1" stop-color="#71BCFF"/>
</linearGradient>
</defs>
</svg>
