<svg width="61" height="90" viewBox="0 0 61 90" fill="none" xmlns="http://www.w3.org/2000/svg">
<rect x="0.708252" y="49.3728" width="60" height="40.6273" rx="4.99485" fill="#4D5771"/>
<path d="M56.7987 66.3208C38.5433 64.4184 30.4838 80.6628 1.14795 68.2478V84.7306C1.14795 87.4892 3.38422 89.7255 6.1428 89.7255H55.7134C58.472 89.7255 60.7082 87.4892 60.7082 84.7306V70.9486C60.7082 68.6264 59.1083 66.5614 56.7987 66.3208Z" fill="white" fill-opacity="0.1"/>
<path d="M50.7584 82.9625L49.3616 86.081H48.4504L47.7633 83.5924C47.7213 83.4395 47.6854 83.3834 47.5587 83.3181C47.3512 83.2129 47.0095 83.114 46.7083 83.053L46.7285 82.9625H48.1949C48.3815 82.9625 48.5501 83.0789 48.5928 83.2802L48.9555 85.085L49.8524 82.9625H50.7584ZM54.3274 85.0632C54.3312 84.2405 53.112 84.1949 53.1202 83.8266C53.1232 83.7151 53.2364 83.5959 53.4859 83.5657C53.6095 83.551 53.9497 83.5391 54.3356 83.7053L54.487 83.0439C54.2794 82.9737 54.0127 82.9064 53.6807 82.9064C52.8288 82.9064 52.2293 83.33 52.2248 83.9375C52.2195 84.3864 52.6527 84.6368 52.9794 84.7862C53.3158 84.9391 53.4282 85.0373 53.4267 85.1734C53.4245 85.3824 53.1585 85.475 52.9112 85.4785C52.4773 85.4848 52.2263 85.369 52.0262 85.2814L51.8696 85.9652C52.0712 86.0515 52.4428 86.1266 52.828 86.1308C53.7324 86.1301 54.3252 85.7113 54.3274 85.0632ZM56.5776 86.081H57.3749L56.6788 82.9625H55.9437C55.7781 82.9625 55.6387 83.0523 55.5765 83.1912L54.2832 86.081H55.1884L55.3682 85.6152H56.4742L56.5776 86.081ZM55.6155 84.9763L56.0696 83.8049L56.3304 84.9763H55.6155ZM51.9895 82.9625L51.2769 86.081H50.4152L51.1278 82.9625H51.9895Z" fill="white"/>
<rect x="6.04224" y="65.4947" width="8" height="6.44877" rx="1.66495" fill="white"/>
<path d="M9.70825 65.4947V66.9193C9.70825 67.3791 9.33554 67.7518 8.87578 67.7518H5.37492" stroke="#4D5771" stroke-width="0.832475" stroke-linejoin="round"/>
<path d="M10.7083 72.2659L10.7083 70.8413C10.7083 70.3816 11.081 70.0088 11.5407 70.0088L15.0416 70.0088" stroke="#4D5771" stroke-width="0.832475" stroke-linejoin="round"/>
<rect x="0.708252" width="60" height="40.6273" rx="4.99485" fill="#4C9EE7"/>
<path d="M56.359 16.8866C38.1036 14.9843 30.0441 31.2286 0.708252 18.8137V35.2965C0.708252 38.055 2.94452 40.2913 5.7031 40.2913H55.2737C58.0323 40.2913 60.2685 38.055 60.2685 35.2965V21.5144C60.2685 19.1922 58.6686 17.1273 56.359 16.8866Z" fill="white" fill-opacity="0.16"/>
<rect x="4.04224" y="16.4447" width="8" height="6.44877" rx="1.66495" fill="white"/>
<path d="M7.70825 16.122V17.5466C7.70825 18.0064 7.33554 18.3791 6.87578 18.3791H3.37492" stroke="#4C9EE7" stroke-width="0.832475" stroke-linejoin="round"/>
<path d="M8.70825 23.2157L8.70825 21.7911C8.70825 21.3313 9.08096 20.9586 9.54073 20.9586L13.0416 20.9586" stroke="#4C9EE7" stroke-width="0.832475" stroke-linejoin="round"/>
<path d="M50.7584 33.5898L49.3616 36.7083H48.4504L47.7633 34.2197C47.7213 34.0668 47.6854 34.0107 47.5587 33.9454C47.3512 33.8402 47.0095 33.7413 46.7083 33.6803L46.7285 33.5898H48.1949C48.3815 33.5898 48.5501 33.7063 48.5928 33.9076L48.9555 35.7123L49.8524 33.5898H50.7584ZM54.3274 35.6906C54.3312 34.8678 53.112 34.8222 53.1202 34.454C53.1232 34.3424 53.2364 34.2232 53.4859 34.193C53.6095 34.1783 53.9497 34.1664 54.3356 34.3326L54.487 33.6712C54.2794 33.601 54.0127 33.5337 53.6807 33.5337C52.8288 33.5337 52.2293 33.9574 52.2248 34.5648C52.2195 35.0137 52.6527 35.2641 52.9794 35.4135C53.3158 35.5664 53.4282 35.6646 53.4267 35.8007C53.4245 36.0097 53.1585 36.1023 52.9112 36.1058C52.4773 36.1121 52.2263 35.9964 52.0262 35.9087L51.8696 36.5926C52.0712 36.6788 52.4428 36.7539 52.828 36.7581C53.7324 36.7574 54.3252 36.3387 54.3274 35.6906ZM56.5776 36.7083H57.3749L56.6788 33.5898H55.9437C55.7781 33.5898 55.6387 33.6796 55.5765 33.8185L54.2832 36.7083H55.1884L55.3682 36.2426H56.4742L56.5776 36.7083ZM55.6155 35.6036L56.0696 34.4322L56.3304 35.6036H55.6155ZM51.9895 33.5898L51.2769 36.7083H50.4152L51.1278 33.5898H51.9895Z" fill="white"/>
<path d="M41.3268 43.7793L41.3268 6.10875C41.3268 5.64899 40.9541 5.27628 40.4944 5.27628L21.831 5.27627C21.3713 5.27627 20.9985 5.64899 20.9985 6.10875L20.9985 43.7793C20.9985 44.2391 20.6258 44.6118 20.1661 44.6118L17.3314 44.6118C16.5803 44.6118 16.2133 45.5279 16.7566 46.0465L30.5879 59.249C30.9096 59.5561 31.4158 59.5561 31.7375 59.249L45.5688 46.0465C46.1121 45.5279 45.745 44.6118 44.994 44.6118L42.1593 44.6118C41.6995 44.6118 41.3268 44.2391 41.3268 43.7793Z" fill="url(#paint0_linear)"/>
<defs>
<linearGradient id="paint0_linear" x1="15.2536" y1="65.0642" x2="15.2536" y2="16.8319" gradientUnits="userSpaceOnUse">
<stop stop-color="#18B397"/>
<stop offset="1" stop-color="#76FFE6" stop-opacity="0"/>
</linearGradient>
</defs>
</svg>
