<svg width="61" height="90" fill="none" xmlns="http://www.w3.org/2000/svg"><rect x=".708" y="49.373" width="60" height="40.627" rx="4.995" fill="#4D5771"/><path d="M56.799 66.32c-18.256-1.902-26.315 14.343-55.651 1.928V84.73a4.995 4.995 0 004.995 4.995h49.57a4.995 4.995 0 004.995-4.995V70.949c0-2.323-1.6-4.388-3.91-4.628z" fill="#fff" fill-opacity=".1"/><path d="M50.758 82.963l-1.396 3.118h-.912l-.687-2.489c-.042-.153-.078-.209-.204-.274-.208-.105-.55-.204-.85-.265l.02-.09h1.466c.187 0 .355.116.398.317l.362 1.805.897-2.122h.906zm3.57 2.1c.003-.823-1.216-.868-1.208-1.236.003-.112.116-.231.366-.261.123-.015.464-.027.85.14l.151-.662a2.466 2.466 0 00-.806-.138c-.852 0-1.452.424-1.456 1.031-.006.45.428.7.754.85.337.152.45.25.448.386-.002.21-.269.302-.516.305-.434.007-.685-.109-.885-.197l-.156.684c.201.087.573.162.958.166.904 0 1.497-.42 1.5-1.068zm2.25 1.018h.797l-.696-3.118h-.735a.394.394 0 00-.367.228l-1.294 2.89h.905l.18-.466h1.106l.104.466zm-.963-1.105l.455-1.171.26 1.171h-.715zm-3.626-2.013l-.712 3.118h-.862l.713-3.118h.861z" fill="#fff"/><rect x="6.042" y="65.495" width="8" height="6.449" rx="1.665" fill="#fff"/><path d="M9.708 65.495v1.424c0 .46-.372.833-.832.833H5.375m5.333 4.514V70.84c0-.46.373-.832.833-.832h3.5" stroke="#4D5771" stroke-width=".832" stroke-linejoin="round"/><rect x=".708" width="60" height="40.627" rx="4.995" fill="#4C9EE7"/><path d="M56.359 16.887C38.104 14.984 30.044 31.229.709 18.814v16.483a4.995 4.995 0 004.994 4.994h49.57a4.995 4.995 0 004.995-4.994V21.514c0-2.322-1.6-4.387-3.909-4.627z" fill="#fff" fill-opacity=".16"/><rect x="4.042" y="16.445" width="8" height="6.449" rx="1.665" fill="#fff"/><path d="M7.708 16.122v1.425c0 .46-.372.832-.832.832H3.375m5.333 4.837V21.79c0-.46.373-.832.833-.832h3.5" stroke="#4C9EE7" stroke-width=".832" stroke-linejoin="round"/><path d="M50.758 33.59l-1.396 3.118h-.912l-.687-2.488c-.042-.153-.078-.21-.204-.275-.208-.105-.55-.204-.85-.265l.02-.09h1.466c.187 0 .355.116.398.318l.362 1.804.897-2.122h.906zm3.57 2.1c.003-.822-1.216-.868-1.208-1.236.003-.112.116-.23.366-.261.123-.015.464-.027.85.14l.151-.662a2.466 2.466 0 00-.806-.137c-.852 0-1.452.423-1.456 1.03-.006.45.428.7.754.85.337.152.45.25.448.387-.002.209-.269.301-.516.305-.434.006-.685-.11-.885-.197l-.156.684c.201.086.573.16.958.165.904 0 1.497-.42 1.5-1.067zm2.25 1.018h.797l-.696-3.118h-.735a.394.394 0 00-.367.228l-1.294 2.89h.905l.18-.465h1.106l.104.465zm-.963-1.104l.455-1.172.26 1.172h-.715zM51.99 33.59l-.712 3.118h-.862l.713-3.118h.861z" fill="#fff"/><path d="M41.327 43.78V6.108a.832.832 0 00-.833-.833H21.831a.833.833 0 00-.832.833v37.67c0 .46-.373.833-.833.833h-2.835c-.75 0-1.118.916-.574 1.434l13.83 13.203a.832.832 0 001.15 0L45.57 46.046c.543-.518.176-1.434-.575-1.434H42.16a.832.832 0 01-.832-.833z" fill="url(#paint0_linear)"/><defs><linearGradient id="paint0_linear" x1="15.254" y1="65.064" x2="15.254" y2="16.832" gradientUnits="userSpaceOnUse"><stop stop-color="#18B397"/><stop offset="1" stop-color="#76FFE6" stop-opacity="0"/></linearGradient></defs></svg>