<svg width="90" height="90" fill="none" xmlns="http://www.w3.org/2000/svg"><circle cx="45" cy="45" r="45" fill="#4D5771"/><path d="M79.627 51.164c0 12.364-6.314 14.924-16.13 12.962-12.01-2.4-24.1-3.502-35.976-.5-9.706 2.455-15.938 1.376-15.938-12.462 0-19.874 15.232-35.09 34.022-35.09s34.022 15.216 34.022 35.09z" fill="#1A2133" fill-opacity=".8"/><path d="M59.571 38.208l-16.016 5.714a3.566 3.566 0 103.233 6.287l13.965-9.703a1.304 1.304 0 00-1.182-2.298z" fill="#fff"/><path fill-rule="evenodd" clip-rule="evenodd" d="M71.195 58.131c-1.17 0-1.983-1.17-1.682-2.3.55-2.064.842-4.232.842-6.47 0-13.834-11.2-25.057-25.027-25.057-13.826 0-25.026 11.223-25.026 25.058 0 2.237.293 4.405.842 6.469.3 1.13-.513 2.3-1.682 2.3-.728 0-1.378-.468-1.571-1.17a28.577 28.577 0 01-1.023-7.6c0-15.747 12.747-28.505 28.46-28.505 15.714 0 28.46 12.758 28.46 28.506 0 2.632-.356 5.18-1.022 7.6a1.616 1.616 0 01-1.57 1.17z" fill="#5FAF61"/><path fill-rule="evenodd" clip-rule="evenodd" d="M71.195 58.131c-1.17 0-1.983-1.17-1.682-2.3.55-2.064.842-4.232.842-6.47 0-13.834-11.2-25.057-25.027-25.057-13.826 0-25.026 11.223-25.026 25.058 0 2.237.293 4.405.842 6.469.3 1.13-.513 2.3-1.682 2.3-.728 0-1.378-.468-1.571-1.17a28.577 28.577 0 01-1.023-7.6c0-15.747 12.747-28.505 28.46-28.505 15.714 0 28.46 12.758 28.46 28.506 0 2.632-.356 5.18-1.022 7.6a1.616 1.616 0 01-1.57 1.17z" fill="url(#paint0_linear)"/><defs><linearGradient id="paint0_linear" x1="75.723" y1="42.264" x2="11.626" y2="66.588" gradientUnits="userSpaceOnUse"><stop stop-color="#16D691"/><stop offset="1" stop-color="#71BCFF"/></linearGradient></defs></svg>