<svg width="90" height="90" fill="none" xmlns="http://www.w3.org/2000/svg"><circle cx="45" cy="45" r="45" fill="#4D5771"/><path fill-rule="evenodd" clip-rule="evenodd" d="M79.621 27.415a1.977 1.977 0 00-.748-2.711 2.019 2.019 0 00-2.74.734l-2.148 3.667c-4.224-7.504-11.398-13.373-20.45-15.758-17.732-4.67-35.939 5.792-40.673 23.356-4.735 17.565 5.79 35.597 23.523 40.268 11.186 2.947 22.562-.131 30.62-7.207 6.33-5.56 10.316-14.715 9.926-23.214-.05-1.098-1.06-1.866-2.157-1.727-1.104.14-1.876 1.145-1.844 2.25.211 7.16-3.216 14.998-8.594 19.721-7.094 6.23-17.091 8.927-26.916 6.34-15.58-4.106-24.842-19.954-20.676-35.409 4.166-15.454 20.178-24.644 35.757-20.54 7.458 1.965 13.468 6.62 17.252 12.638l-3.362-1.58a2.016 2.016 0 00-2.676.942 1.98 1.98 0 00.957 2.646l7.948 3.734a2.12 2.12 0 002.734-.845l4.267-7.306z" fill="#5FAF61"/><path fill-rule="evenodd" clip-rule="evenodd" d="M79.621 27.415a1.977 1.977 0 00-.748-2.711 2.019 2.019 0 00-2.74.734l-2.148 3.667c-4.224-7.504-11.398-13.373-20.45-15.758-17.732-4.67-35.939 5.792-40.673 23.356-4.735 17.565 5.79 35.597 23.523 40.268 11.186 2.947 22.562-.131 30.62-7.207 6.33-5.56 10.316-14.715 9.926-23.214-.05-1.098-1.06-1.866-2.157-1.727-1.104.14-1.876 1.145-1.844 2.25.211 7.16-3.216 14.998-8.594 19.721-7.094 6.23-17.091 8.927-26.916 6.34-15.58-4.106-24.842-19.954-20.676-35.409 4.166-15.454 20.178-24.644 35.757-20.54 7.458 1.965 13.468 6.62 17.252 12.638l-3.362-1.58a2.016 2.016 0 00-2.676.942 1.98 1.98 0 00.957 2.646l7.948 3.734a2.12 2.12 0 002.734-.845l4.267-7.306z" fill="url(#paint0_linear)"/><path d="M28.955 43.055c0-1.057.383-1.929 1.147-2.617.77-.694 1.742-1.04 2.916-1.04 1.125 0 2.062.314 2.81.942.748.629 1.122 1.41 1.122 2.341 0 .656-.183 1.279-.549 1.87-.366.585-1.004 1.34-1.916 2.267l-2.958 2.95v.041h5.612v1.537h-8.086V50.11l4.268-4.316c.721-.748 1.205-1.322 1.45-1.723.246-.406.369-.84.369-1.3 0-.52-.21-.962-.63-1.325-.421-.363-.937-.545-1.55-.545-.644 0-1.184.206-1.621.618-.431.406-.647.916-.647 1.528v.024h-1.737v-.016zm15.09 8.29V49.03H38.13v-1.593c.95-1.777 2.624-4.384 5.021-7.82h2.654v7.885h1.623v1.528h-1.622v2.317h-1.762zm-4.203-3.86v.04h4.219v-6.502h-.033c-1.955 2.801-3.35 4.955-4.186 6.462zm9.633 6.429h-1.548l3.53-14.305h1.59l-3.572 14.305zm5.153-2.568l5.25-10.152v-.04h-6.233v-1.537h8.044v1.577l-5.136 10.152h-1.925z" fill="#5FAF61"/><path d="M28.955 43.055c0-1.057.383-1.929 1.147-2.617.77-.694 1.742-1.04 2.916-1.04 1.125 0 2.062.314 2.81.942.748.629 1.122 1.41 1.122 2.341 0 .656-.183 1.279-.549 1.87-.366.585-1.004 1.34-1.916 2.267l-2.958 2.95v.041h5.612v1.537h-8.086V50.11l4.268-4.316c.721-.748 1.205-1.322 1.45-1.723.246-.406.369-.84.369-1.3 0-.52-.21-.962-.63-1.325-.421-.363-.937-.545-1.55-.545-.644 0-1.184.206-1.621.618-.431.406-.647.916-.647 1.528v.024h-1.737v-.016zm15.09 8.29V49.03H38.13v-1.593c.95-1.777 2.624-4.384 5.021-7.82h2.654v7.885h1.623v1.528h-1.622v2.317h-1.762zm-4.203-3.86v.04h4.219v-6.502h-.033c-1.955 2.801-3.35 4.955-4.186 6.462zm9.633 6.429h-1.548l3.53-14.305h1.59l-3.572 14.305zm5.153-2.568l5.25-10.152v-.04h-6.233v-1.537h8.044v1.577l-5.136 10.152h-1.925z" fill="#fff"/><defs><linearGradient id="paint0_linear" x1="90.306" y1="-13.847" x2="26.7" y2="-8.856" gradientUnits="userSpaceOnUse"><stop stop-color="#16D691"/><stop offset="1" stop-color="#71BCFF"/></linearGradient></defs></svg>