<svg width="78" height="90" fill="none" xmlns="http://www.w3.org/2000/svg"><rect width="78" height="90" rx="8" fill="#4D5771"/><path d="M33.428 44.467l5.065 4.045 5.065-4.045" stroke="#fff" stroke-miterlimit="10" stroke-linecap="round" stroke-linejoin="round"/><path d="M10.13 46.358c2.533.014 15.905.021 18.438.035m20.055-.035c2.533.014 15.905.021 18.438.035" stroke="#fff" stroke-opacity=".4" stroke-miterlimit="10" stroke-linecap="round" stroke-linejoin="round"/><path d="M25.387 63.048v7.34c0 .806.237 1.453.71 1.942.477.483 1.14.725 1.99.725.848 0 1.511-.242 1.99-.725.477-.49.716-1.136.716-1.942v-7.34h2.071v7.525c0 1.284-.432 2.32-1.297 3.11-.86.79-2.02 1.184-3.48 1.184-1.456 0-2.616-.394-3.481-1.184-.865-.79-1.297-1.826-1.297-3.11v-7.525h2.078zm9.526 11.626v-1.386l6.172-8.427v-.056h-6.002v-1.757h8.516v1.386l-6.14 8.427v.057h6.293v1.756h-8.839zm10.405-3.27h2.014c.064.53.338.96.822 1.288.483.323 1.082.484 1.796.484.698 0 1.268-.156 1.708-.468.446-.311.669-.709.669-1.192 0-.419-.161-.757-.484-1.015-.322-.263-.848-.48-1.579-.653l-1.506-.354c-1.07-.247-1.864-.631-2.385-1.152-.516-.521-.773-1.198-.773-2.03 0-1.026.402-1.86 1.208-2.498.806-.64 1.845-.959 3.118-.959 1.278 0 2.307.317 3.086.95.784.63 1.19 1.456 1.216 2.482h-1.982c-.048-.542-.282-.967-.7-1.273-.42-.311-.965-.467-1.636-.467-.655 0-1.187.148-1.595.443-.403.296-.605.685-.605 1.168 0 .387.156.701.468.943.317.242.832.448 1.547.62l1.337.306c1.176.269 2.03.661 2.562 1.177.532.515.798 1.206.798 2.07 0 1.101-.414 1.977-1.241 2.627-.822.644-1.936.967-3.344.967-1.342 0-2.422-.31-3.238-.927-.811-.623-1.238-1.469-1.281-2.538zM25.387 27.157H23.31V15.532h2.078v5.438h.073l4.64-5.438h2.393l-4.48 5.156 4.827 6.47h-2.53l-3.778-5.076-1.145 1.337v3.738zm8.544 0v-1.386l6.17-8.427v-.056H34.1v-1.756h8.516v1.385l-6.14 8.427v.057h6.293v1.756H33.93zm15.85 0h-2.079v-9.87h-3.529v-1.755h9.137v1.756h-3.53v9.87z" fill="#32CEB3"/></svg>