<svg width="64" height="64" viewBox="0 0 64 64" fill="none" xmlns="http://www.w3.org/2000/svg">
<circle cx="32" cy="32" r="32" fill="#4D5771"/>
<path d="M56.6237 36.3835C56.6237 42.6063 54.3745 45.3368 50.5851 45.9066C38.4721 47.7277 26.4026 46.6595 14.1731 45.9666C10.4454 45.7553 8.23657 43.3305 8.23657 36.3835C8.23657 22.2504 19.0684 11.4299 32.4301 11.4299C45.7919 11.4299 56.6237 22.2504 56.6237 36.3835Z" fill="#1A2133" fill-opacity="0.8"/>
<path d="M42.3617 27.1698L30.9724 31.2335C29.5076 31.7562 28.8541 33.4621 29.5948 34.8296C30.3148 36.1587 32.0302 36.5668 33.2715 35.7043L43.2022 28.8041C43.6118 28.5195 43.7228 27.9618 43.4533 27.542C43.2203 27.1792 42.7678 27.0249 42.3617 27.1698Z" fill="white"/>
<path fill-rule="evenodd" clip-rule="evenodd" d="M11.9954 35.1017C11.9954 36.9733 12.2487 38.7855 12.7227 40.5059C12.8601 41.0049 13.3221 41.3378 13.8396 41.3378C14.6713 41.3378 15.2496 40.5057 15.0358 39.7019C14.6452 38.2343 14.4372 36.6923 14.4372 35.1017C14.4372 25.2636 22.4019 17.2827 32.2338 17.2827C42.0656 17.2827 50.0303 25.2637 50.0303 35.1017C50.0303 36.6924 49.8223 38.2344 49.4318 39.702C49.2179 40.5057 49.7962 41.3378 50.6279 41.3378C51.1454 41.3378 51.6073 41.0049 51.7448 40.506C52.2188 38.7855 52.4721 36.9732 52.4721 35.1017C52.4721 23.9034 43.408 14.8309 32.2338 14.8309C21.0595 14.8309 11.9954 23.9034 11.9954 35.1017Z" fill="#5FAF61"/>
<path fill-rule="evenodd" clip-rule="evenodd" d="M11.9954 35.1017C11.9954 36.9733 12.2487 38.7855 12.7227 40.5059C12.8601 41.0049 13.3221 41.3378 13.8396 41.3378C14.6713 41.3378 15.2496 40.5057 15.0358 39.7019C14.6452 38.2343 14.4372 36.6923 14.4372 35.1017C14.4372 25.2636 22.4019 17.2827 32.2338 17.2827C42.0656 17.2827 50.0303 25.2637 50.0303 35.1017C50.0303 36.6924 49.8223 38.2344 49.4318 39.702C49.2179 40.5057 49.7962 41.3378 50.6279 41.3378C51.1454 41.3378 51.6073 41.0049 51.7448 40.506C52.2188 38.7855 52.4721 36.9732 52.4721 35.1017C52.4721 23.9034 43.408 14.8309 32.2338 14.8309C21.0595 14.8309 11.9954 23.9034 11.9954 35.1017Z" fill="url(#paint0_linear)"/>
<defs>
<linearGradient id="paint0_linear" x1="53.8476" y1="30.0544" x2="8.26733" y2="47.3514" gradientUnits="userSpaceOnUse">
<stop stop-color="#16D691"/>
<stop offset="1" stop-color="#71BCFF"/>
</linearGradient>
</defs>
</svg>
