<svg width="64" height="64" viewBox="0 0 64 64" fill="none" xmlns="http://www.w3.org/2000/svg">
<circle cx="32" cy="32" r="32" fill="#4D5771"/>
<path fill-rule="evenodd" clip-rule="evenodd" d="M56.6192 19.495C57.0105 18.8185 56.7724 17.9553 56.0874 17.567C55.4024 17.1787 54.5298 17.4124 54.1385 18.089L52.6113 20.6972C49.6078 15.3604 44.5058 11.1872 38.0692 9.49156C25.4595 6.16969 12.5126 13.61 9.14585 26.1002C5.77906 38.5905 13.2639 51.4133 25.8736 54.7351C33.8282 56.8307 41.9175 54.6417 47.6474 49.6098C52.1497 45.6562 54.9838 39.1458 54.7063 33.102C54.6705 32.3216 53.9527 31.7752 53.1724 31.8741C52.3876 31.9737 51.8381 32.6884 51.8612 33.4738C52.0112 38.5663 49.5745 44.1396 45.7499 47.4981L45.7499 47.4981C40.705 51.9283 33.5961 53.8464 26.6093 52.0058C15.5314 49.0874 8.9444 37.8173 11.9067 26.8275C14.869 15.8378 26.2555 9.30258 37.3335 12.2209C42.6373 13.6182 46.9111 16.9281 49.6015 21.2084L47.2109 20.0852C46.4978 19.7502 45.6461 20.0497 45.3086 20.7541C44.9712 21.4586 45.2757 22.3012 45.9889 22.6363L51.6407 25.2917C52.349 25.6244 53.196 25.3625 53.5847 24.6905L56.6192 19.495Z" fill="#5FAF61"/>
<path fill-rule="evenodd" clip-rule="evenodd" d="M56.6192 19.495C57.0105 18.8185 56.7724 17.9553 56.0874 17.567C55.4024 17.1787 54.5298 17.4124 54.1385 18.089L52.6113 20.6972C49.6078 15.3604 44.5058 11.1872 38.0692 9.49156C25.4595 6.16969 12.5126 13.61 9.14585 26.1002C5.77906 38.5905 13.2639 51.4133 25.8736 54.7351C33.8282 56.8307 41.9175 54.6417 47.6474 49.6098C52.1497 45.6562 54.9838 39.1458 54.7063 33.102C54.6705 32.3216 53.9527 31.7752 53.1724 31.8741C52.3876 31.9737 51.8381 32.6884 51.8612 33.4738C52.0112 38.5663 49.5745 44.1396 45.7499 47.4981L45.7499 47.4981C40.705 51.9283 33.5961 53.8464 26.6093 52.0058C15.5314 49.0874 8.9444 37.8173 11.9067 26.8275C14.869 15.8378 26.2555 9.30258 37.3335 12.2209C42.6373 13.6182 46.9111 16.9281 49.6015 21.2084L47.2109 20.0852C46.4978 19.7502 45.6461 20.0497 45.3086 20.7541C44.9712 21.4586 45.2757 22.3012 45.9889 22.6363L51.6407 25.2917C52.349 25.6244 53.196 25.3625 53.5847 24.6905L56.6192 19.495Z" fill="url(#paint0_linear)"/>
<path d="M18.7136 30.4112C18.7136 29.5659 19.0194 28.868 19.6311 28.3175C20.2471 27.7626 21.0248 27.4852 21.9641 27.4852C22.8641 27.4852 23.6134 27.7366 24.2119 28.2394C24.8104 28.7423 25.1097 29.3665 25.1097 30.1121C25.1097 30.6367 24.9633 31.1352 24.6706 31.6077C24.3779 32.0758 23.8668 32.6806 23.1371 33.4218L20.7714 35.7822L20.7714 35.8147L25.2604 35.8147L25.2604 37.0437L18.7923 37.0437L18.7923 36.0553L22.2066 32.6025C22.7833 32.0043 23.1699 31.5448 23.3665 31.224C23.5631 30.8989 23.6614 30.5521 23.6614 30.1837C23.6614 29.7675 23.4932 29.4142 23.1568 29.1238C22.8204 28.8333 22.4075 28.6881 21.9182 28.6881C21.4027 28.6881 20.9702 28.8528 20.6207 29.1823C20.2755 29.5074 20.1029 29.9149 20.1029 30.4047L20.1029 30.4242L18.7136 30.4242L18.7136 30.4112Z" fill="#5FAF61"/>
<path d="M18.7136 30.4112C18.7136 29.5659 19.0194 28.868 19.6311 28.3175C20.2471 27.7626 21.0248 27.4852 21.9641 27.4852C22.8641 27.4852 23.6134 27.7366 24.2119 28.2394C24.8104 28.7423 25.1097 29.3665 25.1097 30.1121C25.1097 30.6367 24.9633 31.1352 24.6706 31.6077C24.3779 32.0758 23.8668 32.6806 23.1371 33.4218L20.7714 35.7822L20.7714 35.8147L25.2604 35.8147L25.2604 37.0437L18.7923 37.0437L18.7923 36.0553L22.2066 32.6025C22.7833 32.0043 23.1699 31.5448 23.3665 31.224C23.5631 30.8989 23.6614 30.5521 23.6614 30.1837C23.6614 29.7675 23.4932 29.4142 23.1568 29.1238C22.8204 28.8333 22.4075 28.6881 21.9182 28.6881C21.4027 28.6881 20.9702 28.8528 20.6207 29.1823C20.2755 29.5074 20.1029 29.9149 20.1029 30.4047L20.1029 30.4242L18.7136 30.4242L18.7136 30.4112Z" fill="white"/>
<path d="M30.7849 37.0437L30.7849 35.1905L26.0534 35.1905L26.0534 33.916C26.8136 32.4942 28.1526 30.4091 30.0706 27.6607L32.1939 27.6607L32.1939 33.968L33.4915 33.968L33.4915 35.1905L32.1939 35.1905L32.1939 37.0437L30.7849 37.0437ZM27.423 33.955L27.423 33.9875L30.798 33.9875L30.798 28.7856L30.7718 28.7856C29.2077 31.0268 28.0915 32.7499 27.423 33.955Z" fill="#5FAF61"/>
<path d="M30.7849 37.0437L30.7849 35.1905L26.0534 35.1905L26.0534 33.916C26.8136 32.4942 28.1526 30.4091 30.0706 27.6607L32.1939 27.6607L32.1939 33.968L33.4915 33.968L33.4915 35.1905L32.1939 35.1905L32.1939 37.0437L30.7849 37.0437ZM27.423 33.955L27.423 33.9875L30.798 33.9875L30.798 28.7856L30.7718 28.7856C29.2077 31.0268 28.0915 32.7499 27.423 33.955Z" fill="white"/>
<path d="M35.1298 39.0984L33.8912 39.0984L36.7157 27.6542L37.9871 27.6542L35.1298 39.0984Z" fill="#5FAF61"/>
<path d="M35.1298 39.0984L33.8912 39.0984L36.7157 27.6542L37.9871 27.6542L35.1298 39.0984Z" fill="white"/>
<path d="M39.2519 37.0437L43.4526 28.9222L43.4526 28.8897L38.4655 28.8897L38.4655 27.6607L44.9009 27.6607L44.9009 28.9222L40.7919 37.0437L39.2519 37.0437Z" fill="#5FAF61"/>
<path d="M39.2519 37.0437L43.4526 28.9222L43.4526 28.8897L38.4655 28.8897L38.4655 27.6607L44.9009 27.6607L44.9009 28.9222L40.7919 37.0437L39.2519 37.0437Z" fill="white"/>
<defs>
<linearGradient id="paint0_linear" x1="64.2174" y1="-9.84704" x2="18.9861" y2="-6.29771" gradientUnits="userSpaceOnUse">
<stop stop-color="#16D691"/>
<stop offset="1" stop-color="#71BCFF"/>
</linearGradient>
</defs>
</svg>
