<svg width="64" height="64" viewBox="0 0 64 64" fill="none" xmlns="http://www.w3.org/2000/svg">
<rect x="10.6666" y="35.1096" width="42.6667" height="28.8905" rx="4.43987" fill="#4D5771"/>
<path d="M49.846 47.0998C37.3563 46.2256 31.4577 57.1982 10.9794 48.5318V59.3649C10.9794 61.8169 12.9672 63.8047 15.4192 63.8047H48.8935C51.3455 63.8047 53.3333 61.817 53.3333 59.3649V51.1572C53.3333 49.0931 51.9051 47.2439 49.846 47.0998Z" fill="white" fill-opacity="0.1"/>
<path d="M46.2579 58.9955L45.2646 61.2131H44.6167L44.1281 59.4434C44.0982 59.3347 44.0727 59.2948 43.9826 59.2484C43.835 59.1736 43.592 59.1033 43.3778 59.0599L43.3922 58.9955H44.435C44.5677 58.9955 44.6876 59.0783 44.7179 59.2215L44.9758 60.5048L45.6137 58.9955H46.2579ZM48.7959 60.4894C48.7985 59.9043 47.9316 59.8719 47.9374 59.61C47.9396 59.5307 48.02 59.4459 48.1975 59.4245C48.2854 59.414 48.5273 59.4055 48.8017 59.5237L48.9094 59.0534C48.7618 59.0035 48.5721 58.9556 48.336 58.9556C47.7302 58.9556 47.3039 59.2569 47.3007 59.6888C47.297 60.0081 47.6049 60.1861 47.8373 60.2924C48.0765 60.4011 48.1564 60.4709 48.1554 60.5677C48.1538 60.7163 47.9646 60.7822 47.7888 60.7847C47.4803 60.7891 47.3017 60.7068 47.1595 60.6445L47.0481 61.1308C47.1914 61.1922 47.4557 61.2455 47.7296 61.2485C48.3728 61.248 48.7943 60.9503 48.7959 60.4894ZM50.396 61.2131H50.963L50.468 58.9955H49.9452C49.8275 58.9955 49.7284 59.0594 49.6841 59.1581L48.7644 61.2131H49.4081L49.536 60.8819H50.3225L50.396 61.2131ZM49.7118 60.4275L50.0348 59.5946L50.2202 60.4275H49.7118ZM47.1334 58.9955L46.6266 61.2131H46.0138L46.5206 58.9955H47.1334Z" fill="white"/>
<rect x="14.4596" y="46.574" width="5.68889" height="4.58579" rx="1.47996" fill="white"/>
<path d="M17.0667 46.574V47.439C17.0667 47.8477 16.7354 48.179 16.3267 48.179H13.9852" stroke="#4D5771" stroke-width="0.739978" stroke-linejoin="round"/>
<path d="M17.7778 51.389L17.7778 50.524C17.7778 50.1153 18.1091 49.784 18.5178 49.784L20.8593 49.784" stroke="#4D5771" stroke-width="0.739978" stroke-linejoin="round"/>
<rect x="10.6666" width="42.6667" height="28.8905" rx="4.43987" fill="#4C9EE7"/>
<path d="M49.5332 11.9466C37.0435 11.0724 31.145 22.0451 10.6666 13.3786V24.2117C10.6666 26.6638 12.6544 28.6516 15.1065 28.6516H48.5807C51.0328 28.6516 53.0206 26.6638 53.0206 24.2117V16.0041C53.0206 13.9399 51.5923 12.0908 49.5332 11.9466Z" fill="white" fill-opacity="0.16"/>
<rect x="13.0374" y="11.694" width="5.68889" height="4.58579" rx="1.47996" fill="white"/>
<path d="M15.6444 11.4646V12.3296C15.6444 12.7383 15.3131 13.0696 14.9044 13.0696H12.5629" stroke="#4C9EE7" stroke-width="0.739978" stroke-linejoin="round"/>
<path d="M16.3556 16.5089L16.3556 15.6439C16.3556 15.2352 16.6869 14.9039 17.0956 14.9039L19.4371 14.9039" stroke="#4C9EE7" stroke-width="0.739978" stroke-linejoin="round"/>
<path d="M46.2579 23.8861L45.2646 26.1037H44.6167L44.1281 24.334C44.0982 24.2253 44.0727 24.1854 43.9826 24.139C43.835 24.0642 43.592 23.9938 43.3778 23.9504L43.3922 23.8861H44.435C44.5677 23.8861 44.6876 23.9689 44.7179 24.112L44.9758 25.3954L45.6137 23.8861H46.2579ZM48.7959 25.3799C48.7985 24.7949 47.9316 24.7625 47.9374 24.5006C47.9396 24.4213 48.02 24.3365 48.1975 24.315C48.2854 24.3046 48.5273 24.2961 48.8017 24.4143L48.9094 23.944C48.7618 23.8941 48.5721 23.8462 48.336 23.8462C47.7302 23.8462 47.3039 24.1475 47.3007 24.5794C47.297 24.8986 47.6049 25.0767 47.8373 25.1829C48.0765 25.2917 48.1564 25.3615 48.1554 25.4583C48.1538 25.6069 47.9646 25.6727 47.7888 25.6752C47.4803 25.6797 47.3017 25.5974 47.1595 25.5351L47.0481 26.0214C47.1914 26.0827 47.4557 26.1361 47.7296 26.1391C48.3728 26.1386 48.7943 25.8408 48.7959 25.3799ZM50.396 26.1037H50.963L50.468 23.8861H49.9452C49.8275 23.8861 49.7284 23.9499 49.6841 24.0487L48.7644 26.1037H49.4081L49.536 25.7725H50.3225L50.396 26.1037ZM49.7118 25.3181L50.0348 24.4851L50.2202 25.3181H49.7118ZM47.1334 23.8861L46.6266 26.1037H46.0138L46.5206 23.8861H47.1334Z" fill="white"/>
<path d="M39.5511 30.984L39.5511 4.49199C39.5511 4.08331 39.2198 3.75201 38.8111 3.75201L25.8354 3.75201C25.4267 3.75201 25.0954 4.08331 25.0954 4.49199L25.0954 30.984C25.0954 31.3927 24.7641 31.724 24.3554 31.724L22.857 31.724C22.1894 31.724 21.8632 32.5383 22.3461 32.9992L31.8123 42.0351C32.0982 42.3081 32.5482 42.3081 32.8342 42.0351L42.3004 32.9992C42.7833 32.5383 42.457 31.724 41.7894 31.724L40.291 31.724C39.8824 31.724 39.5511 31.3927 39.5511 30.984Z" fill="url(#paint0_linear)"/>
<defs>
<linearGradient id="paint0_linear" x1="21.0101" y1="46.2679" x2="21.0101" y2="11.9694" gradientUnits="userSpaceOnUse">
<stop stop-color="#18B297"/>
<stop offset="1" stop-color="#76FFE6" stop-opacity="0"/>
</linearGradient>
</defs>
</svg>
