<svg width="64" height="74" viewBox="0 0 64 74" fill="none" xmlns="http://www.w3.org/2000/svg">
<rect width="64" height="73.8462" rx="8.20513" fill="#4D5771"/>
<path d="M27.4287 36.4859C29.0517 37.782 29.9616 38.5087 31.5846 39.8048L35.7404 36.4859" stroke="white" stroke-width="1.02564" stroke-miterlimit="10" stroke-linecap="round" stroke-linejoin="round"/>
<path d="M8.31177 38.037C10.3901 38.0485 21.3619 38.0549 23.4403 38.0664" stroke="white" stroke-opacity="0.4" stroke-width="1.02564" stroke-miterlimit="10" stroke-linecap="round" stroke-linejoin="round"/>
<path d="M39.8961 38.037C41.9745 38.0485 52.9463 38.0549 55.0247 38.0664" stroke="white" stroke-opacity="0.4" stroke-width="1.02564" stroke-miterlimit="10" stroke-linecap="round" stroke-linejoin="round"/>
<path d="M20.8309 51.732V57.7542C20.8309 58.4153 21.0248 58.9463 21.4126 59.3474C21.8049 59.744 22.3491 59.9423 23.0454 59.9423C23.7418 59.9423 24.286 59.744 24.6783 59.3474C25.0705 58.9463 25.2666 58.4153 25.2666 57.7542V51.732H26.9655V57.9063C26.9655 58.9596 26.6107 59.8101 25.9012 60.4579C25.1961 61.1058 24.2442 61.4297 23.0454 61.4297C21.8511 61.4297 20.8992 61.1058 20.1897 60.4579C19.4801 59.8101 19.1254 58.9596 19.1254 57.9063V51.732H20.8309Z" fill="#32CEB3"/>
<path d="M28.6471 61.2711V60.134L33.7108 53.2194V53.1731H28.7859V51.732H35.7733V52.869L30.736 59.7837V59.8299H35.8989V61.2711H28.6471Z" fill="#32CEB3"/>
<path d="M37.1838 58.5872H38.8365C38.8893 59.0235 39.1141 59.376 39.5107 59.6448C39.9074 59.9093 40.3988 60.0415 40.9849 60.0415C41.5578 60.0415 42.025 59.9137 42.3863 59.6581C42.7521 59.4025 42.935 59.0763 42.935 58.6797C42.935 58.336 42.8028 58.0583 42.5384 57.8468C42.274 57.6308 41.8421 57.4523 41.2427 57.3113L40.0065 57.0204C39.1295 56.8177 38.4773 56.5026 38.0498 56.0751C37.6267 55.6477 37.4152 55.0924 37.4152 54.4093C37.4152 53.5675 37.7457 52.8844 38.4068 52.36C39.0678 51.8356 39.9206 51.5733 40.9651 51.5733C42.0139 51.5733 42.8579 51.8333 43.4969 52.3534C44.1403 52.869 44.4731 53.5477 44.4951 54.3894H42.8689C42.8292 53.9443 42.6375 53.5962 42.2938 53.345C41.95 53.0894 41.5027 52.9616 40.9518 52.9616C40.4142 52.9616 39.9779 53.0827 39.6429 53.3251C39.3124 53.5675 39.1471 53.887 39.1471 54.2837C39.1471 54.601 39.275 54.8588 39.5306 55.0571C39.7906 55.2554 40.2137 55.4251 40.7998 55.5661L41.8971 55.8173C42.8623 56.0377 43.563 56.3594 43.9993 56.7825C44.4356 57.2055 44.6538 57.7719 44.6538 58.4814C44.6538 59.3848 44.3144 60.1032 43.6357 60.6364C42.9615 61.1653 42.047 61.4297 40.8923 61.4297C39.7906 61.4297 38.9048 61.1763 38.2349 60.6695C37.5694 60.1583 37.2191 59.4642 37.1838 58.5872Z" fill="#32CEB3"/>
<path d="M20.8309 22.2829H19.1254V12.7438H20.8309V17.206H20.8904L24.6981 12.7438H26.6614L22.9859 16.9746L26.9457 22.2829H24.87L21.7696 18.1182L20.8309 19.2156V22.2829Z" fill="#32CEB3"/>
<path d="M27.8406 22.2829V21.1459L32.9043 14.2312V14.1849H27.9794V12.7438H34.9668V13.8809L29.9295 20.7955V20.8418H35.0924V22.2829H27.8406Z" fill="#32CEB3"/>
<path d="M40.8461 22.2829H39.1405V14.1849H36.2451V12.7438H43.7415V14.1849H40.8461V22.2829Z" fill="#32CEB3"/>
</svg>
