<svg width="34" height="34" fill="none" xmlns="http://www.w3.org/2000/svg"><path d="M20.414 29.75h-.452c-.787-.104-1.449-.506-2.135-.872-.822-.436-1.704-.445-2.568-.122-.46.171-.888.433-1.335.64-1.232.572-2.416.39-3.483-.37-.69-.495-1.322-1.093-1.906-1.715-1.4-1.49-2.313-3.27-2.775-5.265-.209-.9-.335-1.826-.416-2.747-.065-.737-.009-1.485-.002-2.229.009-.947.125-1.878.422-2.78.424-1.29 1.3-2.195 2.37-2.963 1.493-1.072 3.13-1.449 4.906-1.046.775.177 1.522.496 2.267.79.447.176.87.21 1.31.018.129-.056.266-.098.397-.152 1.12-.474 2.266-.842 3.498-.868.855-.018 1.697.044 2.52.291.84.252 1.458.843 2.084 1.414.261.239.486.518.74.792-.176.104-.309.175-.433.26-1.896 1.294-2.575 3.156-2.403 5.386a5.382 5.382 0 001.247 3.071c.57.686 1.253 1.212 2.12 1.46v.05c-.026.052-.056.102-.076.156-.753 2.004-1.87 3.77-3.447 5.211-.724.66-1.44 1.366-2.45 1.59z" fill="#fff"/><path d="M21.11 3.719c.149 4.216-3.133 6.568-6.029 6.556.084-.5.14-.998.254-1.483.554-2.332 1.85-4.022 4.162-4.778.513-.168 1.069-.2 1.614-.295z" fill="#fff"/></svg>