<svg width="116" height="38" fill="none" xmlns="http://www.w3.org/2000/svg"><g clip-path="url(#clip0)" fill-rule="evenodd" clip-rule="evenodd" fill="#fff" fill-opacity=".6"><path d="M7.88 8.094h4.238l6.854-6.767 6.787 6.767h4.238v4.225l.003.003 1.553 1.549 5.223 5.272.008.009-6.787 6.767v4.225h-4.238l-6.787 6.767-5.298-5.216-1.556-1.551H7.88v-4.225l-6.787-6.767 5.23-5.281 1.557-1.552V8.094zm4.668-1.551H6.324v6.205L0 19.152l6.324 6.338v6.205h6.224L18.972 38l6.356-6.305h6.225V25.49l6.423-6.338-6.423-6.404V6.543h-6.225L18.972.238l-6.424 6.305zm10.973 1.551l-4.55-4.555-15.66 15.613 4.569 4.49c2.4-2.79 5.766-4.716 9.47-5.018l.794-.1h.828l.563-.098.628-.1.663-.065.53-.297.562-.264.464-.264.563-.363c2.626-2.185 3.046-6.492.53-8.979h.046zM34.56 19.145l-4.562-4.548c-2.4 2.789-5.733 4.693-9.436 5.017l-.762.1h-.827l-1.259.197-.662.066-.53.297-.562.264-.464.264-.53.364c-1.38 1.11-2.273 2.981-2.218 4.753-.091 1.678.64 3.044 1.67 4.258l2.142 2.127.163.147c.83.752 1.638 1.484 2.25 2.248l6.744-6.724 4.281-4.334 4.567-4.487.002-.002-.007-.007zm36.598 9.292l-2.55-5.017-2.582 5.017h5.132zm-23.375-1.254v3.202h7.218l.298-.1.364-.098.166-.1.297-.164.166-.297.199-.265.1-.264v-.66l-.1-.264-.199-.264-.166-.297-.297-.165-.166-.1-.364-.098-.298-.066h-7.218zm0-5.05v3.102h7.516l.364-.066.166-.099.297-.264.166-.198.199-.264.1-.297v-.627l-.1-.264-.199-.297-.166-.264-.297-.165-.166-.198-.364-.1h-7.516zm29.633-1.915h3.211l8.807 8.88v-8.88h3.212V32.2h-3.212l-8.807-8.78v8.78h-3.211V20.218zm21.918 6.04l8.145-6.04h-3.477l-6.986 5.017v-5.017h-3.112V32.2h3.112v-5.017l6.986 5.017h3.477l-8.145-5.941zm1.457-19.21h3.211v5.017l6.986-5.017h3.378l-8.079 5.941 8.079 6.04h-3.378l-6.986-5.017v5.018h-3.211V7.048zm-6.887 6.964v5.018h-3.212v-5.018l-5.96-6.964h3.113l4.404 5.017 4.502-5.017h3.113l-5.96 6.964zM77.416 7.048h3.211v10.067h8.807v1.915H77.416V7.048zm-8.807 3.102l2.55 5.05h-5.133l2.583-5.05zm4.403 8.88h3.212l-6.06-11.982H67.02L60.994 19.03h3.211l.894-1.915h6.986l.927 1.915zM44.572 7.048h3.211v5.017h8.807V7.048h3.212V19.03H56.59v-5.018h-8.807v5.018h-3.212V7.048zm0 13.17h12.184l.563.1.53.164.562.297.464.363.364.462.265.43.198.66c.458 1.777-1.197 3.493-2.946 3.565 1.694-.143 2.963 1.419 3.046 3.003l-.1.562-.198.56-.265.529-.364.462-.464.363-.563.264-.53.198H44.572V20.218zM64.204 32.2h-3.211l6.025-11.982h3.146l6.06 11.982h-3.212l-.927-1.815H65.1l-.894 1.815z"/></g><defs><clipPath id="clip0"><path fill="#fff" transform="translate(0 .238)" d="M0 0h115.762v37.762H0z"/></clipPath></defs></svg>