<svg width="116" height="38" fill="none" xmlns="http://www.w3.org/2000/svg"><g clip-path="url(#clip0)" fill-rule="evenodd" clip-rule="evenodd" fill="#fff" fill-opacity=".6"><path d="M33.61 18.573l-4.46-4.47a13.834 13.834 0 01-10.717 5.088c-1.818 0-3.47.833-4.578 2.116a6.16 6.16 0 00-1.463 3.97 6.22 6.22 0 001.463 3.972l.002.003.093.092.028.03.019.018 4.436 4.47 4.711-4.746 6.006-6.073 4.192-4.2.268-.27zm-30.156.197l4.241 4.272a14.26 14.26 0 016.16-4.304c1.44-.5 2.975-.786 4.578-.786 3.329 0 6.043-2.733 6.043-6.087a6.03 6.03 0 00-1.605-4.09l-4.438-4.494-4.436 4.495-.142.119L3.257 18.572l.197.198zm27.23-12.54v6.135l6.16 6.207-6.16 6.206v6.134h-6.09l-6.16 6.23-6.16-6.23H6.16v-6.134L0 18.572l6.16-6.207V6.23h6.113L18.433 0l6.16 6.23h6.09zM29.15 29.393V25.23l1.534-1.547 5.074-5.112-5.075-5.113-.118-.12-1.415-1.425V7.776h-4.107l-6.559-6.631-.05-.052-.005.005-4.574 4.609-2.028 2.066-.002.003h-4.13v4.137l-1.514 1.526-.02.02-5.076 5.113 6.609 6.658v4.162h4.13l2.03 2.044 4.578 4.612.003.002.949-.96 5.372-5.414.287-.284h4.107zm30.036-4.653H52.13v-3.092h7.057c.827 0 1.535.689 1.535 1.545s-.708 1.546-1.535 1.546zm0 4.945H52.13v-3.091h7.057c.827 0 1.535.689 1.535 1.546 0 .832-.708 1.545-1.535 1.545zm4.58-6.967c0-1.592-1.298-2.925-2.905-2.925h-11.8v11.724h11.8a2.913 2.913 0 002.905-2.925 2.912 2.912 0 00-2.905-2.925c1.607-.001 2.905-1.332 2.905-2.949zm6.137 5.113l2.454-4.946 2.457 4.946h-4.911zm.92-8.039l-5.83 11.723h3.068l.92-1.83h6.75l.92 1.83h3.069l-5.83-11.723h-3.068zm21.761 8.656l-2.289-2.33-6.278-6.326h-3.07v11.723h3.07v-8.631l6.278 6.325 2.29 2.306h3.068V19.792h-3.069v8.656zm14.091-8.656l-6.727 4.946v-4.946h-3.067v11.723h3.067v-4.923l6.727 4.923h3.353l-7.907-5.85 7.907-5.873h-3.353zM83.074 15.2l-2.29-2.33-6.277-6.326h-3.069v11.723h3.069V9.634l6.277 6.326 2.29 2.307h3.069V6.544h-3.069V15.2zM56.806 8.407h-5.175v9.867h-3.069V8.416h-5.229V6.502l13.473.05v1.855zm37.902 5.956h5.28v1.96h-9.313v-7.82h9.313v1.956h3.104V8.504a1.953 1.953 0 00-1.94-1.956h-11.64c-1.067 0-1.941.88-1.941 1.956v7.818c0 1.076.874 1.955 1.94 1.955h11.641c1.068 0 1.94-.879 1.94-1.955v-3.908h-8.383l-.001 1.949zm-24.822 2.06h-8.568v-3.107h8.385l-.001-1.95h-8.384V8.41h8.568V6.554H58.249v11.723h11.637v-1.854zm46.282 0H107.6v-3.107h8.384v-1.95H107.6V8.41h8.568V6.554h-11.636v11.723h11.636v-1.854z"/></g><defs><clipPath id="clip0"><path fill="#fff" d="M0 0h115.143v37.143H0z"/></clipPath></defs></svg>