<svg width="24" height="24" fill="none" xmlns="http://www.w3.org/2000/svg"><circle cx="12" cy="12" r="12" fill="#06068C"/><path fill-rule="evenodd" clip-rule="evenodd" d="M3.784 3.254l19.901 11.49a11.908 11.908 0 01-.798 2.31L2.182 5.1a12.065 12.065 0 011.602-1.846zm16.319 17.598L.28 9.408c.178-.81.438-1.588.77-2.326l20.682 11.94a12.067 12.067 0 01-1.63 1.83z" fill="#fff"/><path fill-rule="evenodd" clip-rule="evenodd" d="M23.803 9.824L4.216 21.133a12.073 12.073 0 01-1.706-1.787l20.6-11.892c.309.754.543 1.548.694 2.37zM.417 15.15L20.516 3.546c.57.575 1.084 1.207 1.53 1.888L1.289 17.417a11.92 11.92 0 01-.872-2.268z" fill="#fff"/><path fill-rule="evenodd" clip-rule="evenodd" d="M15.282.454A12.008 12.008 0 0012 0c-.935 0-1.845.107-2.718.31v9.009H.301C.104 10.181 0 11.079 0 12c0 1.151.162 2.265.465 3.319h8.817v8.372c.873.202 1.783.309 2.718.309a12 12 0 003.282-.454v-8.227h8.253a12.078 12.078 0 00.165-6h-8.418V.454z" fill="#9E0B0F"/><path fill-rule="evenodd" clip-rule="evenodd" d="M2.17 5.116l20.708 11.956a11.982 11.982 0 01-1.157 1.966L1.043 7.1c.313-.7.691-1.363 1.127-1.984z" fill="#9E0B0F"/><path fill-rule="evenodd" clip-rule="evenodd" d="M23.109 7.454L2.51 19.346c-.466-.6-.875-1.245-1.221-1.928L22.046 5.434c.415.634.772 1.31 1.063 2.02z" fill="#9E0B0F"/><path fill-rule="evenodd" clip-rule="evenodd" d="M.865 7.52h6.617V.88c.58-.236 1.18-.427 1.8-.57v9.01H.301c.141-.62.33-1.222.564-1.8zm6.617 15.6v-6H1.144c-.273-.577-.5-1.179-.679-1.8h8.817v8.371a11.907 11.907 0 01-1.8-.57zm15.375-6h-5.775v5.754c-.576.27-1.178.495-1.8.672v-8.227h8.253a11.916 11.916 0 01-.678 1.8zM17.082 1.125V7.52h6.053c.234.58.423 1.18.564 1.8h-8.417V.455a11.83 11.83 0 011.8.671z" fill="#fff"/></svg>