<svg width="24" height="24" fill="none" xmlns="http://www.w3.org/2000/svg"><circle cx="12" cy="12" r="12" fill="#00AFCA"/><path d="M12.052 13.651c2.012 0 3.642-1.652 3.642-3.69 0-2.039-1.63-3.691-3.642-3.691S8.41 7.922 8.41 9.96c0 2.039 1.63 3.691 3.642 3.691zm0-7.885c.217-.002.298-.14.298-.304 0-.22-.298-1.262-.298-1.262s-.298 1.043-.298 1.262c0 .165.082.304.298.304zM16.19 9.96c0 .22.139.302.301.302.217 0 1.245-.302 1.245-.302s-1.028-.302-1.245-.302c-.162 0-.3.083-.3.302zm-4.138 4.194c-.216.003-.298.14-.298.305 0 .22.298 1.264.298 1.264s.298-1.045.298-1.264c0-.165-.081-.305-.298-.305zM7.913 9.96c-.003-.22-.138-.302-.3-.302-.217 0-1.248.302-1.248.302s1.031.302 1.248.302c.162 0 .3-.082.3-.302zm5.723-3.874c.2.08.328-.014.39-.165.083-.203.202-1.284.202-1.284s-.67.85-.753 1.053c-.061.151-.04.312.16.396zm2.24 5.48c-.08.203.013.332.162.395.2.083 1.267.205 1.267.205s-.84-.679-1.039-.763c-.149-.063-.307-.04-.39.163zm-5.406 2.269c-.202-.081-.329.014-.391.165-.083.203-.202 1.284-.202 1.284s.67-.85.752-1.053c.062-.151.04-.312-.16-.396zm-2.242-5.48c.08-.203-.014-.332-.162-.395-.2-.084-1.267-.205-1.267-.205s.839.679 1.039.763c.148.063.307.04.39-.163zm6.75-1.36c.155.153.308.114.423 0 .153-.156.672-1.108.672-1.108s-.94.526-1.093.68c-.115.115-.155.272-.002.428zm0 5.931c-.151.157-.113.312 0 .429.153.155 1.093.68 1.093.68s-.519-.952-.672-1.107c-.112-.115-.268-.157-.421-.002zm-5.853 0c-.155-.153-.308-.115-.423 0-.153.155-.672 1.108-.672 1.108s.94-.526 1.093-.681c.115-.115.155-.272.002-.427zm-.001-5.931c.151-.157.113-.312 0-.429-.155-.155-1.092-.68-1.092-.68s.519.952.672 1.107c.112.115.267.157.42.002zm6.752 1.36c.085.202.241.226.391.165.2-.084 1.039-.763 1.039-.763s-1.067.121-1.267.205c-.15.061-.246.19-.163.393zm-2.241 5.48c-.199.087-.222.245-.162.397.083.203.753 1.053.753 1.053s-.12-1.081-.203-1.284c-.06-.152-.188-.25-.388-.166zm-5.407-2.269c-.086-.202-.242-.226-.392-.165-.2.084-1.04.763-1.04.763s1.068-.122 1.268-.206c.15-.06.247-.187.164-.392zm2.241-5.48c.199-.087.222-.245.162-.397-.086-.203-.758-1.05-.758-1.05s.12 1.08.202 1.284c.064.149.192.246.394.163zm2.391-.24c.212.04.318-.079.35-.24.042-.215-.049-1.299-.049-1.299s-.493.966-.535 1.181c-.032.163.02.316.233.358zm3.251 4.932c-.04.216.078.324.237.356.212.043 1.282-.05 1.282-.05s-.954-.5-1.166-.542c-.16-.033-.31.022-.353.236zm-4.867 3.297c-.213-.04-.319.078-.351.24-.042.214.049 1.298.049 1.298s.493-.966.535-1.18c.032-.163-.021-.317-.233-.358zM7.992 9.142c.04-.216-.077-.323-.236-.355-.213-.043-1.282.05-1.282.05s.954.499 1.166.542c.159.033.31-.022.352-.237zm6.358-2.669c.182.12.325.052.415-.085.12-.183.446-1.22.446-1.22s-.82.702-.941.884c-.09.137-.1.3.08.421zm1.142 5.817c-.118.185-.05.33.084.42.18.122 1.203.452 1.203.452s-.692-.831-.872-.952c-.133-.093-.296-.102-.415.08zm-5.74 1.158c-.182-.12-.325-.052-.414.085-.121.183-.446 1.22-.446 1.22s.82-.702.94-.885c.09-.137.1-.299-.08-.42zM8.61 7.63c.118-.184.051-.329-.084-.42-.18-.122-1.203-.451-1.203-.451s.692.83.872.952c.135.092.295.102.415-.08zm6.883 0c.123.181.28.173.415.082.18-.122.872-.953.872-.953s-1.022.329-1.203.451c-.134.092-.204.238-.084.42zm-1.142 5.817c-.179.125-.17.284-.08.421.12.182.94.884.94.884s-.325-1.037-.445-1.22c-.09-.136-.237-.207-.415-.085zM8.61 12.29c-.122-.18-.28-.173-.415-.082-.18.123-.872.954-.872.954s1.023-.33 1.203-.452c.135-.091.204-.237.084-.42zm1.142-5.817c.178-.124.17-.284.08-.42-.12-.183-.94-.885-.94-.885s.324 1.037.446 1.22c.09.137.234.207.414.085zm6.358 2.669c.046.215.194.268.353.237.213-.043 1.166-.543 1.166-.543s-1.07-.092-1.282-.05c-.159.033-.279.14-.236.356zm-3.251 4.933c-.212.045-.265.196-.233.357.042.215.535 1.181.535 1.181s.091-1.084.049-1.299c-.034-.162-.139-.283-.351-.24zm-4.867-3.297c-.044-.214-.193-.268-.352-.236-.212.042-1.166.542-1.166.542s1.07.092 1.282.05c.16-.032.277-.14.236-.356zm3.252-4.932c.212-.046.265-.196.233-.358-.042-.215-.535-1.18-.535-1.18s-.091 1.083-.049 1.298c.032.163.139.284.35.24zm.158 12.109c-.097.004-.193.02-.285.049-.127.017-.25.062-.376.083l-.05.008-.085.008a.324.324 0 01.009.071.227.227 0 01-.01.069.166.166 0 01-.035.055.206.206 0 01-.06.049.182.182 0 01-.07.017.185.185 0 01-.073-.01.205.205 0 01-.068-.041.56.56 0 01-.075.013.317.317 0 01-.072 0 .632.632 0 01-.076-.026.395.395 0 01-.07-.037c-.092.055-.195.11-.25.203a.31.31 0 00-.046.147.406.406 0 00.039.19c.01.018.018-.063.049-.073a.482.482 0 01.18-.092c.054-.028.048 0 .025.046-.005.022-.036.11.006.066.183-.082.386-.099.583-.115.287-.03.575-.036.863-.04.27.004.542.007.812.018.13.003.259.033.386.01.031-.008.079-.01.097-.028a.476.476 0 00-.19-.043h-.516c-.143-.014-.293-.016-.429-.071-.035-.015-.069-.05-.103-.012a.602.602 0 01-.44-.014c.064-.089.14-.164.209-.248a2.626 2.626 0 01-.166-.035c.098-.069.19-.146.285-.22l.002.003z" fill="#FEC50C"/><path d="M15.617 18.902c-.196.12-.346-.092-.51-.155-.116.064-.127.28-.237.384-.13.15-.29-.043-.279-.191-.156.133-.236.438-.487.396-.12-.099-.21-.307-.3-.07-.075.115-.275.28-.38.105-.032-.154-.108-.336-.19-.09-.058.173-.24.3-.417.225-.097-.08.077-.377-.046-.356-.184.124-.29.43-.547.405-.1-.113.06-.305-.05-.432-.128.169-.27.415-.495.432-.108-.088.004-.343-.065-.38-.229.139-.471.387-.758.31.112-.436.582-.589.975-.623.679-.084 1.393.071 2.046-.177.106-.065.362-.157.271-.308-.08-.12.21-.073.238-.212-.018-.177.133-.152.28-.165.66-.03 1.312.11 1.97.136.05.325-.306.552-.592.453-.137.022-.342-.32-.302-.071-.028.13-.008.302-.126.39l.002-.006zm-5.614-.665c.153.142.26-.026.403-.088.479-.165.897-.459 1.309-.75.25-.209.466-.48.801-.548.654-.2 1.35-.177 2.003-.361.5-.694 1.349-.941 2.057-1.34.163-.05.222-.183.27-.329.272-.44.642-.81 1.08-1.08.206-.116.453-.182.687-.13-.016.283-.177.534-.37.73.159-.004.295-.105.454-.1.055.29-.254.443-.419.623.092.022.443.048.252.142-.244.17-.522.289-.748.488.208.038.232.082.02.159-.114.078-.334.105-.355.258.157.098-.072.195-.162.226-.169.04-.347.115-.122.245-.085.13-.267.158-.416.145.046.147.109.312-.078.377-.423.324-.92.56-1.45.614.663.051 1.348-.074 1.915-.44.075-.09.468-.185.248-.26-.104-.045-.325-.093-.34-.173.307-.192.694-.124 1.025-.238.009-.11-.252-.078-.349-.103-.23-.019-.216-.079.006-.101.282-.076.601-.09.84-.275-.194-.09-.437-.01-.643-.085.35-.155.761-.17 1.075-.403.143-.161-.183-.11-.278-.107-.194.034-.283-.06-.063-.141.375-.28.85-.463 1.114-.87.063-.09.148-.365-.054-.266-.262.088-.492.387-.791.294.588-.462 1.148-.987 1.55-1.627.02-.184-.265-.205-.34-.06-.378.37-.72.805-1.203 1.037.463-.454.846-.99 1.181-1.547.071-.165.264-.364.162-.549-.169-.141-.379-.012-.467.157-.293.39-.517.843-.894 1.16.33-.64.673-1.321.681-2.059 0-.152-.031-.376-.235-.347-.162.029-.122.274-.189.398-.147.504-.217 1.05-.516 1.49.068-.409.186-.836.095-1.25-.042-.184-.337-.105-.298.078-.353 1.807-1.549 3.387-3.113 4.3a6.66 6.66 0 01-2.324.793c-.217.048-.456.02-.665.095-.508.395-.812 1.054-1.457 1.262-.288.145-.663.175-.868.446a.237.237 0 00-.022.113" fill="#FEC50C"/><path d="M11.925 16.405c-.095.174-.15.374-.27.53-.367-.337-.899-.329-1.363-.349-.384-.02-.801-.055-1.098-.334-.313-.26-.568-.596-.917-.806-.319-.088-.64-.198-.896-.42-.547-.451-.86-1.122-1.395-1.59a3.115 3.115 0 00-.337-.267c-.108.027-.06.265-.192.143-.072-.052-.253-.054-.27.016.162.22.327.468.35.747-.112.012-.31-.023-.366.018.15.227.337.425.554.585-.104.017-.308.008-.347.05.216.177.443.358.724.403.057.077-.084.224.035.29.068.029.296.077.14.156a.129.129 0 00-.058.148.13.13 0 00.127.092c.087.045.282.055.297.134-.077.08-.316.174-.112.248.191.11.405.173.625.184-.108.094-.244.146-.356.234.502.298 1.059.493 1.609.683.218.078.44.14.667.187-.66-.038-1.299-.236-1.898-.507a15.283 15.283 0 00-.944-.391c.14-.074.302-.092.447-.156-.301-.061-.63-.081-.895-.25.04-.072.194-.076.28-.113.16-.04.259-.086.033-.1-.228-.063-.487-.035-.689-.174.013-.083.223-.055.308-.09.109-.019.228-.034.314-.11-.352-.147-.812-.043-1.087-.357-.064-.12.197-.024.27-.044.19 0 .392.061.572-.016-.513-.228-1.062-.442-1.453-.863-.043-.068-.173-.254-.068-.274.304.04.524.377.85.324.043-.059-.19-.155-.247-.24-.475-.412-.935-.86-1.268-1.4-.023-.181.257-.208.331-.069.363.354.69.768 1.143 1.01.162.078-.092-.094-.126-.156-.417-.494-.815-1.01-1.107-1.591-.054-.105-.139-.294.017-.35.157-.078.312.03.391.165.307.393.533.859.915 1.186-.324-.64-.674-1.317-.682-2.053.008-.143.017-.359.208-.353.163-.025.136.183.188.283.158.542.227 1.128.545 1.606-.07-.402-.174-.816-.105-1.224.016-.134.163-.175.262-.094.079.196.095.437.166.645a6.508 6.508 0 005.855 4.651c.108.01.216.013.325.02m-1.512 1.877c.036 0 .064-.03.064-.065a.065.065 0 00-.064-.066.065.065 0 00-.064.066c0 .036.028.065.064.065z" fill="#FEC50C"/><path d="M10.409 18.23a.026.026 0 00.026-.027.026.026 0 00-.026-.027.026.026 0 00-.026.027c0 .015.012.026.026.026z" fill="#FEC50C" stroke="#00AFCA" stroke-width=".185"/></svg>