<svg width="52" height="29" fill="none" xmlns="http://www.w3.org/2000/svg"><path d="M9.967 7.108l-.255 18.504c0 .409-.306.703-.727.703H6.768c-.51 0-.969-.46-.969-.972l.242-18.248h-4.6C.674 7.095 0 6.417 0 5.663L.013 4.41c0-.589.446-1.01 1.032-1.01H15.04c.523 0 1.007.473.994.997l-.025 1.854c0 .499-.37.857-.867.857H9.967z" fill="#5FAF61"/><path d="M9.967 7.108l-.255 18.504c0 .409-.306.703-.727.703H6.768c-.51 0-.969-.46-.969-.972l.242-18.248h-4.6C.674 7.095 0 6.417 0 5.663L.013 4.41c0-.589.446-1.01 1.032-1.01H15.04c.523 0 1.007.473.994.997l-.025 1.854c0 .499-.37.857-.867.857H9.967z" fill="url(#paint0_linear)"/><path d="M18.022 25.087l.242-20.69a.995.995 0 011.02-.998h11.47c.51 0 .956.46.956.96l-.026 2.058a.695.695 0 01-.713.704H22.75a.594.594 0 00-.612.6l-.063 5.154h6.678c.395 0 .752.358.752.742l-.025 2.417a.54.54 0 01-.561.55h-6.895l-.064 5.422c0 .32.293.613.612.613h8.462c.523 0 .995.474.995.998l-.026 1.995c0 .409-.319.716-.74.716H19.259c-.65 0-1.236-.588-1.236-1.24z" fill="#5FAF61"/><path d="M18.022 25.087l.242-20.69a.995.995 0 011.02-.998h11.47c.51 0 .956.46.956.96l-.026 2.058a.695.695 0 01-.713.704H22.75a.594.594 0 00-.612.6l-.063 5.154h6.678c.395 0 .752.358.752.742l-.025 2.417a.54.54 0 01-.561.55h-6.895l-.064 5.422c0 .32.293.613.612.613h8.462c.523 0 .995.474.995.998l-.026 1.995c0 .409-.319.716-.74.716H19.259c-.65 0-1.236-.588-1.236-1.24z" fill="url(#paint1_linear)"/><path d="M45.87 21.085l-.013 2.263h-7.596c.484-4.693 5.149-6.317 5.34-6.42l-1.58-2.8c-.28.141-7.43 3.057-6.895 10.78.063.845.828 1.56 1.67 1.56h9.201l.038 2.302L52 24.87l-6.13-3.785z" fill="#5FAF61"/><path d="M45.87 21.085l-.013 2.263h-7.596c.484-4.693 5.149-6.317 5.34-6.42l-1.58-2.8c-.28.141-7.43 3.057-6.895 10.78.063.845.828 1.56 1.67 1.56h9.201l.038 2.302L52 24.87l-6.13-3.785z" fill="url(#paint2_linear)"/><path d="M41.192 8.604l.013-2.263H48.8c-.484 4.693-4.792 6.765-4.983 6.867l1.593 2.788c.28-.14 7.073-3.504 6.538-11.228-.064-.844-.828-1.56-1.67-1.56h-9.202L41.04.906l-5.952 3.9 6.105 3.798z" fill="#5FAF61"/><path d="M41.192 8.604l.013-2.263H48.8c-.484 4.693-4.792 6.765-4.983 6.867l1.593 2.788c.28-.14 7.073-3.504 6.538-11.228-.064-.844-.828-1.56-1.67-1.56h-9.202L41.04.906l-5.952 3.9 6.105 3.798z" fill="url(#paint3_linear)"/><defs><linearGradient id="paint0_linear" x1="38.366" y1="4.406" x2="29.14" y2="-2.438" gradientUnits="userSpaceOnUse"><stop stop-color="#16D691"/><stop offset="1" stop-color="#71BCFF"/></linearGradient><linearGradient id="paint1_linear" x1="39" y1=".588" x2="30.071" y2="-3.429" gradientUnits="userSpaceOnUse"><stop stop-color="#16D691"/><stop offset="1" stop-color="#71BCFF"/></linearGradient><linearGradient id="paint2_linear" x1="52.951" y1="14.268" x2="32.102" y2="3.888" gradientUnits="userSpaceOnUse"><stop stop-color="#16D691"/><stop offset="1" stop-color="#71BCFF"/></linearGradient><linearGradient id="paint3_linear" x1="54.537" y1="-5.138" x2="39.239" y2="-10.62" gradientUnits="userSpaceOnUse"><stop stop-color="#16D691"/><stop offset="1" stop-color="#71BCFF"/></linearGradient></defs></svg>