<svg width="33" height="32" fill="none" xmlns="http://www.w3.org/2000/svg"><path d="M12.701 32c-4.27 0-6.406 0-8.037-.831a7.626 7.626 0 01-3.333-3.333C.5 26.205.5 24.07.5 19.8v-7.6c0-4.27 0-6.406.831-8.037A7.626 7.626 0 014.664.83C6.295 0 8.43 0 12.7 0h7.6c4.27 0 6.406 0 8.037.831a7.626 7.626 0 013.333 3.333c.831 1.631.831 3.766.831 8.037V19.8c0 4.27 0 6.406-.831 8.037a7.626 7.626 0 01-3.333 3.333C26.705 32 24.57 32 20.3 32h-7.6z" fill="#243860"/><path d="M18.322 21.54l-.019 1.787h-6.032c.383-3.718 4.082-4.994 4.246-5.085l-1.257-2.205c-.219.11-5.905 2.424-5.467 8.529.054.674.656 1.24 1.33 1.24h7.308l.037 1.822 4.738-3.08-4.884-3.007z" fill="url(#paint0_linear)"/><path d="M14.622 11.664l.018-1.786h6.032c-.4 3.699-3.827 5.34-3.972 5.43l1.257 2.224c.219-.11 5.613-2.77 5.194-8.894-.055-.674-.656-1.239-1.33-1.239h-7.308l-.037-1.822-4.738 3.08 4.884 3.007z" fill="url(#paint1_linear)"/><defs><linearGradient id="paint0_linear" x1="12.29" y1="30.619" x2="22.362" y2="14.925" gradientUnits="userSpaceOnUse"><stop stop-color="#71BCFF"/><stop offset=".203" stop-color="#71BCFC"/><stop offset=".362" stop-color="#6FBBF2"/><stop offset=".507" stop-color="#6DBAE1"/><stop offset=".642" stop-color="#6BB8CA"/><stop offset=".771" stop-color="#67B5AC"/><stop offset=".894" stop-color="#63B287"/><stop offset="1" stop-color="#5EAF61"/></linearGradient><linearGradient id="paint1_linear" x1="12.828" y1="24.1" x2="19.538" y2="6.108" gradientUnits="userSpaceOnUse"><stop stop-color="#71BCFF"/><stop offset="1" stop-color="#62CF81"/></linearGradient></defs></svg>