<svg width="14" height="20" fill="none" xmlns="http://www.w3.org/2000/svg"><path d="M.696 5.62c.034-1.625.602-2.927 1.702-3.906C3.498.725 5.018.23 6.96.23c1.83 0 3.309.464 4.434 1.392 1.126.92 1.689 2.119 1.689 3.597 0 .954-.228 1.787-.683 2.5-.456.705-1.147 1.328-2.076 1.87-.859.498-1.439.945-1.74 1.34-.3.396-.451.911-.451 1.547v.684H4.718l-.026-.748c-.086-.997.052-1.818.413-2.462.37-.645 1.005-1.233 1.908-1.766.833-.499 1.4-.946 1.701-1.34.31-.396.464-.899.464-1.51 0-.618-.228-1.125-.683-1.52-.447-.396-1.036-.593-1.766-.593-.74 0-1.336.219-1.792.657-.455.43-.705 1.01-.748 1.74H.696zm7.27 13.122c-.412.387-.91.58-1.495.58a2.108 2.108 0 01-1.495-.58 1.944 1.944 0 01-.606-1.444 1.9 1.9 0 01.606-1.43c.412-.396.91-.593 1.495-.593.584 0 1.083.197 1.495.593.413.386.62.863.62 1.43 0 .568-.207 1.049-.62 1.444z" fill="#5FAF61"/><path d="M.696 5.62c.034-1.625.602-2.927 1.702-3.906C3.498.725 5.018.23 6.96.23c1.83 0 3.309.464 4.434 1.392 1.126.92 1.689 2.119 1.689 3.597 0 .954-.228 1.787-.683 2.5-.456.705-1.147 1.328-2.076 1.87-.859.498-1.439.945-1.74 1.34-.3.396-.451.911-.451 1.547v.684H4.718l-.026-.748c-.086-.997.052-1.818.413-2.462.37-.645 1.005-1.233 1.908-1.766.833-.499 1.4-.946 1.701-1.34.31-.396.464-.899.464-1.51 0-.618-.228-1.125-.683-1.52-.447-.396-1.036-.593-1.766-.593-.74 0-1.336.219-1.792.657-.455.43-.705 1.01-.748 1.74H.696zm7.27 13.122c-.412.387-.91.58-1.495.58a2.108 2.108 0 01-1.495-.58 1.944 1.944 0 01-.606-1.444 1.9 1.9 0 01.606-1.43c.412-.396.91-.593 1.495-.593.584 0 1.083.197 1.495.593.413.386.62.863.62 1.43 0 .568-.207 1.049-.62 1.444z" fill="#0B1323"/></svg>