<svg width="24" height="24" fill="none" xmlns="http://www.w3.org/2000/svg"><path fill-rule="evenodd" clip-rule="evenodd" d="M23.244 16.2C21.542 20.756 17.15 24 12 24 6.85 24 2.458 20.756.755 16.2h22.49z" fill="#1DB63A"/><path fill-rule="evenodd" clip-rule="evenodd" d="M23.244 16.2A11.96 11.96 0 0024 12a11.96 11.96 0 00-.756-4.2H.756A11.974 11.974 0 000 12c0 1.478.267 2.893.756 4.2h22.488z" fill="#fff"/><path fill-rule="evenodd" clip-rule="evenodd" d="M23.244 7.8H.755C2.458 3.244 6.85 0 12 0c5.15 0 9.542 3.244 11.244 7.8z" fill="#0099B5"/><path d="M1.608 17.998h20.787l-.366.6H1.975l-.367-.6z" fill="#CD0E24"/><path d="M.766 16.2h22.475s-.182.484-.379.917c-.196.433-.455.882-.455.882H1.587s-.245-.413-.46-.906C.912 16.6.767 16.2.767 16.2z" fill="#fff"/><path d="M.237 9.6H23.77l.096.6H.134l.103-.6z" fill="#CD0E24"/><path d="M.756 7.8h22.499s.145.372.29.911.217.889.217.889H.243s.082-.471.221-.927c.14-.456.292-.873.292-.873z" fill="#0099B5"/><path d="M9.837 6.966l.158.487h.511l-.414.3.159.487-.414-.3-.414.3.158-.487-.414-.3h.512l.158-.487zm2.112 0l.158.487h.511l-.414.3.158.487-.413-.3-.414.3.158-.487-.414-.3h.512l.158-.487zm0-2.112l.158.487h.511l-.414.3.158.487-.413-.3-.414.3.158-.487-.414-.3h.512l.158-.487zm2.111 2.112l.159.487h.511l-.414.3.158.487-.414-.3-.413.3.158-.487-.414-.3h.511l.158-.487zm0-2.112l.159.487h.511l-.414.3.158.487-.414-.3-.413.3.158-.487-.414-.3h.511l.158-.487zm0-2.112l.159.487h.511l-.414.3.158.487-.414-.3-.413.3.158-.487-.414-.3h.511l.158-.487zm2.113 4.224l.158.487h.511l-.413.3.158.487-.414-.3-.414.3.158-.487-.414-.3h.512l.158-.487zm0-2.112l.158.487h.511l-.413.3.158.487-.414-.3-.414.3.158-.487-.414-.3h.512l.158-.487zm0-2.112l.158.487h.511l-.413.3.158.487-.414-.3-.414.3.158-.487-.414-.3h.512l.158-.487zm2.112 4.224l.158.487h.511l-.414.3.158.487-.413-.3-.414.3.158-.487-.414-.3h.512l.158-.487zm0-2.112l.158.487h.511l-.414.3.158.487-.413-.3-.414.3.158-.487-.414-.3h.512l.158-.487zm0-2.112l.158.487h.511l-.414.3.158.487-.413-.3-.414.3.158-.487-.414-.3h.512l.158-.487z" fill="#fff"/><path fill-rule="evenodd" clip-rule="evenodd" d="M7.455 3.011a2.71 2.71 0 000 5.309 2.709 2.709 0 110-5.309z" fill="#fff"/></svg>