<svg width="100" height="39" fill="none" xmlns="http://www.w3.org/2000/svg"><path d="M16.904 5.62c.797 0 1.443.296 1.94.89.5.594.75 1.37.75 2.332 0 .96-.249 1.74-.745 2.338-.492.593-1.137.89-1.934.89-.496 0-.935-.123-1.318-.369a2.23 2.23 0 01-.838-1.002h-.017v3.37h-.774v-8.38h.733v1.307h.017a2.12 2.12 0 01.85-.99 2.407 2.407 0 011.336-.387zm-.135 5.753c.61 0 1.1-.23 1.47-.691.376-.465.563-1.077.563-1.834 0-.758-.187-1.37-.562-1.834-.371-.47-.862-.703-1.471-.703-.602 0-1.092.236-1.47.709-.376.468-.563 1.076-.563 1.822 0 .75.187 1.36.562 1.828.38.469.87.703 1.47.703zm6.451.697c-.867 0-1.562-.29-2.086-.873-.52-.586-.78-1.37-.78-2.355 0-.98.26-1.762.78-2.344.524-.586 1.219-.879 2.086-.879.871 0 1.567.293 2.086.88.523.581.785 1.362.785 2.343 0 .98-.262 1.763-.785 2.35-.52.585-1.215.878-2.086.878zm0-.697c.645 0 1.152-.225 1.524-.674.37-.453.556-1.072.556-1.857 0-.785-.185-1.403-.556-1.852-.372-.453-.88-.68-1.524-.68-.64 0-1.146.227-1.517.68-.372.45-.557 1.067-.557 1.852 0 .785.185 1.404.556 1.857.372.45.877.674 1.518.674zm11.79-5.684L33.21 12h-.814l-1.582-5.256h-.018L29.214 12H28.4l-1.8-6.31h.78l1.429 5.431h.018L30.41 5.69h.785l1.588 5.432h.017l1.43-5.432h.78zm3.31.616c-.567 0-1.034.193-1.4.58-.364.383-.563.888-.598 1.517h3.925c-.007-.629-.189-1.134-.544-1.517-.352-.387-.813-.58-1.383-.58zm1.886 3.908h.768c-.094.543-.38.988-.861 1.336-.477.348-1.055.521-1.735.521-.875 0-1.57-.287-2.086-.861-.515-.578-.773-1.361-.773-2.35 0-.98.256-1.765.767-2.355.516-.59 1.198-.885 2.045-.885.828 0 1.489.28 1.98.838.497.555.745 1.3.745 2.238v.34h-4.734v.041c0 .711.187 1.274.562 1.688.38.414.883.62 1.512.62.465 0 .86-.107 1.184-.322.324-.214.533-.497.626-.85zM42.14 12V5.69h.727v1.119h.023c.11-.375.305-.666.586-.873.281-.211.62-.317 1.014-.317.168 0 .324.022.468.065v.773c-.132-.062-.324-.094-.574-.094-.445 0-.803.16-1.072.48-.266.317-.398.731-.398 1.243V12h-.774zm5.836-5.695c-.566 0-1.033.193-1.4.58-.364.383-.563.888-.598 1.517h3.926c-.008-.629-.19-1.134-.545-1.517-.352-.387-.813-.58-1.383-.58zm1.887 3.908h.767c-.094.543-.38.988-.861 1.336-.477.348-1.055.521-1.734.521-.875 0-1.57-.287-2.086-.861-.516-.578-.774-1.361-.774-2.35 0-.98.256-1.765.768-2.355.515-.59 1.197-.885 2.045-.885.828 0 1.488.28 1.98.838.496.555.744 1.3.744 2.238v.34h-4.734v.041c0 .711.187 1.274.562 1.688.38.414.883.62 1.512.62.465 0 .86-.107 1.184-.322a1.44 1.44 0 00.627-.85zm4.318 1.857c-.793 0-1.441-.297-1.945-.89-.504-.598-.756-1.377-.756-2.338 0-.957.25-1.733.75-2.326.5-.598 1.144-.897 1.934-.897.5 0 .943.125 1.33.375.386.246.666.576.837.99h.018V3.176h.78V12h-.739v-1.342h-.018a2.26 2.26 0 01-.855 1.032 2.38 2.38 0 01-1.336.38zm1.6-5.05a1.804 1.804 0 00-1.477-.71c-.605 0-1.096.233-1.47.698-.376.465-.563 1.076-.563 1.834s.187 1.369.562 1.834c.375.465.866.697 1.471.697a1.81 1.81 0 001.477-.703c.383-.469.574-1.078.574-1.828 0-.746-.191-1.354-.574-1.822zm8.466 5.05c-.504 0-.949-.123-1.336-.369a2.262 2.262 0 01-.855-1.037h-.017V12H61.3V3.176h.774v3.808h.017c.184-.425.467-.76.85-1.002a2.413 2.413 0 011.318-.363c.793 0 1.436.297 1.928.89.492.595.738 1.372.738 2.333 0 .965-.248 1.744-.744 2.338-.492.593-1.137.89-1.934.89zm1.33-5.062c-.367-.465-.853-.697-1.459-.697-.605 0-1.1.236-1.482.709-.379.472-.568 1.082-.568 1.828s.19 1.353.568 1.822a1.82 1.82 0 001.477.703c.605 0 1.093-.23 1.465-.691.37-.465.556-1.078.556-1.84 0-.758-.185-1.37-.556-1.834zm2.766 7.19a1.59 1.59 0 01-.387-.048v-.662c.118.028.245.041.381.041.285 0 .516-.084.692-.252.18-.164.34-.445.48-.843l.14-.393-2.372-6.352h.832l1.933 5.526h.018L72 5.689h.82l-2.461 6.616c-.274.742-.551 1.242-.832 1.5-.278.261-.672.392-1.184.392zm30.613 6.958c-.608 0-1.128.508-1.128 1.156v8.323a7.038 7.038 0 01-1.432.74 5.527 5.527 0 01-4.035-.139c-.998-.462-1.649-1.34-1.909-2.404-.174-.74-.174-1.48-.174-2.22a9.433 9.433 0 00-.65-3.468c-.347-.786-.695-1.202-.738-1.295-.39-.462-1.128-.508-1.562-.092-.434.416-.477 1.156-.087 1.618 0 0 .217.278.434.787.347.924.434 1.85.434 2.82 0 1.573.304 3.19 1.172 4.486.607.925 1.561 1.618 2.56 2.034 1.692.694 3.6.694 5.336.047.174-.047.347-.14.52-.185-.26.925-.954 1.618-1.778 1.988-1.649.74-3.731.324-5.293-.509-.565-.323-1.215-.138-1.476.463a1.156 1.156 0 00.434 1.572c1.345.786 2.864 1.156 4.382 1.156.912 0 1.78-.139 2.56-.462a5.375 5.375 0 002.864-2.59 5.81 5.81 0 00.607-2.59V22.174c.044-.601-.434-1.017-1.041-1.017zM86.46 27.583c0-.97-.39-2.034-.867-2.867-.13-.277-.304-.462-.478-.693-.39-.509-1.04-.601-1.562-.231-.477.416-.607 1.11-.216 1.618.13.139.216.324.303.462.39.694.564 1.48.564 2.22 0 .74-.173 1.572-.564 2.22a4.413 4.413 0 01-1.605 1.664 4.132 4.132 0 01-2.126.602 3.916 3.916 0 01-2.126-.602c-.65-.416-1.215-.924-1.605-1.664a4.557 4.557 0 01-.564-2.22c0-.74.173-1.572.564-2.22a4.413 4.413 0 011.605-1.664 4.133 4.133 0 012.126-.601c.173 0 .39 0 .564.046.607.092 1.171-.37 1.258-.971a1.138 1.138 0 00-.954-1.295c-.26-.046-.564-.046-.825-.046a6.02 6.02 0 00-3.254.925 6.978 6.978 0 00-2.43 2.543c-.564 1.017-.824 2.173-.824 3.375 0 1.157.26 2.313.868 3.422a7.333 7.333 0 002.43 2.544 6.466 6.466 0 003.21.878 6.02 6.02 0 003.254-.925 6.559 6.559 0 001.996-1.85c.26.602.564 1.157.868 1.666.347.554 1.041.693 1.519.323.52-.323.65-1.063.303-1.572-.868-1.526-1.432-3.237-1.432-5.087zm-17.355 3.515c-.347.416-.737.74-1.214.97a3.456 3.456 0 01-1.519.463c-.174.047-.39.047-.564.047a4.857 4.857 0 01-2.083-.463c-.564-.277-1.128-.601-1.648-1.064V26.15c.303-.74.737-1.341 1.258-1.757a3.746 3.746 0 011.996-.833c.173-.046.347-.046.52-.046 1.085 0 2.083.416 2.864 1.156.39.324.694.786.954 1.249.26.462.391 1.017.478 1.572.043.185.043.37.043.555 0 1.202-.39 2.266-1.085 3.052zm2.517-6.197a7.124 7.124 0 00-2.386-2.635c-.998-.648-2.126-.971-3.385-.971-.26 0-.52.046-.78.046-1.215.139-2.257.647-3.124 1.294-.26.185-.478.417-.651.648a5.393 5.393 0 00-.564-.925 9.461 9.461 0 00-.651-.786c-.477-.416-1.172-.416-1.562.092-.39.463-.39 1.203.087 1.619.043.046.347.324.607.878.174.278.304.602.39.972.13.37.174.786.174 1.294v9.85c0 .647.477 1.156 1.128 1.156.651 0 1.128-.509 1.128-1.156v-2.405l.781.416c.955.417 1.91.648 2.95.648.26 0 .565-.046.825-.046.824-.14 1.605-.37 2.3-.787a6.958 6.958 0 002.516-2.45c.607-1.064.954-2.22.954-3.515 0-.277-.043-.555-.043-.832-.043-.879-.304-1.665-.694-2.405zm-30.11-2.682a6.02 6.02 0 00-3.255-.925c-.26 0-.564.047-.824.047a1.138 1.138 0 00-.955 1.294c.087.648.608 1.064 1.258.972.174-.047.39-.047.564-.047.738 0 1.476.185 2.126.602a4.413 4.413 0 011.606 1.664 4.44 4.44 0 01.564 2.22 4.44 4.44 0 01-.564 2.22 4.094 4.094 0 01-1.606 1.664 3.916 3.916 0 01-2.126.601 3.916 3.916 0 01-2.126-.6 4.411 4.411 0 01-1.605-1.666 4.432 4.432 0 01-.564-2.22c0-.785.174-1.525.564-2.219.087-.185.174-.323.304-.462.39-.509.26-1.203-.217-1.619-.477-.416-1.215-.277-1.562.232-.174.23-.347.462-.477.693-.608 1.064-.868 2.22-.868 3.422s.304 2.312.824 3.376c.564 1.017 1.389 1.942 2.43 2.543a6.02 6.02 0 003.254.925c1.128 0 2.213-.324 3.21-.879.955-.555 1.866-1.433 2.43-2.543.608-1.064.868-2.22.868-3.422s-.304-2.312-.824-3.376a6.519 6.519 0 00-2.43-2.497zM7.234 24.67c.26.555.911.832 1.475.555.564-.277.825-.925.564-1.526l-.998-2.312a1.155 1.155 0 00-1.04-.694c-.175 0-.305.047-.478.14a1.162 1.162 0 00-.564 1.525l1.041 2.312zm10.803-1.757c.391-.509.26-1.202-.216-1.619-.478-.416-1.215-.277-1.562.232-.26.37-.478.74-.738 1.156a8.103 8.103 0 00-.78 1.803l-2.517 6.659-2.213-4.07a1.07 1.07 0 00-.955-.6c-.39 0-.737.23-.954.555l-2.256 4.069-3.688-9.665a1.129 1.129 0 00-1.042-.74h-.043c-.13 0-.26.047-.39.093-.564.231-.825.925-.608 1.526l4.556 11.93c.173.416.52.694.954.74.434.046.825-.185 1.042-.555l2.43-4.439 2.386 4.393c.217.416.607.647 1.04.601.435-.046.782-.324.955-.74l3.385-8.924c.173-.463.39-.972.65-1.434.174-.37.348-.694.564-.971zm9.199-.694a6.02 6.02 0 00-3.254-.925c-.26 0-.564.047-.825.047a1.138 1.138 0 00-.954 1.294c.087.648.607 1.064 1.258.972.174-.047.39-.047.564-.047a3.91 3.91 0 012.126.602 4.413 4.413 0 011.605 1.664 4.44 4.44 0 01.564 2.22 4.43 4.43 0 01-.564 2.22 4.094 4.094 0 01-1.605 1.664 3.916 3.916 0 01-2.126.601 3.916 3.916 0 01-2.126-.6 4.412 4.412 0 01-1.605-1.666 4.433 4.433 0 01-.564-2.22c0-.785.173-1.525.564-2.219.086-.185.173-.323.303-.462.39-.509.26-1.203-.217-1.619-.477-.416-1.214-.277-1.561.232a6.614 6.614 0 00-.478.693c-.607 1.064-.867 2.22-.867 3.422s.303 2.312.824 3.376c.564 1.017 1.388 1.942 2.43 2.543a6.02 6.02 0 003.254.925c1.128 0 2.212-.324 3.21-.879.955-.555 1.866-1.433 2.43-2.543.607-1.064.868-2.22.868-3.422s-.304-2.312-.825-3.376a5.954 5.954 0 00-2.43-2.497zm28.158 8.879a3.6 3.6 0 01-1.215.97 3.456 3.456 0 01-1.518.463c-.174.047-.39.047-.564.047a4.857 4.857 0 01-2.083-.463c-.564-.277-1.128-.601-1.649-1.064V26.15c.304-.74.738-1.341 1.258-1.757a3.746 3.746 0 011.996-.833c.174-.046.347-.046.521-.046 1.085 0 2.083.416 2.864 1.156.39.324.694.786.954 1.249.26.462.39 1.017.477 1.572.044.185.044.37.044.555 0 1.202-.39 2.266-1.085 3.052zm2.56-6.197a7.124 7.124 0 00-2.386-2.635c-.998-.648-2.126-.971-3.385-.971-.26 0-.52.046-.78.046-1.216.139-2.257.647-3.125 1.294-.26.185-.477.417-.65.648a5.4 5.4 0 00-.564-.925 9.451 9.451 0 00-.651-.786c-.477-.416-1.172-.416-1.562.092-.39.463-.39 1.203.087 1.619.043.046.347.324.607.878.174.278.304.602.39.972.13.37.174.786.174 1.294v9.85c0 .647.477 1.156 1.128 1.156.608 0 1.128-.509 1.128-1.156v-2.405l.781.416c.955.417 1.91.648 2.95.648.26 0 .565-.046.825-.046.824-.14 1.605-.37 2.3-.787a6.957 6.957 0 002.516-2.45c.607-1.064.955-2.22.955-3.515 0-.277-.044-.555-.044-.832-.043-.879-.347-1.665-.694-2.405z" fill="#fff" fill-opacity=".6"/></svg>