<svg width="34" height="34" viewBox="0 0 34 34" fill="none" xmlns="http://www.w3.org/2000/svg">
<path d="M20.4139 29.7506C20.2628 29.7506 20.113 29.7506 19.962 29.7506C19.1751 29.6457 18.5132 29.2436 17.8266 28.8785C17.0055 28.4418 16.1231 28.4335 15.2594 28.7556C14.7994 28.9274 14.3711 29.1887 13.924 29.3963C12.6923 29.9678 11.5078 29.7865 10.4413 29.0252C9.75117 28.5313 9.11879 27.9335 8.53482 27.3108C7.13562 25.8205 6.22248 24.0404 5.76002 22.0456C5.5512 21.146 5.42496 20.2201 5.34356 19.299C5.27868 18.5617 5.3353 17.8136 5.34238 17.0703C5.35064 16.123 5.46743 15.1924 5.76356 14.2891C6.18827 13.0006 7.06483 12.095 8.1337 11.3267C9.62727 10.2553 11.2648 9.87826 13.0403 10.2815C13.8154 10.4581 14.5622 10.7767 15.3067 11.0702C15.7538 11.2468 16.1761 11.2802 16.6162 11.0893C16.7459 11.0332 16.8828 10.9914 17.0138 10.9366C18.1345 10.4629 19.2801 10.0954 20.5117 10.0692C21.3671 10.0512 22.2095 10.1133 23.0329 10.3603C23.8729 10.612 24.4899 11.2026 25.1164 11.7741C25.3771 12.0127 25.6025 12.2919 25.8561 12.5663C25.6803 12.6701 25.547 12.7405 25.4231 12.8252C23.5272 14.1197 22.8477 15.9822 23.0199 18.2121C23.1084 19.3587 23.5308 20.3955 24.2669 21.2832C24.8368 21.9692 25.5198 22.4954 26.387 22.7424C26.387 22.759 26.387 22.7758 26.387 22.7937C26.361 22.8449 26.3315 22.8951 26.3115 22.9487C25.5576 24.9531 24.4415 26.719 22.8642 28.1603C22.1398 28.82 21.4249 29.5263 20.4139 29.7506Z" fill="white"/>
<path d="M21.1109 3.71851C21.2585 7.93495 17.9775 10.2866 15.0812 10.2747C15.165 9.77592 15.2204 9.27717 15.3349 8.79162C15.8893 6.46027 17.1859 4.76964 19.4971 4.01439C20.0103 3.84617 20.5659 3.81395 21.1109 3.71851Z" fill="white"/>
</svg>
