<svg width="116" height="38" viewBox="0 0 116 38" fill="none" xmlns="http://www.w3.org/2000/svg">
<g clip-path="url(#clip0)">
<path fill-rule="evenodd" clip-rule="evenodd" d="M33.61 18.5729L29.1499 14.1025C26.5996 17.217 22.7299 19.1908 18.4332 19.1908C16.6154 19.1908 14.9633 20.0237 13.8552 21.3069C12.9571 22.3772 12.3916 23.7554 12.3916 25.2774C12.3916 26.7763 12.9584 28.1787 13.8549 29.249C13.855 29.2491 13.8551 29.2492 13.8552 29.2494C13.856 29.2501 13.8567 29.2508 13.8574 29.2515C13.8881 29.2816 13.9188 29.3128 13.9495 29.344C13.9591 29.3538 13.9687 29.3636 13.9784 29.3733C13.9844 29.3795 13.9905 29.3857 13.9966 29.3918L18.4332 33.8614L23.144 29.1159L29.1499 23.0433L33.3418 18.8431L33.61 18.5729ZM3.4537 18.7702L7.69513 23.0419C9.32297 21.0912 11.4477 19.5936 13.8552 18.7376C15.2946 18.2384 16.8296 17.9522 18.4332 17.9522C21.7617 17.9522 24.4762 15.2188 24.4762 11.8655C24.4762 10.296 23.8622 8.84591 22.8712 7.7756L18.4332 3.28146L13.9966 7.7756L13.8552 7.895L3.25712 18.5721L3.4537 18.7702ZM30.6835 6.23052V12.3646C30.6835 12.3646 36.845 18.5721 36.8436 18.5721L30.6835 24.7782V30.9123H24.5934L18.4332 37.1429L12.2731 30.9123H6.16012V24.7782L0 18.5721L6.16012 12.3646V6.23052H12.2731L18.4332 0L24.5934 6.23052H30.6835ZM29.1499 29.3918V25.2299L30.6835 23.6834L35.7584 18.5707L30.6835 13.458L30.5649 13.3386C29.7388 12.5063 29.1499 11.913 29.1499 11.913V7.7756H29.1485V7.77556H25.0431L18.4841 1.14483L18.4332 1.09333L18.4332 1.09337L18.4291 1.09754L13.8552 5.70691L11.8269 7.77334L11.8247 7.77556H7.69515V7.7756H7.69513V11.913L6.18052 13.4389L6.16012 13.4594L1.08523 18.5721L1.08521 18.5722L7.6937 25.23V29.3918H11.8233L13.8538 31.436L18.4318 36.0481L18.4325 36.0474L18.4347 36.0495L19.3836 35.0893L24.7563 29.6764L25.0432 29.3918H29.1499Z" fill="white" fill-opacity="0.6"/>
<path fill-rule="evenodd" clip-rule="evenodd" d="M59.1862 24.7393H52.1293V21.6478H59.1862C60.0129 21.6478 60.7212 22.3369 60.7212 23.1928C60.7212 24.0488 60.0129 24.7393 59.1862 24.7393ZM59.1862 29.6852H52.1293V26.5936H59.1862C60.0129 26.5936 60.7212 27.2827 60.7212 28.1401C60.7212 28.9716 60.0129 29.6852 59.1862 29.6852ZM63.7656 22.7181C63.7656 21.1256 62.4676 19.7934 60.8611 19.7934H49.0607V31.5165H60.8611C62.4661 31.5165 63.7656 30.2088 63.7656 28.5918C63.7656 26.9749 62.4676 25.6672 60.8611 25.6672C62.4676 25.6657 63.7656 24.335 63.7656 22.7181ZM69.9028 27.8308L72.3575 22.885L74.8135 27.8308H69.9028ZM70.8224 19.792L64.9922 31.515H68.0608L68.9804 29.6852H75.7317L76.6513 31.515H79.7199L73.8896 19.792C73.8925 19.792 70.8224 19.792 70.8224 19.792ZM92.5842 28.448L90.2952 26.1175L84.0166 19.792H80.9479V31.515H84.0166V22.8835L90.2952 29.209L92.5842 31.515H95.6528V19.792H92.5842C92.5842 19.792 92.5842 28.448 92.5842 28.448ZM106.675 19.792L99.948 24.7379V19.792H96.8808V31.515H99.948V26.5922L106.675 31.515H110.028L102.121 25.6657L110.028 19.792H106.675Z" fill="white" fill-opacity="0.6"/>
<path fill-rule="evenodd" clip-rule="evenodd" d="M83.0742 15.2002L80.7838 12.8697L74.5066 6.54419H71.438V18.2672H74.5066V9.63427L80.7838 15.9597L83.0742 18.2672H86.1429V6.54419H83.0742V15.2002Z" fill="white" fill-opacity="0.6"/>
<path fill-rule="evenodd" clip-rule="evenodd" d="M56.806 8.40713H51.6311V18.2744H48.5625V8.41576H43.3334V6.50244L56.806 6.55279V8.40713Z" fill="white" fill-opacity="0.6"/>
<path fill-rule="evenodd" clip-rule="evenodd" d="M94.7076 14.3629H99.9881V16.3237H90.6751V8.5035H99.9881V10.4585H103.092V8.5035C103.092 7.42888 102.22 6.54846 101.152 6.54846H89.5114C88.4447 6.54846 87.5708 7.42744 87.5708 8.5035V16.3222C87.5708 17.3983 88.4447 18.2773 89.5114 18.2773H101.152C102.22 18.2773 103.092 17.3983 103.092 16.3222V14.3629V13.33V12.4136H94.7091C94.7076 12.4136 94.7076 14.3629 94.7076 14.3629Z" fill="white" fill-opacity="0.6"/>
<path fill-rule="evenodd" clip-rule="evenodd" d="M69.8858 16.4229H61.3182V13.3156H69.703L69.7016 11.3663H61.3182V8.40854H69.8858V6.5542H61.3182H58.2495V18.2772H61.3182H69.8858V16.4229Z" fill="white" fill-opacity="0.6"/>
<path fill-rule="evenodd" clip-rule="evenodd" d="M116.168 16.4229H107.6V13.3156H115.984V11.3663H107.6V8.40854H116.168V6.5542H107.6H104.532V18.2772H107.6H116.168V16.4229Z" fill="white" fill-opacity="0.6"/>
</g>
<defs>
<clipPath id="clip0">
<rect width="115.143" height="37.1429" fill="white"/>
</clipPath>
</defs>
</svg>
