<svg width="116" height="38" viewBox="0 0 116 38" fill="none" xmlns="http://www.w3.org/2000/svg">
<g clip-path="url(#clip0)">
<path fill-rule="evenodd" clip-rule="evenodd" d="M7.87999 8.0941L7.88002 8.0941H12.118L18.9716 1.32732L25.759 8.0941H29.997V12.3192L29.9996 12.3219L31.5531 13.8706L36.7757 19.1433L36.7843 19.152L29.997 25.9188V30.1439L29.9969 30.1439H25.759L18.9716 36.9107L13.6741 31.6953L12.118 30.1439H7.87999V25.9188L1.09263 19.152L6.32386 13.8706L7.87999 12.3192V8.0941ZM12.5484 6.54269H6.32386V12.7483L0 19.152L6.32386 25.4897V31.6953H12.5484L18.9716 37.9999L25.3285 31.6953H31.5531V25.4897L37.9763 19.152L31.5531 12.7483V6.54269H25.3285L18.9716 0.238037L12.5484 6.54269ZM23.5213 8.0941L18.9716 3.5389L3.31095 19.152L7.88002 23.6412C10.2804 20.8519 13.6465 18.9264 17.3493 18.6239L18.1439 18.5248H18.9716L19.5345 18.4258L20.1635 18.3268L20.8257 18.2608L21.3555 17.9637L21.9183 17.6996L22.3819 17.4355L22.9447 17.0725C25.5714 14.8884 25.9908 10.5807 23.4745 8.0941H23.5213ZM34.5593 19.1453L29.997 14.5968C27.5966 17.386 24.2636 19.2895 20.5608 19.6141L19.7993 19.7131H18.9716L17.7135 19.9112L17.0513 19.9772L16.5215 20.2743L15.9587 20.5384L15.4951 20.8024L14.9654 21.1655C13.5858 22.2768 12.6919 24.1473 12.7471 25.9188C12.6559 27.5974 13.3862 28.9628 14.4165 30.177L16.5589 32.3039C16.6133 32.3532 16.6676 32.4023 16.7218 32.4514C17.5526 33.2034 18.3604 33.9346 18.9716 34.6991L25.7162 27.9749L29.997 23.6412L34.5643 19.1537L34.566 19.152L34.5593 19.1453Z" fill="white" fill-opacity="0.6"/>
<path fill-rule="evenodd" clip-rule="evenodd" d="M71.1581 28.4372L68.6087 23.4199L66.0262 28.4372H71.1581ZM47.783 27.1829V30.3847H55.0008L55.2988 30.2857L55.663 30.1867L55.8285 30.0877L56.1265 29.9226L56.2921 29.6255L56.4907 29.3615L56.5901 29.0974V28.4372L56.4907 28.1731L56.2921 27.9091L56.1265 27.612L55.8285 27.447L55.663 27.3479L55.2988 27.2489L55.0008 27.1829H47.783ZM47.783 22.1326V25.2354H55.2988L55.663 25.1694L55.8285 25.0703L56.1265 24.8063L56.2921 24.6082L56.4907 24.3441L56.5901 24.0471V23.4199L56.4907 23.1558L56.2921 22.8588L56.1265 22.5947L55.8285 22.4296L55.663 22.2316L55.2988 22.1326H47.783ZM77.4157 20.2181H80.6273L89.4344 29.0974V20.2181H92.646V32.2002H89.4344L80.6273 23.4199V32.2002H77.4157V20.2181ZM99.334 26.2586L107.479 20.2181H104.002L97.0164 25.2354V20.2181H93.9041V32.2002H97.0164V27.1829L104.002 32.2002H107.479L99.334 26.2586ZM100.791 7.04761H104.002V12.0649L110.988 7.04761H114.366L106.287 12.9892L114.366 19.0298H110.988L104.002 14.0124V19.0298H100.791V7.04761ZM93.9041 14.0124V19.0298H90.6925V14.0124L84.7329 7.04761H87.8451L92.2487 12.0649L96.7515 7.04761H99.8638L93.9041 14.0124ZM77.4157 7.04761H80.6273V17.1152H89.4344V19.0298H77.4157V7.04761ZM68.6087 10.1504L71.1581 15.2007H66.0262L68.6087 10.1504ZM73.0122 19.0298H76.2238L70.1648 7.04761H67.0195L60.9936 19.0298H64.2052L65.0991 17.1152H72.0852L73.0122 19.0298ZM44.5714 7.04761H47.783V12.0649H56.5901V7.04761H59.8017V19.0298H56.5901V14.0124H47.783V19.0298H44.5714V7.04761ZM44.5714 20.2181H56.7556L57.3185 20.3171L57.8482 20.4821L58.4111 20.7792L58.8746 21.1423L59.2388 21.6044L59.5037 22.0335L59.7023 22.6937C60.1603 24.4707 58.5049 26.1871 56.7556 26.2586C58.4497 26.1156 59.7189 27.678 59.8017 29.2624L59.7023 29.8236L59.5037 30.3847L59.2388 30.9129L58.8746 31.375L58.4111 31.7381L57.8482 32.0022L57.3185 32.2002H44.5714V20.2181ZM64.2052 32.2002H60.9936L67.0195 20.2181H70.1648L76.2238 32.2002H73.0122L72.0852 30.3847H65.0991L64.2052 32.2002Z" fill="white" fill-opacity="0.6"/>
</g>
<defs>
<clipPath id="clip0">
<rect width="115.762" height="37.7619" fill="white" transform="translate(0 0.238037)"/>
</clipPath>
</defs>
</svg>
