<svg width="24" height="24" viewBox="0 0 24 24" fill="none" xmlns="http://www.w3.org/2000/svg">
<circle cx="12" cy="12" r="12" fill="#06068C"/>
<path fill-rule="evenodd" clip-rule="evenodd" d="M3.7842 3.25415L23.6854 14.7441C23.4973 15.5484 23.2282 16.3216 22.8873 17.0546L2.18151 5.10012C2.65235 4.43131 3.1898 3.81278 3.7842 3.25415ZM20.1028 20.852L0.28125 9.40809C0.459409 8.59894 0.719232 7.82041 1.05164 7.0816L21.7328 19.0219C21.2526 19.6863 20.706 20.2996 20.1028 20.852Z" fill="white"/>
<path fill-rule="evenodd" clip-rule="evenodd" d="M23.8032 9.82413L4.21558 21.133C3.58805 20.5976 3.01637 19.9987 2.5105 19.3462L23.1088 7.45375C23.418 8.20844 23.6525 9.00163 23.8032 9.82413ZM0.41748 15.1495L20.5159 3.54565C21.0868 4.12067 21.5999 4.75319 22.0456 5.43375L1.28941 17.4174C0.925797 16.6999 0.632162 15.9409 0.41748 15.1495Z" fill="white"/>
<path fill-rule="evenodd" clip-rule="evenodd" d="M15.2822 0.454402C14.2391 0.158417 13.138 0 12 0C11.0653 0 10.1555 0.106873 9.28224 0.309068V9.31901L0.300614 9.31901C0.103896 10.181 0 11.0784 0 12C0 13.1514 0.162164 14.2649 0.4649 15.319H9.28224V23.6909C10.1555 23.8931 11.0653 24 12 24C13.138 24 14.2391 23.8416 15.2822 23.5456V15.319H23.5351C23.8378 14.2649 24 13.1514 24 12C24 11.0784 23.8961 10.181 23.6994 9.31901H15.2822V0.454402Z" fill="#9E0B0F"/>
<path fill-rule="evenodd" clip-rule="evenodd" d="M2.1696 5.11621L22.8784 17.0724C22.5543 17.7663 22.1659 18.424 21.7206 19.0378L1.04297 7.09956C1.35613 6.40046 1.73423 5.73678 2.1696 5.11621Z" fill="#9E0B0F"/>
<path fill-rule="evenodd" clip-rule="evenodd" d="M23.1089 7.45385L2.51068 19.3462C2.04537 18.7461 1.63575 18.1006 1.28955 17.4175L22.0458 5.43384C22.4611 6.06801 22.8181 6.74389 23.1089 7.45385Z" fill="#9E0B0F"/>
<path fill-rule="evenodd" clip-rule="evenodd" d="M0.864785 7.51913L7.48227 7.51913V0.87976C8.06112 0.644355 8.6625 0.452834 9.28227 0.309326V9.31914L0.300781 9.31913C0.442192 8.6995 0.631564 8.09813 0.864785 7.51913ZM7.48227 23.1207V17.1191H1.14359C0.871378 16.5428 0.643704 15.9413 0.46501 15.3191H9.28227V23.6911C8.6625 23.5476 8.06112 23.3561 7.48227 23.1207ZM22.8567 17.1191H17.0823V22.8741C16.5058 23.144 15.9043 23.3694 15.2823 23.5459V15.3191H23.5353C23.3566 15.9413 23.1289 16.5428 22.8567 17.1191ZM17.0823 1.12639V7.51913L23.1355 7.51914C23.3687 8.09813 23.5581 8.6995 23.6995 9.31914H15.2823V0.454602C15.9043 0.63109 16.5058 0.856492 17.0823 1.12639Z" fill="white"/>
</svg>
