<svg width="32" height="32" viewBox="0 0 32 32" fill="none" xmlns="http://www.w3.org/2000/svg">
<path fill-rule="evenodd" clip-rule="evenodd" d="M21.078 20.9065L17.4314 17.4937L7.03003 28.4729C7.36782 28.577 7.76579 28.5201 8.28317 28.2886L21.078 20.9065ZM22.0996 20.3415L18.1952 16.6874L21.7182 12.9687L26.1054 15.4936C27.3849 16.23 27.3849 17.4265 26.1054 18.1629L22.0996 20.3415ZM20.7303 12.3967L17.3843 15.9285L6.21431 5.47451C6.26419 5.38867 6.32336 5.31118 6.39243 5.24162L6.39819 5.24164C6.85269 4.81065 7.48101 4.73425 8.28315 5.18305L20.7303 12.3967ZM6 6.79505V26.8129C6 27.1656 6.07453 27.4808 6.19979 27.7344L16.6205 16.7348L6 6.79505Z" fill="white"/>
</svg>
