<svg width="24" height="24" viewBox="0 0 24 24" fill="none" xmlns="http://www.w3.org/2000/svg">
<circle cx="12" cy="12" r="12" fill="#00AFCA"/>
<path d="M12.052 13.6514C14.0636 13.6514 15.6944 11.9989 15.6944 9.96045C15.6944 7.92201 14.0636 6.26953 12.052 6.26953C10.0404 6.26953 8.40967 7.92201 8.40967 9.96045C8.40967 11.9989 10.0404 13.6514 12.052 13.6514Z" fill="#FEC50C"/>
<path d="M12.0521 5.76642C12.2687 5.76368 12.3499 5.62653 12.3499 5.46195C12.3499 5.24252 12.0521 4.2002 12.0521 4.2002C12.0521 4.2002 11.7544 5.24252 11.7544 5.46195C11.7544 5.62653 11.8356 5.76642 12.0521 5.76642Z" fill="#FEC50C"/>
<path d="M16.1909 9.96017C16.1909 10.1796 16.329 10.2619 16.4914 10.2619C16.7079 10.2619 17.7365 9.96017 17.7365 9.96017C17.7365 9.96017 16.7079 9.65845 16.4914 9.65845C16.329 9.65845 16.1909 9.74074 16.1909 9.96017Z" fill="#FEC50C"/>
<path d="M12.0521 14.1543C11.8356 14.157 11.7544 14.2942 11.7544 14.4588C11.7544 14.6782 12.0521 15.7233 12.0521 15.7233C12.0521 15.7233 12.3499 14.6782 12.3499 14.4588C12.3499 14.2942 12.2687 14.1543 12.0521 14.1543Z" fill="#FEC50C"/>
<path d="M7.91307 9.96017C7.91036 9.74074 7.77502 9.65845 7.61261 9.65845C7.39606 9.65845 6.36475 9.96017 6.36475 9.96017C6.36475 9.96017 7.39606 10.2619 7.61261 10.2619C7.77502 10.2619 7.91307 10.1796 7.91307 9.96017Z" fill="#FEC50C"/>
<path d="M13.6355 6.08573C13.8369 6.16692 13.9636 6.07202 14.0258 5.92115C14.1086 5.71817 14.2283 4.63745 14.2283 4.63745C14.2283 4.63745 13.5586 5.48722 13.4752 5.6902C13.4135 5.84106 13.4357 6.0018 13.6355 6.08573Z" fill="#FEC50C"/>
<path d="M15.8758 11.5656C15.7951 11.7692 15.8893 11.8975 16.0382 11.9606C16.238 12.0445 17.305 12.1658 17.305 12.1658C17.305 12.1658 16.4659 11.4872 16.2661 11.4032C16.1172 11.3402 15.9586 11.3627 15.8758 11.5656Z" fill="#FEC50C"/>
<path d="M10.4692 13.8352C10.2684 13.754 10.1411 13.8489 10.0789 13.9998C9.99606 14.2027 9.87695 15.2835 9.87695 15.2835C9.87695 15.2835 10.5466 14.4337 10.6295 14.2307C10.6906 14.0798 10.6684 13.9191 10.4692 13.8352Z" fill="#FEC50C"/>
<path d="M8.22805 8.35528C8.30817 8.15176 8.21398 8.02339 8.06564 7.9603C7.86587 7.87636 6.79883 7.75513 6.79883 7.75513C6.79883 7.75513 7.63796 8.43373 7.83772 8.51767C7.98606 8.58076 8.14468 8.55826 8.22805 8.35528Z" fill="#FEC50C"/>
<path d="M14.9778 6.99457C15.1331 7.14762 15.2863 7.10922 15.4011 6.99457C15.5543 6.83932 16.0729 5.88696 16.0729 5.88696C16.0729 5.88696 15.1331 6.41251 14.9799 6.56776C14.8651 6.68242 14.8251 6.83932 14.9778 6.99457Z" fill="#FEC50C"/>
<path d="M14.9778 12.9262C14.8268 13.0831 14.8652 13.2384 14.9778 13.3547C15.131 13.51 16.0708 14.0355 16.0708 14.0355C16.0708 14.0355 15.5522 13.0831 15.399 12.9279C15.2869 12.8132 15.131 12.771 14.9778 12.9262Z" fill="#FEC50C"/>
<path d="M9.12498 12.9261C8.96961 12.773 8.81694 12.8114 8.70163 12.9261C8.54896 13.0813 8.02979 14.0337 8.02979 14.0337C8.02979 14.0337 8.96961 13.5082 9.12282 13.3529C9.23759 13.2382 9.27765 13.0813 9.12498 12.9261Z" fill="#FEC50C"/>
<path d="M9.12423 6.99475C9.27527 6.83785 9.23683 6.6826 9.12423 6.5663C8.96885 6.41105 8.03174 5.8855 8.03174 5.8855C8.03174 5.8855 8.55091 6.83785 8.70358 6.9931C8.81619 7.10776 8.97102 7.15 9.12423 6.99475Z" fill="#FEC50C"/>
<path d="M15.8757 8.35504C15.9607 8.55692 16.1172 8.58051 16.2671 8.51962C16.4669 8.43569 17.306 7.75708 17.306 7.75708C17.306 7.75708 16.239 7.87832 16.0392 7.96225C15.8892 8.02315 15.7929 8.15261 15.8757 8.35504Z" fill="#FEC50C"/>
<path d="M13.635 13.8351C13.4363 13.9218 13.413 14.0798 13.4726 14.2317C13.556 14.4347 14.2256 15.2845 14.2256 15.2845C14.2256 15.2845 14.106 14.2037 14.0232 14.0008C13.9631 13.8488 13.8353 13.7512 13.635 13.8351Z" fill="#FEC50C"/>
<path d="M8.22772 11.5656C8.14219 11.3638 7.98573 11.3402 7.83577 11.4011C7.636 11.485 6.79688 12.1636 6.79688 12.1636C6.79688 12.1636 7.86392 12.0424 8.06369 11.9584C8.21365 11.8975 8.31055 11.7708 8.22772 11.5656Z" fill="#FEC50C"/>
<path d="M10.4686 6.08555C10.6678 5.99887 10.6911 5.84088 10.631 5.68892C10.5449 5.48594 9.87305 4.63892 9.87305 4.63892C9.87305 4.63892 9.99215 5.71964 10.075 5.92262C10.1394 6.07183 10.2672 6.16948 10.4686 6.08555Z" fill="#FEC50C"/>
<path d="M12.8591 5.84592C13.0718 5.88597 13.1779 5.76748 13.2099 5.60619C13.2521 5.39114 13.1612 4.30713 13.1612 4.30713C13.1612 4.30713 12.668 5.2732 12.6258 5.48824C12.5938 5.65063 12.6469 5.80423 12.8591 5.84592Z" fill="#FEC50C"/>
<path d="M16.1113 10.7782C16.0717 10.9944 16.1887 11.1019 16.3478 11.1337C16.5601 11.1765 17.6298 11.0843 17.6298 11.0843C17.6298 11.0843 16.6764 10.5846 16.4637 10.5418C16.3045 10.5089 16.1535 10.5637 16.1113 10.7782Z" fill="#FEC50C"/>
<path d="M11.2438 14.0745C11.0311 14.0344 10.925 14.1529 10.893 14.3142C10.8508 14.5293 10.9417 15.6133 10.9417 15.6133C10.9417 15.6133 11.4349 14.6472 11.4772 14.4322C11.5091 14.2698 11.456 14.1162 11.2438 14.0745Z" fill="#FEC50C"/>
<path d="M7.99218 9.14221C8.03224 8.92607 7.91531 8.81854 7.7556 8.78672C7.54339 8.74393 6.47363 8.8361 6.47363 8.8361C6.47363 8.8361 7.42753 9.33586 7.63975 9.37865C7.79891 9.41157 7.94996 9.35671 7.99218 9.14221Z" fill="#FEC50C"/>
<path d="M14.3507 6.473C14.532 6.5926 14.6755 6.52457 14.7654 6.38797C14.8855 6.20529 15.2109 5.16846 15.2109 5.16846C15.2109 5.16846 14.3902 5.8701 14.27 6.05224C14.1796 6.18938 14.1704 6.35122 14.3507 6.473Z" fill="#FEC50C"/>
<path d="M15.4919 12.2902C15.3739 12.4745 15.4416 12.6194 15.5764 12.7104C15.7567 12.8322 16.7793 13.1619 16.7793 13.1619C16.7793 13.1619 16.0875 12.3308 15.9072 12.2096C15.7735 12.1174 15.6111 12.1081 15.4919 12.2902Z" fill="#FEC50C"/>
<path d="M9.75184 13.4478C9.57048 13.3282 9.42702 13.3962 9.33769 13.5328C9.21697 13.7155 8.8916 14.7523 8.8916 14.7523C8.8916 14.7523 9.71232 14.0507 9.83251 13.8685C9.92291 13.7314 9.93212 13.5695 9.75184 13.4478Z" fill="#FEC50C"/>
<path d="M8.61014 7.6305C8.72815 7.44617 8.66102 7.30134 8.52568 7.21028C8.34594 7.08849 7.32275 6.75879 7.32275 6.75879C7.32275 6.75879 8.01463 7.5899 8.1949 7.71114C8.3297 7.8033 8.48995 7.81263 8.61014 7.6305Z" fill="#FEC50C"/>
<path d="M15.4929 7.6305C15.6158 7.81099 15.7733 7.80331 15.9081 7.71224C16.0884 7.5899 16.7803 6.75879 16.7803 6.75879C16.7803 6.75879 15.7576 7.08794 15.5774 7.21028C15.4426 7.30189 15.3727 7.44782 15.4929 7.6305Z" fill="#FEC50C"/>
<path d="M14.3511 13.4475C14.1725 13.5715 14.1801 13.7311 14.2705 13.8683C14.3907 14.0504 15.2114 14.7521 15.2114 14.7521C15.2114 14.7521 14.8865 13.7152 14.7658 13.5325C14.6754 13.3959 14.5292 13.3252 14.3511 13.4475Z" fill="#FEC50C"/>
<path d="M8.61014 12.2901C8.48779 12.1097 8.32971 12.1173 8.1949 12.2084C8.01463 12.3307 7.32275 13.1618 7.32275 13.1618C7.32275 13.1618 8.34595 12.8327 8.52568 12.7104C8.66103 12.6187 8.73032 12.4728 8.61014 12.2901Z" fill="#FEC50C"/>
<path d="M9.75184 6.473C9.93049 6.34902 9.92291 6.18938 9.83251 6.05224C9.71232 5.8701 8.8916 5.16846 8.8916 5.16846C8.8916 5.16846 9.21642 6.20529 9.33769 6.38797C9.42756 6.52457 9.57211 6.59534 9.75184 6.473Z" fill="#FEC50C"/>
<path d="M16.1106 9.14221C16.1555 9.35671 16.3039 9.41047 16.463 9.37865C16.6758 9.33586 17.6292 8.8361 17.6292 8.8361C17.6292 8.8361 16.5594 8.74393 16.3472 8.78672C16.188 8.81854 16.0684 8.92661 16.1106 9.14221Z" fill="#FEC50C"/>
<path d="M12.859 14.0745C12.6474 14.12 12.5938 14.2709 12.6257 14.4322C12.6679 14.6472 13.1611 15.6133 13.1611 15.6133C13.1611 15.6133 13.2521 14.5293 13.2098 14.3142C13.1757 14.1518 13.0713 14.0306 12.859 14.0745Z" fill="#FEC50C"/>
<path d="M7.99218 10.7781C7.94779 10.5636 7.79891 10.5098 7.63975 10.5416C7.42753 10.5844 6.47363 11.0842 6.47363 11.0842C6.47363 11.0842 7.54339 11.1764 7.7556 11.1336C7.91531 11.1018 8.03279 10.9937 7.99218 10.7781Z" fill="#FEC50C"/>
<path d="M11.2438 5.84592C11.4555 5.80039 11.5091 5.64953 11.4772 5.48824C11.4349 5.2732 10.9417 4.30713 10.9417 4.30713C10.9417 4.30713 10.8508 5.39114 10.893 5.60619C10.925 5.76857 11.0316 5.88981 11.2438 5.84592Z" fill="#FEC50C"/>
<path d="M11.4016 17.9549C11.305 17.9587 11.2093 17.9751 11.1168 18.0037C10.9896 18.0207 10.8678 18.0657 10.7411 18.0866L10.6908 18.0948L10.6058 18.103C10.6115 18.1264 10.6146 18.1503 10.615 18.1743C10.6155 18.1975 10.6123 18.2207 10.6058 18.2429C10.5976 18.2634 10.5855 18.2821 10.57 18.2978C10.5534 18.3177 10.5332 18.3342 10.5105 18.3466C10.4884 18.3569 10.4645 18.3627 10.4401 18.3636C10.4154 18.3656 10.3906 18.3626 10.367 18.3548C10.342 18.3453 10.319 18.331 10.2994 18.3126C10.2744 18.3189 10.2491 18.3235 10.2236 18.3263C10.1998 18.329 10.1759 18.329 10.1521 18.3263C10.1263 18.3193 10.101 18.3107 10.0763 18.3005C10.0517 18.2905 10.0281 18.278 10.0059 18.2632C9.91391 18.3181 9.81104 18.3729 9.75528 18.4662C9.72813 18.5103 9.71249 18.5607 9.70981 18.6127C9.70713 18.6786 9.72052 18.7441 9.74879 18.8036C9.75853 18.8211 9.76665 18.7405 9.79751 18.7295C9.85059 18.6865 9.91201 18.6553 9.97779 18.6379C10.0319 18.6099 10.026 18.6379 10.0032 18.684C9.99782 18.7065 9.96696 18.7937 10.0086 18.7498C10.1916 18.6675 10.3946 18.6511 10.5922 18.6351C10.8792 18.605 11.1672 18.5989 11.4552 18.5951C11.7259 18.5989 11.9966 18.6022 12.2673 18.6127C12.3961 18.6159 12.526 18.6456 12.6532 18.6236C12.6841 18.6154 12.7318 18.6132 12.7496 18.5951C12.69 18.5679 12.6255 18.5534 12.5601 18.5523H12.0442C11.9007 18.5375 11.7508 18.5358 11.6154 18.481C11.5797 18.4662 11.5461 18.4316 11.512 18.4689C11.4597 18.4879 11.4051 18.4995 11.3496 18.5035C11.2548 18.5092 11.1599 18.4927 11.0724 18.4552C11.1358 18.3663 11.2116 18.2906 11.2809 18.2067C11.2267 18.1974 11.1726 18.1853 11.1152 18.1716C11.2132 18.103 11.3047 18.0257 11.4 17.9521L11.4016 17.9549Z" fill="#FEC50C"/>
<path d="M15.6175 18.9023C15.4215 19.0214 15.2715 18.8096 15.1075 18.7465C14.9906 18.8107 14.9797 19.0263 14.8704 19.1305C14.7394 19.2814 14.5791 19.0883 14.591 18.9396C14.4346 19.0735 14.3555 19.3785 14.1038 19.3357C13.9842 19.237 13.8948 19.0285 13.8033 19.2655C13.7286 19.3813 13.5294 19.5464 13.4244 19.3714C13.3924 19.2167 13.3161 19.0351 13.2333 19.2803C13.1764 19.4542 12.9934 19.5815 12.817 19.5058C12.7201 19.4257 12.8944 19.1289 12.7715 19.1503C12.5874 19.2737 12.4802 19.5798 12.2236 19.5552C12.1235 19.4416 12.2837 19.2496 12.1744 19.1234C12.0455 19.2918 11.9037 19.5376 11.679 19.5552C11.5707 19.4668 11.6828 19.2123 11.614 19.1744C11.385 19.3138 11.143 19.5623 10.8561 19.4844C10.9682 19.0494 11.4375 18.8963 11.8306 18.8623C12.51 18.7778 13.2241 18.9331 13.8775 18.6851C13.9831 18.6198 14.2391 18.5276 14.1482 18.3768C14.0675 18.2572 14.3577 18.3038 14.3859 18.1645C14.3685 17.9884 14.519 18.0125 14.6663 17.9999C15.3262 17.9708 15.978 18.1096 16.6358 18.136C16.6856 18.4607 16.3299 18.6884 16.0435 18.5885C15.9071 18.611 15.7019 18.2698 15.742 18.5178C15.7144 18.6483 15.7339 18.82 15.6164 18.9073L15.6175 18.9023ZM10.0034 18.2374C10.1561 18.379 10.2633 18.2111 10.4062 18.1491C10.8848 17.9845 11.3027 17.6905 11.7147 17.3992C11.9643 17.1902 12.1808 16.9186 12.516 16.8506C13.1699 16.6504 13.8651 16.6745 14.519 16.4896C15.0187 15.7962 15.8676 15.5488 16.5762 15.1505C16.7387 15.1001 16.7977 14.9667 16.8469 14.8214C17.1181 14.3805 17.4875 14.0102 17.9253 13.7401C18.1322 13.6254 18.379 13.5591 18.6134 13.6117C18.5967 13.8942 18.4364 14.145 18.2431 14.3403C18.4018 14.337 18.5376 14.2355 18.6973 14.2415C18.7515 14.5317 18.4429 14.6837 18.2783 14.8642C18.3698 14.8856 18.7212 14.9124 18.5295 15.0057C18.2859 15.1769 18.0076 15.2948 17.7824 15.4939C17.9903 15.5318 18.0136 15.5762 17.8025 15.6525C17.6882 15.7309 17.4684 15.7584 17.4473 15.9114C17.6043 16.0091 17.3753 16.1062 17.2849 16.1374C17.116 16.1775 16.9384 16.2521 17.1631 16.3821C17.0781 16.5121 16.8962 16.5396 16.7473 16.5269C16.7928 16.674 16.8556 16.8391 16.6694 16.9038C16.246 17.228 15.749 17.4634 15.2185 17.5177C15.8822 17.5693 16.5665 17.4442 17.1339 17.0788C17.2091 16.9888 17.6016 16.8928 17.3818 16.8171C17.2784 16.7733 17.057 16.725 17.0418 16.6449C17.3493 16.4529 17.7364 16.5214 18.0672 16.4073C18.0758 16.2976 17.8154 16.3289 17.7185 16.3042C17.4874 16.285 17.502 16.2252 17.724 16.2027C18.006 16.127 18.3254 16.1122 18.5631 15.9284C18.3698 15.8374 18.1267 15.9175 17.9205 15.8434C18.2702 15.6881 18.6822 15.6728 18.9956 15.4402C19.1386 15.2789 18.8127 15.3305 18.7179 15.3332C18.5241 15.3672 18.4348 15.2734 18.6546 15.1917C19.0303 14.9113 19.5056 14.7292 19.7693 14.3227C19.8321 14.2316 19.9165 13.9573 19.7151 14.0555C19.4531 14.1439 19.2225 14.4428 18.9236 14.3501C19.5121 13.8882 20.0719 13.3627 20.4741 12.723C20.4947 12.5387 20.2089 12.5184 20.1347 12.6632C19.7557 13.0324 19.4147 13.468 18.9307 13.6995C19.3941 13.2458 19.7774 12.7093 20.112 12.153C20.1834 11.9884 20.3761 11.7888 20.2744 11.6044C20.1055 11.4629 19.8954 11.5924 19.8072 11.7613C19.5137 12.1503 19.2901 12.604 18.9128 12.9205C19.2436 12.2808 19.5857 11.6 19.5944 10.8622C19.5944 10.7102 19.563 10.4864 19.3594 10.5149C19.197 10.544 19.2366 10.7892 19.17 10.9127C19.0232 11.4168 18.9534 11.9627 18.654 12.4037C18.7217 11.9945 18.8403 11.5671 18.7493 11.1535C18.7071 10.9686 18.412 11.0482 18.4505 11.2314C18.098 13.0379 16.9022 14.6178 15.3376 15.5318C14.6174 15.9381 13.8296 16.2066 13.0135 16.324C12.7969 16.3722 12.5576 16.3443 12.3487 16.4194C11.8414 16.8138 11.5366 17.4733 10.8924 17.6812C10.6044 17.826 10.2292 17.8556 10.0235 18.1266C10.0073 18.1619 10.0001 18.2008 10.0024 18.2396" fill="#FEC50C"/>
<path d="M11.9251 16.4049C11.8303 16.5788 11.7746 16.7791 11.6544 16.9354C11.2879 16.5975 10.7562 16.6063 10.2917 16.586C9.90791 16.5651 9.49052 16.5311 9.19384 16.2519C8.88147 15.9929 8.62649 15.6561 8.2773 15.446C7.95843 15.3582 7.6374 15.2479 7.38133 15.0269C6.834 14.5748 6.52055 13.9039 5.98567 13.436C5.87978 13.3394 5.76745 13.2503 5.64948 13.1693C5.54121 13.1962 5.58993 13.4338 5.45729 13.3125C5.38475 13.2604 5.20393 13.2577 5.18661 13.3284C5.34902 13.5479 5.51414 13.7958 5.53633 14.0751C5.42481 14.0866 5.22667 14.0515 5.17145 14.0932C5.32034 14.3197 5.50767 14.5177 5.72473 14.678C5.62133 14.695 5.41723 14.6856 5.37771 14.7279C5.59426 14.9051 5.82109 15.0856 6.10153 15.1311C6.15891 15.2079 6.01761 15.3555 6.13672 15.4213C6.20547 15.4498 6.43285 15.4976 6.27639 15.5766C6.25192 15.5912 6.23297 15.6137 6.22254 15.6405C6.21211 15.6673 6.2108 15.6969 6.21881 15.7245C6.22683 15.7521 6.24371 15.7763 6.26679 15.7931C6.28987 15.8099 6.31782 15.8185 6.34623 15.8174C6.43285 15.8624 6.62774 15.8722 6.64344 15.9512C6.56602 16.0308 6.32674 16.1246 6.53083 16.1992C6.72218 16.3093 6.93634 16.3725 7.15612 16.3835C7.04784 16.4768 6.9125 16.5295 6.7999 16.6167C7.30175 16.9151 7.85882 17.1104 8.40885 17.3002C8.62682 17.3782 8.84986 17.4407 9.07637 17.4873C8.41643 17.4489 7.77707 17.2509 7.17832 16.9798C6.86703 16.8416 6.55357 16.7056 6.23416 16.5887C6.37438 16.5146 6.53625 16.4971 6.68134 16.4329C6.37979 16.372 6.05064 16.3517 5.78591 16.1838C5.82651 16.1109 5.98026 16.107 6.0658 16.0697C6.2255 16.0308 6.32457 15.9836 6.09936 15.9699C5.87144 15.9074 5.61213 15.9353 5.41019 15.796C5.42319 15.7126 5.63324 15.7411 5.71823 15.706C5.82651 15.6874 5.94561 15.6715 6.03169 15.5963C5.6798 15.4487 5.21963 15.5535 4.94461 15.2386C4.88073 15.1185 5.14167 15.215 5.2153 15.1953C5.40424 15.1953 5.60725 15.2562 5.78699 15.1788C5.27431 14.9512 4.72536 14.7372 4.33449 14.3159C4.29118 14.2479 4.16125 14.0624 4.26573 14.0416C4.56998 14.0822 4.79032 14.4185 5.11569 14.3664C5.159 14.3071 4.92675 14.2106 4.86882 14.1261C4.39404 13.7135 3.93387 13.2659 3.60147 12.7255C3.57819 12.545 3.85808 12.5176 3.93225 12.657C4.29497 13.0113 4.6225 13.425 5.07454 13.6664C5.23695 13.7454 4.98251 13.5731 4.94894 13.5106C4.53155 13.0168 4.13364 12.5006 3.84184 11.9197C3.7877 11.8154 3.70325 11.6262 3.85916 11.5707C4.01562 11.4917 4.17099 11.5998 4.25003 11.7353C4.55699 12.1276 4.78274 12.5939 5.16549 12.9208C4.84067 12.2801 4.49148 11.6042 4.48336 10.868C4.49094 10.7254 4.50015 10.5092 4.69125 10.5147C4.85366 10.49 4.82659 10.6985 4.87911 10.7978C5.03719 11.3398 5.10648 11.9257 5.42373 12.4041C5.35389 12.0025 5.25049 11.5883 5.31924 11.1802C5.33494 11.0457 5.48165 11.0051 5.58127 11.0863C5.65977 11.2816 5.67601 11.5225 5.74747 11.7309C6.15512 13.1441 7.07058 14.3867 8.26377 15.2211C9.25245 15.9068 10.406 16.3081 11.6019 16.3824C11.7101 16.3918 11.8184 16.3951 11.9267 16.4016" fill="#FEC50C"/>
<path d="M10.415 18.279C10.4506 18.279 10.4794 18.2498 10.4794 18.2137C10.4794 18.1777 10.4506 18.1484 10.415 18.1484C10.3794 18.1484 10.3506 18.1777 10.3506 18.2137C10.3506 18.2498 10.3794 18.279 10.415 18.279Z" fill="#FEC50C"/>
<path d="M10.409 18.2294C10.4235 18.2294 10.4352 18.2175 10.4352 18.2028C10.4352 18.1882 10.4235 18.1763 10.409 18.1763C10.3945 18.1763 10.3828 18.1882 10.3828 18.2028C10.3828 18.2175 10.3945 18.2294 10.409 18.2294Z" fill="#FEC50C" stroke="#00AFCA" stroke-width="0.185226"/>
</svg>
