<svg width="52" height="29" viewBox="0 0 52 29" fill="none" xmlns="http://www.w3.org/2000/svg">
<path d="M9.96668 7.10787L9.71178 25.6118C9.71178 26.021 9.40589 26.3151 8.9853 26.3151H6.76765C6.25785 26.3151 5.79903 25.8548 5.79903 25.3433L6.04118 7.09508H1.4402C0.675489 7.09508 0 6.41733 0 5.66285L0.012742 4.40965C0.012742 3.82141 0.458822 3.39941 1.0451 3.39941H15.0392C15.5618 3.39941 16.0461 3.87256 16.0333 4.39686L16.0079 6.25109C16.0079 6.74981 15.6383 7.10787 15.1412 7.10787H9.96668Z" fill="#5FAF61"/>
<path d="M9.96668 7.10787L9.71178 25.6118C9.71178 26.021 9.40589 26.3151 8.9853 26.3151H6.76765C6.25785 26.3151 5.79903 25.8548 5.79903 25.3433L6.04118 7.09508H1.4402C0.675489 7.09508 0 6.41733 0 5.66285L0.012742 4.40965C0.012742 3.82141 0.458822 3.39941 1.0451 3.39941H15.0392C15.5618 3.39941 16.0461 3.87256 16.0333 4.39686L16.0079 6.25109C16.0079 6.74981 15.6383 7.10787 15.1412 7.10787H9.96668Z" fill="url(#paint0_linear)"/>
<path d="M18.0216 25.0875L18.2638 4.39686C18.2765 3.82141 18.7098 3.39941 19.2834 3.39941H30.754C31.2638 3.39941 31.7099 3.85977 31.7099 4.3585L31.6844 6.41733C31.6844 6.81375 31.3785 7.12066 30.9706 7.12066H22.75C22.4059 7.12066 22.1383 7.37642 22.1383 7.72169L22.0746 12.8752H28.753C29.1481 12.8752 29.505 13.2332 29.505 13.6169L29.4795 16.0337C29.4795 16.3534 29.2373 16.5836 28.9187 16.5836H22.0236L21.9598 22.0056C21.9598 22.3253 22.253 22.6195 22.5716 22.6195H31.0344C31.5569 22.6195 32.0285 23.0926 32.0285 23.6169L32.003 25.6118C32.003 26.021 31.6844 26.3279 31.2638 26.3279H19.2579C18.6079 26.3279 18.0216 25.7397 18.0216 25.0875Z" fill="#5FAF61"/>
<path d="M18.0216 25.0875L18.2638 4.39686C18.2765 3.82141 18.7098 3.39941 19.2834 3.39941H30.754C31.2638 3.39941 31.7099 3.85977 31.7099 4.3585L31.6844 6.41733C31.6844 6.81375 31.3785 7.12066 30.9706 7.12066H22.75C22.4059 7.12066 22.1383 7.37642 22.1383 7.72169L22.0746 12.8752H28.753C29.1481 12.8752 29.505 13.2332 29.505 13.6169L29.4795 16.0337C29.4795 16.3534 29.2373 16.5836 28.9187 16.5836H22.0236L21.9598 22.0056C21.9598 22.3253 22.253 22.6195 22.5716 22.6195H31.0344C31.5569 22.6195 32.0285 23.0926 32.0285 23.6169L32.003 25.6118C32.003 26.021 31.6844 26.3279 31.2638 26.3279H19.2579C18.6079 26.3279 18.0216 25.7397 18.0216 25.0875Z" fill="url(#paint1_linear)"/>
<path d="M45.8698 21.085L45.857 23.3484H38.261C38.7453 18.6553 43.41 17.0312 43.6012 16.9289L42.0208 14.1284C41.7404 14.2691 34.5904 17.1847 35.1257 24.9085C35.1894 25.7525 35.9541 26.4686 36.7953 26.4686H45.9972L46.0355 28.7704L52.0002 24.8702L45.8698 21.085Z" fill="#5FAF61"/>
<path d="M45.8698 21.085L45.857 23.3484H38.261C38.7453 18.6553 43.41 17.0312 43.6012 16.9289L42.0208 14.1284C41.7404 14.2691 34.5904 17.1847 35.1257 24.9085C35.1894 25.7525 35.9541 26.4686 36.7953 26.4686H45.9972L46.0355 28.7704L52.0002 24.8702L45.8698 21.085Z" fill="url(#paint2_linear)"/>
<path d="M41.1922 8.6045L41.2049 6.34106H48.801C48.3167 11.0342 44.0089 13.1058 43.8177 13.2081L45.4108 15.9958C45.6912 15.8552 52.4844 12.492 51.9491 4.76816C51.8853 3.92417 51.1206 3.20805 50.2795 3.20805H41.0775L41.0392 0.90625L35.0873 4.80653L41.1922 8.6045Z" fill="#5FAF61"/>
<path d="M41.1922 8.6045L41.2049 6.34106H48.801C48.3167 11.0342 44.0089 13.1058 43.8177 13.2081L45.4108 15.9958C45.6912 15.8552 52.4844 12.492 51.9491 4.76816C51.8853 3.92417 51.1206 3.20805 50.2795 3.20805H41.0775L41.0392 0.90625L35.0873 4.80653L41.1922 8.6045Z" fill="url(#paint3_linear)"/>
<defs>
<linearGradient id="paint0_linear" x1="38.3659" y1="4.40554" x2="29.1395" y2="-2.43829" gradientUnits="userSpaceOnUse">
<stop stop-color="#16D691"/>
<stop offset="1" stop-color="#71BCFF"/>
</linearGradient>
<linearGradient id="paint1_linear" x1="39" y1="0.58792" x2="30.0714" y2="-3.42907" gradientUnits="userSpaceOnUse">
<stop stop-color="#16D691"/>
<stop offset="1" stop-color="#71BCFF"/>
</linearGradient>
<linearGradient id="paint2_linear" x1="52.9514" y1="14.2678" x2="32.102" y2="3.88843" gradientUnits="userSpaceOnUse">
<stop stop-color="#16D691"/>
<stop offset="1" stop-color="#71BCFF"/>
</linearGradient>
<linearGradient id="paint3_linear" x1="54.5366" y1="-5.1383" x2="39.2392" y2="-10.6198" gradientUnits="userSpaceOnUse">
<stop stop-color="#16D691"/>
<stop offset="1" stop-color="#71BCFF"/>
</linearGradient>
</defs>
</svg>
