<svg width="33" height="32" viewBox="0 0 33 32" fill="none" xmlns="http://www.w3.org/2000/svg">
<path d="M12.7014 32C8.43048 32 6.29504 32 4.66379 31.1688C3.22889 30.4377 2.06228 29.2711 1.33117 27.8362C0.5 26.205 0.5 24.0695 0.5 19.7986V12.2014C0.5 7.93048 0.5 5.79504 1.33117 4.16379C2.06228 2.72889 3.22889 1.56228 4.66379 0.831168C6.29504 0 8.43048 0 12.7014 0H20.2986C24.5695 0 26.705 0 28.3362 0.831168C29.7711 1.56228 30.9377 2.72889 31.6688 4.16379C32.5 5.79504 32.5 7.93048 32.5 12.2014V19.7986C32.5 24.0695 32.5 26.205 31.6688 27.8362C30.9377 29.2711 29.7711 30.4377 28.3362 31.1688C26.705 32 24.5695 32 20.2986 32H12.7014Z" fill="#243860"/>
<path d="M18.3217 21.5408L18.3034 23.3267H12.2713C12.654 19.609 16.3535 18.3333 16.5175 18.2422L15.26 16.0371C15.0413 16.1465 9.35541 18.4609 9.79279 24.566C9.84746 25.2403 10.4489 25.8052 11.1231 25.8052H18.431L18.4675 27.6276L23.2057 24.5478L18.3217 21.5408Z" fill="url(#paint0_linear)"/>
<path d="M14.6221 11.6635L14.6403 9.87755H20.6725C20.2716 13.577 16.8454 15.2172 16.6996 15.3083L17.9571 17.5317C18.1758 17.4223 23.5701 14.7616 23.151 8.63831C23.0963 7.96402 22.4949 7.39907 21.8206 7.39907H14.5128L14.4763 5.57666L9.73804 8.65653L14.6221 11.6635Z" fill="url(#paint1_linear)"/>
<defs>
<linearGradient id="paint0_linear" x1="12.2896" y1="30.6192" x2="22.3623" y2="14.9248" gradientUnits="userSpaceOnUse">
<stop stop-color="#71BCFF"/>
<stop offset="0.2032" stop-color="#71BCFC"/>
<stop offset="0.3624" stop-color="#6FBBF2"/>
<stop offset="0.5066" stop-color="#6DBAE1"/>
<stop offset="0.6419" stop-color="#6BB8CA"/>
<stop offset="0.7711" stop-color="#67B5AC"/>
<stop offset="0.8939" stop-color="#63B287"/>
<stop offset="1" stop-color="#5EAF61"/>
</linearGradient>
<linearGradient id="paint1_linear" x1="12.8284" y1="24.1" x2="19.5375" y2="6.10837" gradientUnits="userSpaceOnUse">
<stop stop-color="#71BCFF"/>
<stop offset="1" stop-color="#62CF81"/>
</linearGradient>
</defs>
</svg>
