<svg width="14" height="20" viewBox="0 0 14 20" fill="none" xmlns="http://www.w3.org/2000/svg">
<path d="M0.696096 5.6195C0.730471 3.99527 1.29766 2.69332 2.39766 1.71363C3.49767 0.725343 5.01876 0.231201 6.96096 0.231201C8.79143 0.231201 10.2696 0.695265 11.3953 1.62339C12.5211 2.54293 13.084 3.74176 13.084 5.21989C13.084 6.17379 12.8563 7.00739 12.4008 7.72067C11.9453 8.42536 11.2535 9.04841 10.3254 9.58982C9.46604 10.0883 8.88596 10.5351 8.58518 10.9304C8.2844 11.3258 8.13401 11.8414 8.13401 12.4773V13.1605H4.71798L4.6922 12.4129C4.60626 11.416 4.74376 10.5953 5.1047 9.95076C5.47423 9.30622 6.11017 8.71755 7.01252 8.18474C7.84611 7.6863 8.4133 7.23942 8.71409 6.84411C9.02346 6.4488 9.17815 5.94606 9.17815 5.3359C9.17815 4.71715 8.95041 4.21012 8.49494 3.8148C8.04807 3.41949 7.45939 3.22183 6.72892 3.22183C5.98986 3.22183 5.39259 3.44098 4.93712 3.87926C4.48165 4.30895 4.23243 4.88903 4.18946 5.6195H0.696096ZM7.96643 18.7422C7.55393 19.1289 7.05549 19.3223 6.47111 19.3223C5.88673 19.3223 5.3883 19.1289 4.97579 18.7422C4.57189 18.3469 4.36993 17.8656 4.36993 17.2984C4.36993 16.7312 4.57189 16.2543 4.97579 15.8676C5.3883 15.4723 5.88673 15.2746 6.47111 15.2746C7.05549 15.2746 7.55393 15.4723 7.96643 15.8676C8.37893 16.2543 8.58518 16.7312 8.58518 17.2984C8.58518 17.8656 8.37893 18.3469 7.96643 18.7422Z" fill="#5FAF61"/>
<path d="M0.696096 5.6195C0.730471 3.99527 1.29766 2.69332 2.39766 1.71363C3.49767 0.725343 5.01876 0.231201 6.96096 0.231201C8.79143 0.231201 10.2696 0.695265 11.3953 1.62339C12.5211 2.54293 13.084 3.74176 13.084 5.21989C13.084 6.17379 12.8563 7.00739 12.4008 7.72067C11.9453 8.42536 11.2535 9.04841 10.3254 9.58982C9.46604 10.0883 8.88596 10.5351 8.58518 10.9304C8.2844 11.3258 8.13401 11.8414 8.13401 12.4773V13.1605H4.71798L4.6922 12.4129C4.60626 11.416 4.74376 10.5953 5.1047 9.95076C5.47423 9.30622 6.11017 8.71755 7.01252 8.18474C7.84611 7.6863 8.4133 7.23942 8.71409 6.84411C9.02346 6.4488 9.17815 5.94606 9.17815 5.3359C9.17815 4.71715 8.95041 4.21012 8.49494 3.8148C8.04807 3.41949 7.45939 3.22183 6.72892 3.22183C5.98986 3.22183 5.39259 3.44098 4.93712 3.87926C4.48165 4.30895 4.23243 4.88903 4.18946 5.6195H0.696096ZM7.96643 18.7422C7.55393 19.1289 7.05549 19.3223 6.47111 19.3223C5.88673 19.3223 5.3883 19.1289 4.97579 18.7422C4.57189 18.3469 4.36993 17.8656 4.36993 17.2984C4.36993 16.7312 4.57189 16.2543 4.97579 15.8676C5.3883 15.4723 5.88673 15.2746 6.47111 15.2746C7.05549 15.2746 7.55393 15.4723 7.96643 15.8676C8.37893 16.2543 8.58518 16.7312 8.58518 17.2984C8.58518 17.8656 8.37893 18.3469 7.96643 18.7422Z" fill="#0B1323"/>
</svg>
