<svg width="24" height="24" viewBox="0 0 24 24" fill="none" xmlns="http://www.w3.org/2000/svg">
<path fill-rule="evenodd" clip-rule="evenodd" d="M23.2442 16.2002C21.5416 20.7561 17.1495 24 11.9998 24C6.85001 24 2.45791 20.7561 0.755371 16.2002H23.2442Z" fill="#1DB63A"/>
<path fill-rule="evenodd" clip-rule="evenodd" d="M23.2445 16.2C23.7329 14.8928 24 13.4776 24 12C24 10.5224 23.733 9.10724 23.2445 7.80005H0.755511C0.267048 9.10724 0 10.5224 0 12C0 13.4776 0.267061 14.8928 0.755547 16.2H23.2445Z" fill="white"/>
<path fill-rule="evenodd" clip-rule="evenodd" d="M23.2443 7.8H0.755371C2.45785 3.244 6.85001 0 11.9998 0C17.1497 0 21.5418 3.244 23.2443 7.8Z" fill="#0099B5"/>
<path d="M1.6084 17.9985H22.3949L22.0288 18.5985H1.97498L1.6084 17.9985Z" fill="#CD0E24"/>
<path d="M0.766113 16.2002H23.2409C23.2409 16.2002 23.0586 16.6844 22.8621 17.117C22.6655 17.5497 22.4072 17.9986 22.4072 17.9986H1.5871C1.5871 17.9986 1.34195 17.5857 1.12697 17.093C0.911985 16.6002 0.766113 16.2002 0.766113 16.2002Z" fill="white"/>
<path d="M0.236914 9.60013L23.7702 9.6001L23.8656 10.2001H0.133789L0.236914 9.60013Z" fill="#CD0E24"/>
<path d="M0.755971 7.80005L23.2549 7.80005C23.2549 7.80005 23.3999 8.17247 23.5448 8.71113C23.6898 9.24979 23.7623 9.60005 23.7623 9.60005H0.243164C0.243164 9.60005 0.324612 9.12886 0.464376 8.67297C0.60414 8.21708 0.755971 7.80005 0.755971 7.80005Z" fill="#0099B5"/>
<path d="M9.8368 6.96631L9.99486 7.45276H10.5063L10.0925 7.7534L10.2506 8.23984L9.8368 7.9392L9.42301 8.23984L9.58106 7.7534L9.16727 7.45276H9.67875L9.8368 6.96631Z" fill="white"/>
<path d="M11.9486 6.96631L12.1067 7.45276H12.6182L12.2044 7.7534L12.3624 8.23984L11.9486 7.9392L11.5348 8.23984L11.6929 7.7534L11.2791 7.45276H11.7906L11.9486 6.96631Z" fill="white"/>
<path d="M11.9486 4.85425L12.1067 5.34069H12.6182L12.2044 5.64133L12.3624 6.12778L11.9486 5.82714L11.5348 6.12778L11.6929 5.64133L11.2791 5.34069H11.7906L11.9486 4.85425Z" fill="white"/>
<path d="M14.0604 6.96631L14.2185 7.45276H14.73L14.3162 7.7534L14.4742 8.23984L14.0604 7.9392L13.6466 8.23984L13.8047 7.7534L13.3909 7.45276H13.9024L14.0604 6.96631Z" fill="white"/>
<path d="M14.0604 4.85425L14.2185 5.34069H14.73L14.3162 5.64133L14.4742 6.12778L14.0604 5.82714L13.6466 6.12778L13.8047 5.64133L13.3909 5.34069H13.9024L14.0604 4.85425Z" fill="white"/>
<path d="M14.0604 2.74219L14.2185 3.22863H14.73L14.3162 3.52927L14.4742 4.01572L14.0604 3.71508L13.6466 4.01572L13.8047 3.52927L13.3909 3.22863H13.9024L14.0604 2.74219Z" fill="white"/>
<path d="M16.1727 6.96631L16.3308 7.45276H16.8423L16.4285 7.7534L16.5865 8.23984L16.1727 7.9392L15.7589 8.23984L15.917 7.7534L15.5032 7.45276H16.0147L16.1727 6.96631Z" fill="white"/>
<path d="M16.1727 4.85425L16.3308 5.34069H16.8423L16.4285 5.64133L16.5865 6.12778L16.1727 5.82714L15.7589 6.12778L15.917 5.64133L15.5032 5.34069H16.0147L16.1727 4.85425Z" fill="white"/>
<path d="M16.1727 2.74219L16.3308 3.22863H16.8423L16.4285 3.52927L16.5865 4.01572L16.1727 3.71508L15.7589 4.01572L15.917 3.52927L15.5032 3.22863H16.0147L16.1727 2.74219Z" fill="white"/>
<path d="M18.2846 6.96631L18.4426 7.45276H18.9541L18.5403 7.7534L18.6984 8.23984L18.2846 7.9392L17.8708 8.23984L18.0288 7.7534L17.615 7.45276H18.1265L18.2846 6.96631Z" fill="white"/>
<path d="M18.2846 4.85425L18.4426 5.34069H18.9541L18.5403 5.64133L18.6984 6.12778L18.2846 5.82714L17.8708 6.12778L18.0288 5.64133L17.615 5.34069H18.1265L18.2846 4.85425Z" fill="white"/>
<path d="M18.2846 2.74219L18.4426 3.22863H18.9541L18.5403 3.52927L18.6984 4.01572L18.2846 3.71508L17.8708 4.01572L18.0288 3.52927L17.615 3.22863H18.1265L18.2846 2.74219Z" fill="white"/>
<path fill-rule="evenodd" clip-rule="evenodd" d="M7.45499 3.01098C6.21866 3.26196 5.28812 4.35502 5.28812 5.66542C5.28812 6.97583 6.21866 8.06889 7.45499 8.31987C7.27994 8.35541 7.09876 8.37406 6.91323 8.37406C5.41729 8.37406 4.20459 7.16136 4.20459 5.66542C4.20459 4.16949 5.41729 2.95679 6.91323 2.95679C7.09876 2.95679 7.27994 2.97544 7.45499 3.01098Z" fill="white"/>
</svg>
