<svg width="100" height="39" viewBox="0 0 100 39" fill="none" xmlns="http://www.w3.org/2000/svg">
<path d="M16.9037 5.61914C17.7006 5.61914 18.347 5.91602 18.8431 6.50977C19.3431 7.10352 19.5931 7.88086 19.5931 8.8418C19.5931 9.80273 19.3451 10.582 18.849 11.1797C18.3568 11.7734 17.7123 12.0703 16.9154 12.0703C16.4193 12.0703 15.9799 11.9473 15.597 11.7012C15.2181 11.4512 14.9388 11.1172 14.7592 10.6992H14.7416V14.0684H13.9681V5.68945H14.7006V6.99609H14.7181C14.8861 6.58984 15.1693 6.25977 15.5677 6.00586C15.9662 5.74805 16.4115 5.61914 16.9037 5.61914ZM16.7689 11.373C17.3783 11.373 17.8685 11.1426 18.2396 10.6816C18.6146 10.2168 18.8021 9.60547 18.8021 8.84766C18.8021 8.08984 18.6146 7.47852 18.2396 7.01367C17.8685 6.54492 17.3783 6.31055 16.7689 6.31055C16.1674 6.31055 15.6771 6.54688 15.2982 7.01953C14.9232 7.48828 14.7357 8.0957 14.7357 8.8418C14.7357 9.5918 14.9232 10.2012 15.2982 10.6699C15.6771 11.1387 16.1674 11.373 16.7689 11.373ZM23.2201 12.0703C22.3529 12.0703 21.6576 11.7793 21.1342 11.1973C20.6146 10.6113 20.3549 9.82617 20.3549 8.8418C20.3549 7.86133 20.6146 7.08008 21.1342 6.49805C21.6576 5.91211 22.3529 5.61914 23.2201 5.61914C24.0912 5.61914 24.7865 5.91211 25.306 6.49805C25.8295 7.08008 26.0912 7.86133 26.0912 8.8418C26.0912 9.82227 25.8295 10.6055 25.306 11.1914C24.7865 11.7773 24.0912 12.0703 23.2201 12.0703ZM23.2201 11.373C23.8646 11.373 24.3724 11.1484 24.7435 10.6992C25.1146 10.2461 25.3002 9.62695 25.3002 8.8418C25.3002 8.05664 25.1146 7.43945 24.7435 6.99023C24.3724 6.53711 23.8646 6.31055 23.2201 6.31055C22.5795 6.31055 22.0736 6.53711 21.7025 6.99023C21.3314 7.43945 21.1459 8.05664 21.1459 8.8418C21.1459 9.62695 21.3314 10.2461 21.7025 10.6992C22.0736 11.1484 22.5795 11.373 23.2201 11.373ZM35.0092 5.68945L33.2103 12H32.3959L30.8138 6.74414H30.7963L29.2142 12H28.3998L26.601 5.68945H27.3802L28.8099 11.1211H28.8275L30.4095 5.68945H31.1947L32.7826 11.1211H32.8002L34.2299 5.68945H35.0092ZM38.3197 6.30469C37.7533 6.30469 37.2865 6.49805 36.9193 6.88477C36.556 7.26758 36.3568 7.77344 36.3217 8.40234H40.2474C40.2396 7.77344 40.058 7.26758 39.7025 6.88477C39.351 6.49805 38.89 6.30469 38.3197 6.30469ZM40.2064 10.2129H40.974C40.8802 10.7559 40.5931 11.2012 40.1127 11.5488C39.6361 11.8965 39.058 12.0703 38.3783 12.0703C37.5033 12.0703 36.808 11.7832 36.2924 11.209C35.7767 10.6309 35.5189 9.84766 35.5189 8.85938C35.5189 7.87891 35.7748 7.09375 36.2865 6.50391C36.8021 5.91406 37.4838 5.61914 38.3314 5.61914C39.1595 5.61914 39.8197 5.89844 40.3119 6.45703C40.808 7.01172 41.056 7.75781 41.056 8.69531V9.03516H36.3217V9.07617C36.3217 9.78711 36.5092 10.3496 36.8842 10.7637C37.2631 11.1777 37.767 11.3848 38.3959 11.3848C38.8607 11.3848 39.2552 11.2773 39.5795 11.0625C39.9037 10.8477 40.1127 10.5645 40.2064 10.2129ZM42.14 12V5.68945H42.8666V6.80859H42.89C42.9994 6.43359 43.1947 6.14258 43.476 5.93555C43.7572 5.72461 44.0951 5.61914 44.4896 5.61914C44.6576 5.61914 44.8138 5.64062 44.9584 5.68359V6.45703C44.8256 6.39453 44.6342 6.36328 44.3842 6.36328C43.9388 6.36328 43.5814 6.52344 43.3119 6.84375C43.0463 7.16016 42.9135 7.57422 42.9135 8.08594V12H42.14ZM47.976 6.30469C47.4095 6.30469 46.9427 6.49805 46.5756 6.88477C46.2123 7.26758 46.0131 7.77344 45.9779 8.40234H49.9037C49.8959 7.77344 49.7142 7.26758 49.3588 6.88477C49.0072 6.49805 48.5463 6.30469 47.976 6.30469ZM49.8627 10.2129H50.6302C50.5365 10.7559 50.2494 11.2012 49.7689 11.5488C49.2924 11.8965 48.7142 12.0703 48.0345 12.0703C47.1595 12.0703 46.4642 11.7832 45.9486 11.209C45.433 10.6309 45.1752 9.84766 45.1752 8.85938C45.1752 7.87891 45.431 7.09375 45.9427 6.50391C46.4584 5.91406 47.14 5.61914 47.9877 5.61914C48.8158 5.61914 49.476 5.89844 49.9681 6.45703C50.4642 7.01172 50.7123 7.75781 50.7123 8.69531V9.03516H45.9779V9.07617C45.9779 9.78711 46.1654 10.3496 46.5404 10.7637C46.9193 11.1777 47.4232 11.3848 48.0521 11.3848C48.517 11.3848 48.9115 11.2773 49.2357 11.0625C49.5599 10.8477 49.7689 10.5645 49.8627 10.2129ZM54.181 12.0703C53.3881 12.0703 52.7396 11.7734 52.2357 11.1797C51.7318 10.582 51.4799 9.80273 51.4799 8.8418C51.4799 7.88477 51.7299 7.10938 52.2299 6.51562C52.7299 5.91797 53.3744 5.61914 54.1635 5.61914C54.6635 5.61914 55.1068 5.74414 55.4935 5.99414C55.8802 6.24023 56.1595 6.57031 56.3314 6.98438H56.349V3.17578H57.1283V12H56.39V10.6582H56.3724C56.1888 11.0918 55.9037 11.4355 55.517 11.6895C55.1302 11.9434 54.6849 12.0703 54.181 12.0703ZM55.7806 7.01953C55.4017 6.54688 54.9095 6.31055 54.3041 6.31055C53.6986 6.31055 53.2084 6.54297 52.8334 7.00781C52.4584 7.47266 52.2709 8.08398 52.2709 8.8418C52.2709 9.59961 52.4584 10.2109 52.8334 10.6758C53.2084 11.1406 53.6986 11.373 54.3041 11.373C54.9095 11.373 55.4017 11.1387 55.7806 10.6699C56.1635 10.2012 56.3549 9.5918 56.3549 8.8418C56.3549 8.0957 56.1635 7.48828 55.7806 7.01953ZM64.2474 12.0703C63.7435 12.0703 63.2982 11.9473 62.9115 11.7012C62.5287 11.4512 62.2435 11.1055 62.056 10.6641H62.0385V12H61.3002V3.17578H62.0736V6.98438H62.0912C62.2748 6.55859 62.558 6.22461 62.9408 5.98242C63.3236 5.74023 63.7631 5.61914 64.2592 5.61914C65.0521 5.61914 65.6947 5.91602 66.1869 6.50977C66.6791 7.10352 66.9252 7.88086 66.9252 8.8418C66.9252 9.80664 66.6771 10.5859 66.181 11.1797C65.6888 11.7734 65.0443 12.0703 64.2474 12.0703ZM65.5775 7.00781C65.2103 6.54297 64.724 6.31055 64.1185 6.31055C63.5131 6.31055 63.0189 6.54688 62.6361 7.01953C62.2572 7.49219 62.0677 8.10156 62.0677 8.84766C62.0677 9.59375 62.2572 10.2012 62.6361 10.6699C63.0189 11.1387 63.5111 11.373 64.1127 11.373C64.7181 11.373 65.2064 11.1426 65.5775 10.6816C65.9486 10.2168 66.1342 9.60352 66.1342 8.8418C66.1342 8.08398 65.9486 7.47266 65.5775 7.00781ZM68.3431 14.1973C68.2103 14.1973 68.0814 14.1816 67.9564 14.1504V13.4883C68.0736 13.5156 68.2006 13.5293 68.3373 13.5293C68.6224 13.5293 68.8529 13.4453 69.0287 13.2773C69.2084 13.1133 69.3685 12.832 69.5092 12.4336L69.6498 12.041L67.2767 5.68945H68.1088L70.0424 11.2148H70.0599L71.9994 5.68945H72.8197L70.3588 12.3047C70.0853 13.0469 69.808 13.5469 69.5267 13.8047C69.2494 14.0664 68.8549 14.1973 68.3431 14.1973Z" fill="white" fill-opacity="0.6"/>
<path d="M98.956 21.1558C98.3485 21.1558 97.8279 21.6644 97.8279 22.3118V30.6354C97.3506 30.9591 96.8734 31.1903 96.3961 31.3752C95.0945 31.8376 93.6193 31.7914 92.3611 31.2365C91.3632 30.7741 90.7124 29.8955 90.452 28.8319C90.2785 28.0921 90.2785 27.3522 90.2785 26.6123C90.2785 25.0863 89.9314 23.9303 89.6277 23.1442C89.2806 22.3581 88.9335 21.9419 88.8901 21.8494C88.4996 21.387 87.762 21.3407 87.3281 21.7569C86.8943 22.1731 86.8509 22.913 87.2414 23.3754C87.2414 23.3754 87.4583 23.6528 87.6752 24.1615C88.0223 25.0863 88.1091 26.0112 88.1091 26.9823C88.1091 28.5545 88.4128 30.1729 89.2806 31.4677C89.888 32.3926 90.8425 33.0862 91.8404 33.5024C93.5325 34.196 95.4416 34.196 97.1771 33.5486C97.3506 33.5024 97.5242 33.4099 97.6977 33.3636C97.4374 34.2885 96.7432 34.9821 95.9188 35.352C94.2701 36.0919 92.1875 35.6757 90.6256 34.8434C90.0615 34.5197 89.4107 34.7046 89.1504 35.3058C88.8467 35.8607 89.0202 36.5543 89.5843 36.878C90.9293 37.6641 92.4479 38.0341 93.9664 38.0341C94.8775 38.0341 95.7453 37.8953 96.5263 37.5716C97.7411 37.1092 98.7824 36.1844 99.3898 34.9821C99.7803 34.196 99.9973 33.3174 99.9973 32.3926V22.1731C100.041 21.572 99.5634 21.1558 98.956 21.1558ZM86.4604 27.5834C86.4604 26.6123 86.0699 25.5488 85.5926 24.7164C85.4625 24.439 85.2889 24.254 85.1154 24.0228C84.7249 23.5141 84.0741 23.4216 83.5534 23.7916C83.0762 24.2077 82.946 24.9014 83.3365 25.41C83.4667 25.5488 83.5534 25.7337 83.6402 25.8724C84.0307 26.5661 84.2043 27.3522 84.2043 28.0921C84.2043 28.8319 84.0307 29.6643 83.6402 30.3117C83.2497 31.0053 82.7291 31.5602 82.0349 31.9764C81.3407 32.3926 80.6031 32.5775 79.9089 32.5775C79.1713 32.5775 78.4337 32.3926 77.7829 31.9764C77.1321 31.5602 76.5681 31.0515 76.1776 30.3117C75.7871 29.618 75.6135 28.8319 75.6135 28.0921C75.6135 27.3522 75.7871 26.5198 76.1776 25.8724C76.5681 25.1788 77.0887 24.6239 77.7829 24.2077C78.4771 23.7916 79.2147 23.6066 79.9089 23.6066C80.0824 23.6066 80.2994 23.6066 80.4729 23.6528C81.0804 23.7453 81.6444 23.2829 81.7312 22.6818C81.8179 22.0344 81.3841 21.4795 80.7766 21.387C80.5163 21.3407 80.2126 21.3407 79.9523 21.3407C78.8242 21.3407 77.7395 21.6182 76.6982 22.2656C75.6569 22.913 74.8326 23.7916 74.2685 24.8089C73.7045 25.8262 73.4442 26.9823 73.4442 28.1845C73.4442 29.3406 73.7045 30.4966 74.3119 31.6064C74.9193 32.67 75.7871 33.5486 76.7416 34.1497C77.6962 34.7046 78.8242 35.0283 79.9523 35.0283C81.0804 35.0283 82.165 34.7509 83.2063 34.1035C83.9873 33.6411 84.6815 32.9937 85.2022 32.2538C85.4625 32.855 85.7662 33.4099 86.0699 33.9185C86.417 34.4734 87.1112 34.6122 87.5885 34.2422C88.1091 33.9185 88.2393 33.1787 87.8922 32.67C87.0244 31.144 86.4604 29.4331 86.4604 27.5834ZM69.1054 31.0978C68.7583 31.514 68.3679 31.8377 67.8906 32.0689C67.4133 32.3463 66.9361 32.485 66.372 32.5313C66.1985 32.5775 65.9816 32.5775 65.808 32.5775C65.1138 32.5775 64.4196 32.4388 63.7254 32.1151C63.1614 31.8376 62.5973 31.514 62.0767 31.0515C62.0767 29.4793 62.0767 26.2424 62.0767 26.1499C62.3804 25.41 62.8143 24.8089 63.3349 24.3927C63.899 23.9303 64.5498 23.6528 65.3307 23.5604C65.5043 23.5141 65.6778 23.5141 65.8514 23.5141C66.9361 23.5141 67.934 23.9303 68.715 24.6702C69.1054 24.9939 69.4092 25.4563 69.6695 25.9187C69.9298 26.3811 70.06 26.936 70.1467 27.4909C70.1901 27.6759 70.1901 27.8608 70.1901 28.0458C70.1901 29.2481 69.7996 30.3117 69.1054 31.0978ZM71.6219 24.9014C71.0579 23.8378 70.2335 22.913 69.2356 22.2656C68.2377 21.6182 67.1096 21.2945 65.8514 21.2945C65.5911 21.2945 65.3307 21.3407 65.0704 21.3407C63.8556 21.4795 62.8143 21.9881 61.9465 22.6355C61.6862 22.8205 61.4693 23.0517 61.2957 23.2829C61.1222 22.913 60.9052 22.5893 60.7317 22.3581C60.3846 21.8957 60.1243 21.6182 60.0809 21.572C59.6036 21.1558 58.9094 21.1558 58.5189 21.6644C58.1284 22.1269 58.1284 22.8667 58.6057 23.2829C58.6491 23.3291 58.9528 23.6066 59.2131 24.1615C59.3867 24.4389 59.5168 24.7626 59.6036 25.1326C59.7338 25.5025 59.7772 25.9187 59.7772 26.4274C59.7772 30.2654 59.7772 36.2769 59.7772 36.2769C59.7772 36.9243 60.2544 37.4329 60.9052 37.4329C61.556 37.4329 62.0333 36.9243 62.0333 36.2769C62.0333 36.2769 62.0333 35.3058 62.0333 33.8723C62.2936 34.011 62.5539 34.1497 62.8143 34.2885C63.7688 34.7046 64.7233 34.9359 65.7646 34.9359C66.0249 34.9359 66.3287 34.8896 66.589 34.8896C67.4133 34.7509 68.1943 34.5197 68.8885 34.1035C69.9298 33.5024 70.7975 32.67 71.405 31.6527C72.0124 30.5891 72.3595 29.4331 72.3595 28.1383C72.3595 27.8608 72.3161 27.5834 72.3161 27.3059C72.2727 26.4274 72.0124 25.6412 71.6219 24.9014ZM41.5111 22.2193C40.4698 21.572 39.3851 21.2945 38.257 21.2945C37.9967 21.2945 37.693 21.3407 37.4327 21.3407C36.8252 21.4332 36.3914 21.9881 36.4781 22.6355C36.5649 23.2829 37.0856 23.6991 37.7364 23.6066C37.9099 23.5604 38.1269 23.5604 38.3004 23.5604C39.038 23.5604 39.7756 23.7453 40.4264 24.1615C41.1206 24.5777 41.6412 25.1326 42.0317 25.8262C42.4222 26.5198 42.5958 27.2597 42.5958 28.0458C42.5958 28.8319 42.4222 29.5718 42.0317 30.2654C41.6412 31.0053 41.0772 31.5602 40.4264 31.9301C39.7756 32.3463 39.038 32.5313 38.3004 32.5313C37.5628 32.5313 36.8252 32.3463 36.1744 31.9301C35.4802 31.514 34.9596 30.9591 34.5691 30.2654C34.1786 29.5718 34.0051 28.8319 34.0051 28.0458C34.0051 27.2597 34.1786 26.5198 34.5691 25.8262C34.6559 25.6412 34.7426 25.5025 34.8728 25.3638C35.2633 24.8551 35.1331 24.1615 34.6559 23.7453C34.1786 23.3291 33.441 23.4679 33.0939 23.9765C32.9204 24.2077 32.7468 24.439 32.6167 24.6702C32.0092 25.7337 31.7489 26.8898 31.7489 28.0921C31.7489 29.2943 32.0526 30.4042 32.5733 31.4677C33.1373 32.485 33.9617 33.4099 35.003 34.011C36.0443 34.6584 37.129 34.9359 38.257 34.9359C39.3851 34.9359 40.4698 34.6122 41.4677 34.0573C42.4222 33.5024 43.3333 32.6238 43.8974 31.514C44.5048 30.4504 44.7651 29.2943 44.7651 28.0921C44.7651 26.8898 44.4614 25.78 43.9408 24.7164C43.3767 23.6991 42.5524 22.8205 41.5111 22.2193ZM7.23505 24.6702C7.49537 25.2251 8.14618 25.5025 8.71022 25.2251C9.27425 24.9476 9.53458 24.3002 9.27425 23.6991L8.27634 21.387C8.10279 20.9708 7.66892 20.6934 7.23505 20.6934C7.0615 20.6934 6.93133 20.7396 6.75778 20.8321C6.19375 21.1095 5.93343 21.7569 6.19375 22.3581L7.23505 24.6702ZM18.0385 22.913C18.429 22.4043 18.2988 21.7107 17.8216 21.2945C17.3443 20.8783 16.6067 21.0171 16.2596 21.5257C15.9993 21.8956 15.7824 22.2656 15.522 22.6818C15.1749 23.2829 14.9146 23.884 14.7411 24.4852L12.2246 31.144L10.0118 27.0747C9.83829 26.7048 9.4478 26.4736 9.05732 26.4736C8.66683 26.4736 8.31973 26.7048 8.10279 27.0285L5.84665 31.0978L2.15872 21.4332C1.98517 20.9708 1.5513 20.6934 1.11743 20.6934H1.07404C0.943877 20.6934 0.813714 20.7396 0.683552 20.7858C0.119516 21.0171 -0.140806 21.7107 0.0761313 22.3118L4.63181 34.2422C4.80535 34.6584 5.15245 34.9359 5.58633 34.9821C6.0202 35.0283 6.41069 34.7971 6.62762 34.4272L9.05732 29.988L11.4436 34.381C11.6606 34.7971 12.051 35.0283 12.4849 34.9821C12.9188 34.9359 13.2659 34.6584 13.4394 34.2422L16.8237 25.3175C16.9972 24.8551 17.2141 24.3465 17.4745 23.884C17.648 23.5141 17.8216 23.1904 18.0385 22.913ZM27.2366 22.2193C26.1953 21.572 25.1106 21.2945 23.9826 21.2945C23.7222 21.2945 23.4185 21.3407 23.1582 21.3407C22.5508 21.4332 22.1169 21.9881 22.2037 22.6355C22.2905 23.2829 22.8111 23.6991 23.4619 23.6066C23.6355 23.5604 23.8524 23.5604 24.026 23.5604C24.7635 23.5604 25.5011 23.7453 26.1519 24.1615C26.8461 24.5777 27.3668 25.1326 27.7573 25.8262C28.1478 26.5198 28.3213 27.2597 28.3213 28.0458C28.3213 28.8319 28.1478 29.5718 27.7573 30.2654C27.3668 31.0053 26.8027 31.5602 26.1519 31.9301C25.5011 32.3463 24.7635 32.5313 24.026 32.5313C23.2884 32.5313 22.5508 32.3463 21.9 31.9301C21.2058 31.514 20.6851 30.9591 20.2946 30.2654C19.9042 29.5718 19.7306 28.8319 19.7306 28.0458C19.7306 27.2597 19.9042 26.5198 20.2946 25.8262C20.3814 25.6412 20.4682 25.5025 20.5984 25.3638C20.9888 24.8551 20.8587 24.1615 20.3814 23.7453C19.9042 23.3291 19.1666 23.4679 18.8195 23.9765C18.6459 24.2077 18.4724 24.439 18.3422 24.6702C17.7348 25.7337 17.4745 26.8898 17.4745 28.0921C17.4745 29.2943 17.7782 30.4042 18.2988 31.4677C18.8629 32.485 19.6872 33.4099 20.7285 34.011C21.7698 34.6584 22.8545 34.9359 23.9826 34.9359C25.1106 34.9359 26.1953 34.6122 27.1932 34.0573C28.1478 33.5024 29.0589 32.6238 29.6229 31.514C30.2304 30.4504 30.4907 29.2943 30.4907 28.0921C30.4907 26.8898 30.187 25.78 29.6663 24.7164C29.1457 23.6991 28.3213 22.8205 27.2366 22.2193ZM55.395 31.0978C55.0479 31.514 54.6574 31.8377 54.1802 32.0689C53.7029 32.3463 53.2257 32.485 52.6616 32.5313C52.4881 32.5775 52.2711 32.5775 52.0976 32.5775C51.4034 32.5775 50.7092 32.4388 50.015 32.1151C49.451 31.8376 48.8869 31.514 48.3663 31.0515C48.3663 29.4793 48.3663 26.2424 48.3663 26.1499C48.67 25.41 49.1039 24.8089 49.6245 24.3927C50.1885 23.9303 50.8394 23.6528 51.6203 23.5604C51.7939 23.5141 51.9674 23.5141 52.141 23.5141C53.2257 23.5141 54.2236 23.9303 55.0045 24.6702C55.395 24.9939 55.6987 25.4563 55.9591 25.9187C56.2194 26.3811 56.3496 26.936 56.4363 27.4909C56.4797 27.6759 56.4797 27.8608 56.4797 28.0458C56.4797 29.2481 56.0892 30.3117 55.395 31.0978ZM57.9549 24.9014C57.3909 23.8378 56.5665 22.913 55.5686 22.2656C54.5707 21.6182 53.4426 21.2945 52.1844 21.2945C51.924 21.2945 51.6637 21.3407 51.4034 21.3407C50.1885 21.4795 49.1472 21.9881 48.2795 22.6355C48.0192 22.8205 47.8022 23.0517 47.6287 23.2829C47.4551 22.913 47.2382 22.5893 47.0647 22.3581C46.7176 21.8957 46.4572 21.6182 46.4138 21.572C45.9366 21.1558 45.2424 21.1558 44.8519 21.6644C44.4614 22.1269 44.4614 22.8667 44.9387 23.2829C44.9821 23.3291 45.2858 23.6066 45.5461 24.1615C45.7196 24.4389 45.8498 24.7626 45.9366 25.1326C46.0667 25.5025 46.1101 25.9187 46.1101 26.4274C46.1101 30.2654 46.1101 36.2769 46.1101 36.2769C46.1101 36.9243 46.5874 37.4329 47.2382 37.4329C47.8456 37.4329 48.3663 36.9243 48.3663 36.2769C48.3663 36.2769 48.3663 35.3058 48.3663 33.8723C48.6266 34.011 48.8869 34.1497 49.1472 34.2885C50.1018 34.7046 51.0563 34.9359 52.0976 34.9359C52.3579 34.9359 52.6616 34.8896 52.922 34.8896C53.7463 34.7509 54.5273 34.5197 55.2215 34.1035C56.2628 33.5024 57.1305 32.67 57.7379 31.6527C58.3454 30.5891 58.6925 29.4331 58.6925 28.1383C58.6925 27.8608 58.6491 27.5834 58.6491 27.3059C58.6057 26.4274 58.302 25.6412 57.9549 24.9014Z" fill="white" fill-opacity="0.6"/>
</svg>
