<svg width="64" height="64" fill="none" xmlns="http://www.w3.org/2000/svg"><rect x="10.667" y="35.11" width="42.667" height="28.89" rx="4.44" fill="#4D5771"/><path d="M49.846 47.1c-12.49-.874-18.388 10.098-38.867 1.432v10.833a4.44 4.44 0 004.44 4.44h33.474a4.44 4.44 0 004.44-4.44v-8.208c0-2.064-1.428-3.913-3.487-4.057z" fill="#fff" fill-opacity=".1"/><path d="M46.258 58.995l-.993 2.218h-.648l-.489-1.77c-.03-.108-.055-.148-.145-.195a2.685 2.685 0 00-.605-.188l.014-.065h1.043c.133 0 .253.083.283.227l.258 1.283.638-1.51h.644zm2.538 1.494c.002-.585-.864-.617-.859-.879.003-.08.083-.164.26-.185.088-.011.33-.02.605.099l.107-.47a1.754 1.754 0 00-.573-.098c-.606 0-1.032.3-1.035.733-.004.32.304.497.536.603.24.11.32.179.318.276-.001.148-.19.214-.366.217-.309.004-.487-.078-.63-.14l-.11.486c.142.061.407.114.68.117.644 0 1.065-.298 1.067-.759zm1.6.724h.567l-.495-2.218h-.523a.28.28 0 00-.26.163l-.92 2.055h.643l.128-.331h.786l.074.331zm-.684-.785l.323-.833.185.833h-.508zm-2.579-1.432l-.506 2.217h-.613l.507-2.218h.612z" fill="#fff"/><rect x="14.46" y="46.574" width="5.689" height="4.586" rx="1.48" fill="#fff"/><path d="M17.067 46.574v.865a.74.74 0 01-.74.74h-2.342m3.793 3.21v-.865a.74.74 0 01.74-.74h2.341" stroke="#4D5771" stroke-width=".74" stroke-linejoin="round"/><rect x="10.667" width="42.667" height="28.89" rx="4.44" fill="#4C9EE7"/><path d="M49.533 11.947c-12.49-.875-18.388 10.098-38.866 1.432v10.833a4.44 4.44 0 004.44 4.44H48.58a4.44 4.44 0 004.44-4.44v-8.208c0-2.064-1.429-3.913-3.488-4.057z" fill="#fff" fill-opacity=".16"/><rect x="13.037" y="11.694" width="5.689" height="4.586" rx="1.48" fill="#fff"/><path d="M15.644 11.465v.865a.74.74 0 01-.74.74h-2.341m3.793 3.439v-.865a.74.74 0 01.74-.74h2.341" stroke="#4C9EE7" stroke-width=".74" stroke-linejoin="round"/><path d="M46.258 23.886l-.993 2.218h-.648l-.489-1.77c-.03-.109-.055-.149-.145-.195a2.685 2.685 0 00-.605-.189l.014-.064h1.043c.133 0 .253.083.283.226l.258 1.283.638-1.509h.644zm2.538 1.494c.002-.585-.864-.617-.859-.88.003-.079.083-.163.26-.185.088-.01.33-.019.605.1l.107-.471a1.754 1.754 0 00-.573-.098c-.606 0-1.032.302-1.035.733-.004.32.304.498.536.604.24.109.32.178.318.275-.001.149-.19.215-.366.217-.309.005-.487-.078-.63-.14l-.11.486c.142.062.407.115.68.118.644 0 1.065-.298 1.067-.76zm1.6.724h.567l-.495-2.218h-.523a.28.28 0 00-.26.163l-.92 2.055h.643l.128-.331h.786l.074.33zm-.684-.786l.323-.833.185.833h-.508zm-2.579-1.432l-.506 2.218h-.613l.507-2.218h.612z" fill="#fff"/><path d="M39.551 30.984V4.492a.74.74 0 00-.74-.74H25.835a.74.74 0 00-.74.74v26.492a.74.74 0 01-.74.74h-1.498a.74.74 0 00-.51 1.275l9.465 9.036a.74.74 0 001.022 0L42.3 33a.74.74 0 00-.51-1.275h-1.5a.74.74 0 01-.74-.74z" fill="url(#paint0_linear)"/><defs><linearGradient id="paint0_linear" x1="21.01" y1="46.268" x2="21.01" y2="11.969" gradientUnits="userSpaceOnUse"><stop stop-color="#18B297"/><stop offset="1" stop-color="#76FFE6" stop-opacity="0"/></linearGradient></defs></svg>