<svg width="64" height="64" fill="none" xmlns="http://www.w3.org/2000/svg"><circle cx="32" cy="32" r="32" fill="#4D5771"/><path fill-rule="evenodd" clip-rule="evenodd" d="M56.62 19.495a1.406 1.406 0 00-.533-1.928 1.435 1.435 0 00-1.949.522l-1.527 2.608A23.486 23.486 0 0038.07 9.492C25.46 6.17 12.513 13.61 9.146 26.1c-3.367 12.49 4.118 25.313 16.728 28.635a23.785 23.785 0 0021.773-5.125c4.503-3.954 7.337-10.464 7.06-16.508-.037-.78-.754-1.327-1.535-1.228-.784.1-1.334.814-1.31 1.6.15 5.092-2.288 10.666-6.112 14.024a20.904 20.904 0 01-19.14 4.508C15.53 49.087 8.943 37.817 11.906 26.828c2.962-10.99 14.349-17.525 25.427-14.607A20.638 20.638 0 0149.6 21.208l-2.39-1.123a1.434 1.434 0 00-1.902.67 1.408 1.408 0 00.68 1.881l5.652 2.656c.708.332 1.555.07 1.944-.602l3.034-5.195z" fill="#5FAF61"/><path fill-rule="evenodd" clip-rule="evenodd" d="M56.62 19.495a1.406 1.406 0 00-.533-1.928 1.435 1.435 0 00-1.949.522l-1.527 2.608A23.486 23.486 0 0038.07 9.492C25.46 6.17 12.513 13.61 9.146 26.1c-3.367 12.49 4.118 25.313 16.728 28.635a23.785 23.785 0 0021.773-5.125c4.503-3.954 7.337-10.464 7.06-16.508-.037-.78-.754-1.327-1.535-1.228-.784.1-1.334.814-1.31 1.6.15 5.092-2.288 10.666-6.112 14.024a20.904 20.904 0 01-19.14 4.508C15.53 49.087 8.943 37.817 11.906 26.828c2.962-10.99 14.349-17.525 25.427-14.607A20.638 20.638 0 0149.6 21.208l-2.39-1.123a1.434 1.434 0 00-1.902.67 1.408 1.408 0 00.68 1.881l5.652 2.656c.708.332 1.555.07 1.944-.602l3.034-5.195z" fill="url(#paint0_linear)"/><path d="M18.714 30.411c0-.845.305-1.543.917-2.094.616-.554 1.394-.832 2.333-.832.9 0 1.65.252 2.248.754.598.503.898 1.127.898 1.873 0 .525-.147 1.023-.44 1.496-.292.468-.803 1.073-1.533 1.814l-2.366 2.36v.033h4.49v1.229h-6.469v-.989l3.415-3.453c.576-.598.963-1.057 1.16-1.378.196-.325.294-.672.294-1.04 0-.417-.168-.77-.504-1.06-.337-.29-.75-.436-1.239-.436-.515 0-.948.165-1.297.494a1.609 1.609 0 00-.518 1.223v.02h-1.39v-.014z" fill="#5FAF61"/><path d="M18.714 30.411c0-.845.305-1.543.917-2.094.616-.554 1.394-.832 2.333-.832.9 0 1.65.252 2.248.754.598.503.898 1.127.898 1.873 0 .525-.147 1.023-.44 1.496-.292.468-.803 1.073-1.533 1.814l-2.366 2.36v.033h4.49v1.229h-6.469v-.989l3.415-3.453c.576-.598.963-1.057 1.16-1.378.196-.325.294-.672.294-1.04 0-.417-.168-.77-.504-1.06-.337-.29-.75-.436-1.239-.436-.515 0-.948.165-1.297.494a1.609 1.609 0 00-.518 1.223v.02h-1.39v-.014z" fill="#fff"/><path d="M30.785 37.044V35.19h-4.732v-1.275c.76-1.422 2.1-3.507 4.018-6.255h2.123v6.307h1.297v1.222h-1.297v1.854h-1.41zm-3.362-3.089v.032h3.375v-5.201h-.026c-1.564 2.24-2.68 3.964-3.349 5.169z" fill="#5FAF61"/><path d="M30.785 37.044V35.19h-4.732v-1.275c.76-1.422 2.1-3.507 4.018-6.255h2.123v6.307h1.297v1.222h-1.297v1.854h-1.41zm-3.362-3.089v.032h3.375v-5.201h-.026c-1.564 2.24-2.68 3.964-3.349 5.169z" fill="#fff"/><path d="M35.13 39.098h-1.24l2.825-11.444h1.271L35.13 39.098z" fill="#5FAF61"/><path d="M35.13 39.098h-1.24l2.825-11.444h1.271L35.13 39.098z" fill="#fff"/><path d="M39.252 37.044l4.2-8.122v-.032h-4.986v-1.23H44.9v1.262l-4.11 8.122h-1.54z" fill="#5FAF61"/><path d="M39.252 37.044l4.2-8.122v-.032h-4.986v-1.23H44.9v1.262l-4.11 8.122h-1.54z" fill="#fff"/><defs><linearGradient id="paint0_linear" x1="64.217" y1="-9.847" x2="18.986" y2="-6.298" gradientUnits="userSpaceOnUse"><stop stop-color="#16D691"/><stop offset="1" stop-color="#71BCFF"/></linearGradient></defs></svg>