<svg width="64" height="74" fill="none" xmlns="http://www.w3.org/2000/svg"><rect width="64" height="73.846" rx="8.205" fill="#4D5771"/><path d="M27.429 36.486l4.156 3.319 4.155-3.32" stroke="#fff" stroke-width="1.026" stroke-miterlimit="10" stroke-linecap="round" stroke-linejoin="round"/><path d="M8.312 38.037c2.078.011 13.05.018 15.128.03m16.456-.03c2.078.011 13.05.018 15.129.03" stroke="#fff" stroke-opacity=".4" stroke-width="1.026" stroke-miterlimit="10" stroke-linecap="round" stroke-linejoin="round"/><path d="M20.83 51.732v6.022c0 .661.195 1.192.583 1.593.392.397.936.595 1.632.595.697 0 1.241-.198 1.633-.595.392-.4.589-.932.589-1.593v-6.022h1.698v6.174c0 1.054-.354 1.904-1.064 2.552-.705.648-1.657.972-2.856.972-1.194 0-2.146-.324-2.855-.972-.71-.648-1.065-1.498-1.065-2.552v-6.174h1.706zm7.817 9.539v-1.137l5.064-6.915v-.046h-4.925v-1.441h6.987v1.137l-5.037 6.915v.046h5.163v1.441h-7.252zm8.537-2.684h1.653c.052.436.277.789.674 1.058.396.264.888.396 1.474.396.573 0 1.04-.127 1.401-.383.366-.255.549-.582.549-.978 0-.344-.132-.622-.397-.833-.264-.216-.696-.395-1.295-.536l-1.236-.29c-.877-.203-1.53-.518-1.957-.946-.423-.427-.635-.983-.635-1.666 0-.841.33-1.525.992-2.049.66-.524 1.514-.787 2.558-.787 1.049 0 1.893.26 2.532.78.643.516.976 1.195.998 2.036H42.87c-.04-.445-.231-.793-.575-1.044-.344-.256-.791-.383-1.342-.383-.538 0-.974.12-1.31.363-.33.242-.495.562-.495.959 0 .317.128.575.384.773.26.198.683.368 1.269.51l1.097.25c.965.22 1.666.542 2.102.965.437.424.655.99.655 1.7 0 .903-.34 1.621-1.018 2.154-.675.53-1.589.794-2.744.794-1.101 0-1.987-.254-2.657-.76-.666-.512-1.016-1.206-1.051-2.083zM20.83 22.283h-1.705v-9.54h1.706v4.463h.06l3.807-4.462h1.963l-3.675 4.23 3.96 5.309H24.87l-3.1-4.165-.94 1.098v3.067zm7.01 0v-1.137l5.064-6.915v-.046H27.98v-1.441h6.988v1.137l-5.037 6.915v.046h5.162v1.44h-7.251zm13.006 0h-1.705v-8.098h-2.896v-1.441h7.497v1.44h-2.896v8.099z" fill="#32CEB3"/></svg>