<svg width="64" height="64" fill="none" xmlns="http://www.w3.org/2000/svg"><circle cx="32" cy="32" r="32" fill="#4D5771"/><path d="M56.624 36.383c0 6.223-2.25 8.954-6.039 9.524-12.113 1.82-24.182.753-36.412.06-3.728-.212-5.936-2.636-5.936-9.584 0-14.133 10.831-24.953 24.193-24.953 13.362 0 24.194 10.82 24.194 24.953z" fill="#1A2133" fill-opacity=".8"/><path d="M42.362 27.17l-11.39 4.063a2.536 2.536 0 102.3 4.471l9.93-6.9a.927.927 0 00-.84-1.634z" fill="#fff"/><path fill-rule="evenodd" clip-rule="evenodd" d="M11.995 35.102c0 1.871.254 3.684.728 5.404.137.499.6.832 1.117.832.831 0 1.41-.832 1.196-1.636a17.864 17.864 0 01-.599-4.6c0-9.838 7.965-17.82 17.797-17.82s17.796 7.982 17.796 17.82c0 1.59-.208 3.132-.598 4.6-.214.804.364 1.636 1.196 1.636.517 0 .98-.333 1.117-.832.474-1.72.727-3.533.727-5.404 0-11.199-9.064-20.271-20.238-20.271-11.175 0-20.239 9.072-20.239 20.27z" fill="#5FAF61"/><path fill-rule="evenodd" clip-rule="evenodd" d="M11.995 35.102c0 1.871.254 3.684.728 5.404.137.499.6.832 1.117.832.831 0 1.41-.832 1.196-1.636a17.864 17.864 0 01-.599-4.6c0-9.838 7.965-17.82 17.797-17.82s17.796 7.982 17.796 17.82c0 1.59-.208 3.132-.598 4.6-.214.804.364 1.636 1.196 1.636.517 0 .98-.333 1.117-.832.474-1.72.727-3.533.727-5.404 0-11.199-9.064-20.271-20.238-20.271-11.175 0-20.239 9.072-20.239 20.27z" fill="url(#paint0_linear)"/><defs><linearGradient id="paint0_linear" x1="53.848" y1="30.054" x2="8.267" y2="47.351" gradientUnits="userSpaceOnUse"><stop stop-color="#16D691"/><stop offset="1" stop-color="#71BCFF"/></linearGradient></defs></svg>